G04 #@! TF.GenerationSoftware,KiCad,Pcbnew,7.0.9*
G04 #@! TF.CreationDate,2023-11-22T19:56:06+01:00*
G04 #@! TF.ProjectId,my4th-light,6d793474-682d-46c6-9967-68742e6b6963,rev?*
G04 #@! TF.SameCoordinates,Original*
G04 #@! TF.FileFunction,Legend,Top*
G04 #@! TF.FilePolarity,Positive*
%FSLAX46Y46*%
G04 Gerber Fmt 4.6, Leading zero omitted, Abs format (unit mm)*
G04 Created by KiCad (PCBNEW 7.0.9) date 2023-11-22 19:56:06*
%MOMM*%
%LPD*%
G01*
G04 APERTURE LIST*
%ADD10C,0.120000*%
%ADD11C,0.150000*%
%ADD12C,0.250000*%
%ADD13C,0.100000*%
G04 APERTURE END LIST*
D10*
X166116000Y-55372000D02*
X164592000Y-55372000D01*
X166116000Y-54610000D02*
X164846000Y-54102000D01*
X171704000Y-54610000D02*
X172974000Y-54102000D01*
X171704000Y-56134000D02*
X172974000Y-56642000D01*
X166116000Y-56134000D02*
X164846000Y-56642000D01*
X171704000Y-55372000D02*
X173228000Y-55372000D01*
D11*
X176653819Y-51463411D02*
X176653819Y-52034839D01*
X176653819Y-51749125D02*
X175653819Y-51749125D01*
X175653819Y-51749125D02*
X175796676Y-51844363D01*
X175796676Y-51844363D02*
X175891914Y-51939601D01*
X175891914Y-51939601D02*
X175939533Y-52034839D01*
X175653819Y-50558649D02*
X175653819Y-51034839D01*
X175653819Y-51034839D02*
X176130009Y-51082458D01*
X176130009Y-51082458D02*
X176082390Y-51034839D01*
X176082390Y-51034839D02*
X176034771Y-50939601D01*
X176034771Y-50939601D02*
X176034771Y-50701506D01*
X176034771Y-50701506D02*
X176082390Y-50606268D01*
X176082390Y-50606268D02*
X176130009Y-50558649D01*
X176130009Y-50558649D02*
X176225247Y-50511030D01*
X176225247Y-50511030D02*
X176463342Y-50511030D01*
X176463342Y-50511030D02*
X176558580Y-50558649D01*
X176558580Y-50558649D02*
X176606200Y-50606268D01*
X176606200Y-50606268D02*
X176653819Y-50701506D01*
X176653819Y-50701506D02*
X176653819Y-50939601D01*
X176653819Y-50939601D02*
X176606200Y-51034839D01*
X176606200Y-51034839D02*
X176558580Y-51082458D01*
X175653819Y-49891982D02*
X175653819Y-49796744D01*
X175653819Y-49796744D02*
X175701438Y-49701506D01*
X175701438Y-49701506D02*
X175749057Y-49653887D01*
X175749057Y-49653887D02*
X175844295Y-49606268D01*
X175844295Y-49606268D02*
X176034771Y-49558649D01*
X176034771Y-49558649D02*
X176272866Y-49558649D01*
X176272866Y-49558649D02*
X176463342Y-49606268D01*
X176463342Y-49606268D02*
X176558580Y-49653887D01*
X176558580Y-49653887D02*
X176606200Y-49701506D01*
X176606200Y-49701506D02*
X176653819Y-49796744D01*
X176653819Y-49796744D02*
X176653819Y-49891982D01*
X176653819Y-49891982D02*
X176606200Y-49987220D01*
X176606200Y-49987220D02*
X176558580Y-50034839D01*
X176558580Y-50034839D02*
X176463342Y-50082458D01*
X176463342Y-50082458D02*
X176272866Y-50130077D01*
X176272866Y-50130077D02*
X176034771Y-50130077D01*
X176034771Y-50130077D02*
X175844295Y-50082458D01*
X175844295Y-50082458D02*
X175749057Y-50034839D01*
X175749057Y-50034839D02*
X175701438Y-49987220D01*
X175701438Y-49987220D02*
X175653819Y-49891982D01*
X176653819Y-49130077D02*
X175653819Y-49130077D01*
X176272866Y-49034839D02*
X176653819Y-48749125D01*
X175987152Y-48749125D02*
X176368104Y-49130077D01*
X153876762Y-51924057D02*
X153924381Y-51876438D01*
X153924381Y-51876438D02*
X154019619Y-51828819D01*
X154019619Y-51828819D02*
X154257714Y-51828819D01*
X154257714Y-51828819D02*
X154352952Y-51876438D01*
X154352952Y-51876438D02*
X154400571Y-51924057D01*
X154400571Y-51924057D02*
X154448190Y-52019295D01*
X154448190Y-52019295D02*
X154448190Y-52114533D01*
X154448190Y-52114533D02*
X154400571Y-52257390D01*
X154400571Y-52257390D02*
X153829143Y-52828819D01*
X153829143Y-52828819D02*
X154448190Y-52828819D01*
X155305333Y-52162152D02*
X155305333Y-52828819D01*
X155067238Y-51781200D02*
X154829143Y-52495485D01*
X154829143Y-52495485D02*
X155448190Y-52495485D01*
X156305333Y-52828819D02*
X155829143Y-52828819D01*
X155829143Y-52828819D02*
X155829143Y-51828819D01*
X157210095Y-52733580D02*
X157162476Y-52781200D01*
X157162476Y-52781200D02*
X157019619Y-52828819D01*
X157019619Y-52828819D02*
X156924381Y-52828819D01*
X156924381Y-52828819D02*
X156781524Y-52781200D01*
X156781524Y-52781200D02*
X156686286Y-52685961D01*
X156686286Y-52685961D02*
X156638667Y-52590723D01*
X156638667Y-52590723D02*
X156591048Y-52400247D01*
X156591048Y-52400247D02*
X156591048Y-52257390D01*
X156591048Y-52257390D02*
X156638667Y-52066914D01*
X156638667Y-52066914D02*
X156686286Y-51971676D01*
X156686286Y-51971676D02*
X156781524Y-51876438D01*
X156781524Y-51876438D02*
X156924381Y-51828819D01*
X156924381Y-51828819D02*
X157019619Y-51828819D01*
X157019619Y-51828819D02*
X157162476Y-51876438D01*
X157162476Y-51876438D02*
X157210095Y-51924057D01*
X158114857Y-51828819D02*
X157638667Y-51828819D01*
X157638667Y-51828819D02*
X157591048Y-52305009D01*
X157591048Y-52305009D02*
X157638667Y-52257390D01*
X157638667Y-52257390D02*
X157733905Y-52209771D01*
X157733905Y-52209771D02*
X157972000Y-52209771D01*
X157972000Y-52209771D02*
X158067238Y-52257390D01*
X158067238Y-52257390D02*
X158114857Y-52305009D01*
X158114857Y-52305009D02*
X158162476Y-52400247D01*
X158162476Y-52400247D02*
X158162476Y-52638342D01*
X158162476Y-52638342D02*
X158114857Y-52733580D01*
X158114857Y-52733580D02*
X158067238Y-52781200D01*
X158067238Y-52781200D02*
X157972000Y-52828819D01*
X157972000Y-52828819D02*
X157733905Y-52828819D01*
X157733905Y-52828819D02*
X157638667Y-52781200D01*
X157638667Y-52781200D02*
X157591048Y-52733580D01*
X159114857Y-52828819D02*
X158543429Y-52828819D01*
X158829143Y-52828819D02*
X158829143Y-51828819D01*
X158829143Y-51828819D02*
X158733905Y-51971676D01*
X158733905Y-51971676D02*
X158638667Y-52066914D01*
X158638667Y-52066914D02*
X158543429Y-52114533D01*
X159495810Y-51924057D02*
X159543429Y-51876438D01*
X159543429Y-51876438D02*
X159638667Y-51828819D01*
X159638667Y-51828819D02*
X159876762Y-51828819D01*
X159876762Y-51828819D02*
X159972000Y-51876438D01*
X159972000Y-51876438D02*
X160019619Y-51924057D01*
X160019619Y-51924057D02*
X160067238Y-52019295D01*
X160067238Y-52019295D02*
X160067238Y-52114533D01*
X160067238Y-52114533D02*
X160019619Y-52257390D01*
X160019619Y-52257390D02*
X159448191Y-52828819D01*
X159448191Y-52828819D02*
X160067238Y-52828819D01*
X137109200Y-48986839D02*
X137156819Y-48843982D01*
X137156819Y-48843982D02*
X137156819Y-48605887D01*
X137156819Y-48605887D02*
X137109200Y-48510649D01*
X137109200Y-48510649D02*
X137061580Y-48463030D01*
X137061580Y-48463030D02*
X136966342Y-48415411D01*
X136966342Y-48415411D02*
X136871104Y-48415411D01*
X136871104Y-48415411D02*
X136775866Y-48463030D01*
X136775866Y-48463030D02*
X136728247Y-48510649D01*
X136728247Y-48510649D02*
X136680628Y-48605887D01*
X136680628Y-48605887D02*
X136633009Y-48796363D01*
X136633009Y-48796363D02*
X136585390Y-48891601D01*
X136585390Y-48891601D02*
X136537771Y-48939220D01*
X136537771Y-48939220D02*
X136442533Y-48986839D01*
X136442533Y-48986839D02*
X136347295Y-48986839D01*
X136347295Y-48986839D02*
X136252057Y-48939220D01*
X136252057Y-48939220D02*
X136204438Y-48891601D01*
X136204438Y-48891601D02*
X136156819Y-48796363D01*
X136156819Y-48796363D02*
X136156819Y-48558268D01*
X136156819Y-48558268D02*
X136204438Y-48415411D01*
X137156819Y-47986839D02*
X136156819Y-47986839D01*
X136156819Y-47986839D02*
X136156819Y-47748744D01*
X136156819Y-47748744D02*
X136204438Y-47605887D01*
X136204438Y-47605887D02*
X136299676Y-47510649D01*
X136299676Y-47510649D02*
X136394914Y-47463030D01*
X136394914Y-47463030D02*
X136585390Y-47415411D01*
X136585390Y-47415411D02*
X136728247Y-47415411D01*
X136728247Y-47415411D02*
X136918723Y-47463030D01*
X136918723Y-47463030D02*
X137013961Y-47510649D01*
X137013961Y-47510649D02*
X137109200Y-47605887D01*
X137109200Y-47605887D02*
X137156819Y-47748744D01*
X137156819Y-47748744D02*
X137156819Y-47986839D01*
X136871104Y-47034458D02*
X136871104Y-46558268D01*
X137156819Y-47129696D02*
X136156819Y-46796363D01*
X136156819Y-46796363D02*
X137156819Y-46463030D01*
X193170350Y-82134152D02*
X193170350Y-82800819D01*
X192932255Y-81753200D02*
X192694160Y-82467485D01*
X192694160Y-82467485D02*
X193313207Y-82467485D01*
X193694160Y-82800819D02*
X193694160Y-81800819D01*
X193789398Y-82419866D02*
X194075112Y-82800819D01*
X194075112Y-82134152D02*
X193694160Y-82515104D01*
X194408446Y-81800819D02*
X195075112Y-81800819D01*
X195075112Y-81800819D02*
X194646541Y-82800819D01*
X182892819Y-107147904D02*
X182892819Y-106481238D01*
X182892819Y-106481238D02*
X183892819Y-106909809D01*
X183226152Y-105671714D02*
X183892819Y-105671714D01*
X182845200Y-105909809D02*
X183559485Y-106147904D01*
X183559485Y-106147904D02*
X183559485Y-105528857D01*
X183892819Y-105147904D02*
X182892819Y-105147904D01*
X183369009Y-105147904D02*
X183369009Y-104576476D01*
X183892819Y-104576476D02*
X182892819Y-104576476D01*
X183797580Y-103528857D02*
X183845200Y-103576476D01*
X183845200Y-103576476D02*
X183892819Y-103719333D01*
X183892819Y-103719333D02*
X183892819Y-103814571D01*
X183892819Y-103814571D02*
X183845200Y-103957428D01*
X183845200Y-103957428D02*
X183749961Y-104052666D01*
X183749961Y-104052666D02*
X183654723Y-104100285D01*
X183654723Y-104100285D02*
X183464247Y-104147904D01*
X183464247Y-104147904D02*
X183321390Y-104147904D01*
X183321390Y-104147904D02*
X183130914Y-104100285D01*
X183130914Y-104100285D02*
X183035676Y-104052666D01*
X183035676Y-104052666D02*
X182940438Y-103957428D01*
X182940438Y-103957428D02*
X182892819Y-103814571D01*
X182892819Y-103814571D02*
X182892819Y-103719333D01*
X182892819Y-103719333D02*
X182940438Y-103576476D01*
X182940438Y-103576476D02*
X182988057Y-103528857D01*
X182892819Y-102624095D02*
X182892819Y-103100285D01*
X182892819Y-103100285D02*
X183369009Y-103147904D01*
X183369009Y-103147904D02*
X183321390Y-103100285D01*
X183321390Y-103100285D02*
X183273771Y-103005047D01*
X183273771Y-103005047D02*
X183273771Y-102766952D01*
X183273771Y-102766952D02*
X183321390Y-102671714D01*
X183321390Y-102671714D02*
X183369009Y-102624095D01*
X183369009Y-102624095D02*
X183464247Y-102576476D01*
X183464247Y-102576476D02*
X183702342Y-102576476D01*
X183702342Y-102576476D02*
X183797580Y-102624095D01*
X183797580Y-102624095D02*
X183845200Y-102671714D01*
X183845200Y-102671714D02*
X183892819Y-102766952D01*
X183892819Y-102766952D02*
X183892819Y-103005047D01*
X183892819Y-103005047D02*
X183845200Y-103100285D01*
X183845200Y-103100285D02*
X183797580Y-103147904D01*
X182892819Y-102243142D02*
X182892819Y-101576476D01*
X182892819Y-101576476D02*
X183892819Y-102005047D01*
X183226152Y-100766952D02*
X183892819Y-100766952D01*
X182845200Y-101005047D02*
X183559485Y-101243142D01*
X183559485Y-101243142D02*
X183559485Y-100624095D01*
X200656819Y-48367792D02*
X200180628Y-48701125D01*
X200656819Y-48939220D02*
X199656819Y-48939220D01*
X199656819Y-48939220D02*
X199656819Y-48558268D01*
X199656819Y-48558268D02*
X199704438Y-48463030D01*
X199704438Y-48463030D02*
X199752057Y-48415411D01*
X199752057Y-48415411D02*
X199847295Y-48367792D01*
X199847295Y-48367792D02*
X199990152Y-48367792D01*
X199990152Y-48367792D02*
X200085390Y-48415411D01*
X200085390Y-48415411D02*
X200133009Y-48463030D01*
X200133009Y-48463030D02*
X200180628Y-48558268D01*
X200180628Y-48558268D02*
X200180628Y-48939220D01*
X199656819Y-48034458D02*
X200656819Y-47367792D01*
X199656819Y-47367792D02*
X200656819Y-48034458D01*
X200656819Y-46986839D02*
X199656819Y-46986839D01*
X199656819Y-46986839D02*
X199656819Y-46748744D01*
X199656819Y-46748744D02*
X199704438Y-46605887D01*
X199704438Y-46605887D02*
X199799676Y-46510649D01*
X199799676Y-46510649D02*
X199894914Y-46463030D01*
X199894914Y-46463030D02*
X200085390Y-46415411D01*
X200085390Y-46415411D02*
X200228247Y-46415411D01*
X200228247Y-46415411D02*
X200418723Y-46463030D01*
X200418723Y-46463030D02*
X200513961Y-46510649D01*
X200513961Y-46510649D02*
X200609200Y-46605887D01*
X200609200Y-46605887D02*
X200656819Y-46748744D01*
X200656819Y-46748744D02*
X200656819Y-46986839D01*
X195957771Y-49034506D02*
X195910152Y-49082125D01*
X195910152Y-49082125D02*
X195767295Y-49177363D01*
X195767295Y-49177363D02*
X195672057Y-49224982D01*
X195672057Y-49224982D02*
X195529200Y-49272601D01*
X195529200Y-49272601D02*
X195291104Y-49320220D01*
X195291104Y-49320220D02*
X195100628Y-49320220D01*
X195100628Y-49320220D02*
X194862533Y-49272601D01*
X194862533Y-49272601D02*
X194719676Y-49224982D01*
X194719676Y-49224982D02*
X194624438Y-49177363D01*
X194624438Y-49177363D02*
X194481580Y-49082125D01*
X194481580Y-49082125D02*
X194433961Y-49034506D01*
X195576819Y-48653553D02*
X194576819Y-48653553D01*
X194576819Y-48653553D02*
X195576819Y-48082125D01*
X195576819Y-48082125D02*
X194576819Y-48082125D01*
X195481580Y-47034506D02*
X195529200Y-47082125D01*
X195529200Y-47082125D02*
X195576819Y-47224982D01*
X195576819Y-47224982D02*
X195576819Y-47320220D01*
X195576819Y-47320220D02*
X195529200Y-47463077D01*
X195529200Y-47463077D02*
X195433961Y-47558315D01*
X195433961Y-47558315D02*
X195338723Y-47605934D01*
X195338723Y-47605934D02*
X195148247Y-47653553D01*
X195148247Y-47653553D02*
X195005390Y-47653553D01*
X195005390Y-47653553D02*
X194814914Y-47605934D01*
X194814914Y-47605934D02*
X194719676Y-47558315D01*
X194719676Y-47558315D02*
X194624438Y-47463077D01*
X194624438Y-47463077D02*
X194576819Y-47320220D01*
X194576819Y-47320220D02*
X194576819Y-47224982D01*
X194576819Y-47224982D02*
X194624438Y-47082125D01*
X194624438Y-47082125D02*
X194672057Y-47034506D01*
X195957771Y-46701172D02*
X195910152Y-46653553D01*
X195910152Y-46653553D02*
X195767295Y-46558315D01*
X195767295Y-46558315D02*
X195672057Y-46510696D01*
X195672057Y-46510696D02*
X195529200Y-46463077D01*
X195529200Y-46463077D02*
X195291104Y-46415458D01*
X195291104Y-46415458D02*
X195100628Y-46415458D01*
X195100628Y-46415458D02*
X194862533Y-46463077D01*
X194862533Y-46463077D02*
X194719676Y-46510696D01*
X194719676Y-46510696D02*
X194624438Y-46558315D01*
X194624438Y-46558315D02*
X194481580Y-46653553D01*
X194481580Y-46653553D02*
X194433961Y-46701172D01*
X152456143Y-95557819D02*
X153075190Y-95557819D01*
X153075190Y-95557819D02*
X152741857Y-95938771D01*
X152741857Y-95938771D02*
X152884714Y-95938771D01*
X152884714Y-95938771D02*
X152979952Y-95986390D01*
X152979952Y-95986390D02*
X153027571Y-96034009D01*
X153027571Y-96034009D02*
X153075190Y-96129247D01*
X153075190Y-96129247D02*
X153075190Y-96367342D01*
X153075190Y-96367342D02*
X153027571Y-96462580D01*
X153027571Y-96462580D02*
X152979952Y-96510200D01*
X152979952Y-96510200D02*
X152884714Y-96557819D01*
X152884714Y-96557819D02*
X152599000Y-96557819D01*
X152599000Y-96557819D02*
X152503762Y-96510200D01*
X152503762Y-96510200D02*
X152456143Y-96462580D01*
X153456143Y-95653057D02*
X153503762Y-95605438D01*
X153503762Y-95605438D02*
X153599000Y-95557819D01*
X153599000Y-95557819D02*
X153837095Y-95557819D01*
X153837095Y-95557819D02*
X153932333Y-95605438D01*
X153932333Y-95605438D02*
X153979952Y-95653057D01*
X153979952Y-95653057D02*
X154027571Y-95748295D01*
X154027571Y-95748295D02*
X154027571Y-95843533D01*
X154027571Y-95843533D02*
X153979952Y-95986390D01*
X153979952Y-95986390D02*
X153408524Y-96557819D01*
X153408524Y-96557819D02*
X154027571Y-96557819D01*
X154456143Y-96557819D02*
X154456143Y-95557819D01*
X154551381Y-96176866D02*
X154837095Y-96557819D01*
X154837095Y-95891152D02*
X154456143Y-96272104D01*
X155599000Y-96034009D02*
X155741857Y-96081628D01*
X155741857Y-96081628D02*
X155789476Y-96129247D01*
X155789476Y-96129247D02*
X155837095Y-96224485D01*
X155837095Y-96224485D02*
X155837095Y-96367342D01*
X155837095Y-96367342D02*
X155789476Y-96462580D01*
X155789476Y-96462580D02*
X155741857Y-96510200D01*
X155741857Y-96510200D02*
X155646619Y-96557819D01*
X155646619Y-96557819D02*
X155265667Y-96557819D01*
X155265667Y-96557819D02*
X155265667Y-95557819D01*
X155265667Y-95557819D02*
X155599000Y-95557819D01*
X155599000Y-95557819D02*
X155694238Y-95605438D01*
X155694238Y-95605438D02*
X155741857Y-95653057D01*
X155741857Y-95653057D02*
X155789476Y-95748295D01*
X155789476Y-95748295D02*
X155789476Y-95843533D01*
X155789476Y-95843533D02*
X155741857Y-95938771D01*
X155741857Y-95938771D02*
X155694238Y-95986390D01*
X155694238Y-95986390D02*
X155599000Y-96034009D01*
X155599000Y-96034009D02*
X155265667Y-96034009D01*
X157027572Y-96034009D02*
X157360905Y-96034009D01*
X157503762Y-96557819D02*
X157027572Y-96557819D01*
X157027572Y-96557819D02*
X157027572Y-95557819D01*
X157027572Y-95557819D02*
X157503762Y-95557819D01*
X157932334Y-96557819D02*
X157932334Y-95557819D01*
X157932334Y-95557819D02*
X158313286Y-95557819D01*
X158313286Y-95557819D02*
X158408524Y-95605438D01*
X158408524Y-95605438D02*
X158456143Y-95653057D01*
X158456143Y-95653057D02*
X158503762Y-95748295D01*
X158503762Y-95748295D02*
X158503762Y-95891152D01*
X158503762Y-95891152D02*
X158456143Y-95986390D01*
X158456143Y-95986390D02*
X158408524Y-96034009D01*
X158408524Y-96034009D02*
X158313286Y-96081628D01*
X158313286Y-96081628D02*
X157932334Y-96081628D01*
X159503762Y-96557819D02*
X159170429Y-96081628D01*
X158932334Y-96557819D02*
X158932334Y-95557819D01*
X158932334Y-95557819D02*
X159313286Y-95557819D01*
X159313286Y-95557819D02*
X159408524Y-95605438D01*
X159408524Y-95605438D02*
X159456143Y-95653057D01*
X159456143Y-95653057D02*
X159503762Y-95748295D01*
X159503762Y-95748295D02*
X159503762Y-95891152D01*
X159503762Y-95891152D02*
X159456143Y-95986390D01*
X159456143Y-95986390D02*
X159408524Y-96034009D01*
X159408524Y-96034009D02*
X159313286Y-96081628D01*
X159313286Y-96081628D02*
X158932334Y-96081628D01*
X160122810Y-95557819D02*
X160313286Y-95557819D01*
X160313286Y-95557819D02*
X160408524Y-95605438D01*
X160408524Y-95605438D02*
X160503762Y-95700676D01*
X160503762Y-95700676D02*
X160551381Y-95891152D01*
X160551381Y-95891152D02*
X160551381Y-96224485D01*
X160551381Y-96224485D02*
X160503762Y-96414961D01*
X160503762Y-96414961D02*
X160408524Y-96510200D01*
X160408524Y-96510200D02*
X160313286Y-96557819D01*
X160313286Y-96557819D02*
X160122810Y-96557819D01*
X160122810Y-96557819D02*
X160027572Y-96510200D01*
X160027572Y-96510200D02*
X159932334Y-96414961D01*
X159932334Y-96414961D02*
X159884715Y-96224485D01*
X159884715Y-96224485D02*
X159884715Y-95891152D01*
X159884715Y-95891152D02*
X159932334Y-95700676D01*
X159932334Y-95700676D02*
X160027572Y-95605438D01*
X160027572Y-95605438D02*
X160122810Y-95557819D01*
X160979953Y-96557819D02*
X160979953Y-95557819D01*
X160979953Y-95557819D02*
X161313286Y-96272104D01*
X161313286Y-96272104D02*
X161646619Y-95557819D01*
X161646619Y-95557819D02*
X161646619Y-96557819D01*
X154408524Y-97263057D02*
X154456143Y-97215438D01*
X154456143Y-97215438D02*
X154551381Y-97167819D01*
X154551381Y-97167819D02*
X154789476Y-97167819D01*
X154789476Y-97167819D02*
X154884714Y-97215438D01*
X154884714Y-97215438D02*
X154932333Y-97263057D01*
X154932333Y-97263057D02*
X154979952Y-97358295D01*
X154979952Y-97358295D02*
X154979952Y-97453533D01*
X154979952Y-97453533D02*
X154932333Y-97596390D01*
X154932333Y-97596390D02*
X154360905Y-98167819D01*
X154360905Y-98167819D02*
X154979952Y-98167819D01*
X155313286Y-97167819D02*
X155979952Y-97167819D01*
X155979952Y-97167819D02*
X155551381Y-98167819D01*
X156932333Y-98072580D02*
X156884714Y-98120200D01*
X156884714Y-98120200D02*
X156741857Y-98167819D01*
X156741857Y-98167819D02*
X156646619Y-98167819D01*
X156646619Y-98167819D02*
X156503762Y-98120200D01*
X156503762Y-98120200D02*
X156408524Y-98024961D01*
X156408524Y-98024961D02*
X156360905Y-97929723D01*
X156360905Y-97929723D02*
X156313286Y-97739247D01*
X156313286Y-97739247D02*
X156313286Y-97596390D01*
X156313286Y-97596390D02*
X156360905Y-97405914D01*
X156360905Y-97405914D02*
X156408524Y-97310676D01*
X156408524Y-97310676D02*
X156503762Y-97215438D01*
X156503762Y-97215438D02*
X156646619Y-97167819D01*
X156646619Y-97167819D02*
X156741857Y-97167819D01*
X156741857Y-97167819D02*
X156884714Y-97215438D01*
X156884714Y-97215438D02*
X156932333Y-97263057D01*
X157313286Y-97263057D02*
X157360905Y-97215438D01*
X157360905Y-97215438D02*
X157456143Y-97167819D01*
X157456143Y-97167819D02*
X157694238Y-97167819D01*
X157694238Y-97167819D02*
X157789476Y-97215438D01*
X157789476Y-97215438D02*
X157837095Y-97263057D01*
X157837095Y-97263057D02*
X157884714Y-97358295D01*
X157884714Y-97358295D02*
X157884714Y-97453533D01*
X157884714Y-97453533D02*
X157837095Y-97596390D01*
X157837095Y-97596390D02*
X157265667Y-98167819D01*
X157265667Y-98167819D02*
X157884714Y-98167819D01*
X158789476Y-97167819D02*
X158313286Y-97167819D01*
X158313286Y-97167819D02*
X158265667Y-97644009D01*
X158265667Y-97644009D02*
X158313286Y-97596390D01*
X158313286Y-97596390D02*
X158408524Y-97548771D01*
X158408524Y-97548771D02*
X158646619Y-97548771D01*
X158646619Y-97548771D02*
X158741857Y-97596390D01*
X158741857Y-97596390D02*
X158789476Y-97644009D01*
X158789476Y-97644009D02*
X158837095Y-97739247D01*
X158837095Y-97739247D02*
X158837095Y-97977342D01*
X158837095Y-97977342D02*
X158789476Y-98072580D01*
X158789476Y-98072580D02*
X158741857Y-98120200D01*
X158741857Y-98120200D02*
X158646619Y-98167819D01*
X158646619Y-98167819D02*
X158408524Y-98167819D01*
X158408524Y-98167819D02*
X158313286Y-98120200D01*
X158313286Y-98120200D02*
X158265667Y-98072580D01*
X159694238Y-97167819D02*
X159503762Y-97167819D01*
X159503762Y-97167819D02*
X159408524Y-97215438D01*
X159408524Y-97215438D02*
X159360905Y-97263057D01*
X159360905Y-97263057D02*
X159265667Y-97405914D01*
X159265667Y-97405914D02*
X159218048Y-97596390D01*
X159218048Y-97596390D02*
X159218048Y-97977342D01*
X159218048Y-97977342D02*
X159265667Y-98072580D01*
X159265667Y-98072580D02*
X159313286Y-98120200D01*
X159313286Y-98120200D02*
X159408524Y-98167819D01*
X159408524Y-98167819D02*
X159599000Y-98167819D01*
X159599000Y-98167819D02*
X159694238Y-98120200D01*
X159694238Y-98120200D02*
X159741857Y-98072580D01*
X159741857Y-98072580D02*
X159789476Y-97977342D01*
X159789476Y-97977342D02*
X159789476Y-97739247D01*
X159789476Y-97739247D02*
X159741857Y-97644009D01*
X159741857Y-97644009D02*
X159694238Y-97596390D01*
X159694238Y-97596390D02*
X159599000Y-97548771D01*
X159599000Y-97548771D02*
X159408524Y-97548771D01*
X159408524Y-97548771D02*
X159313286Y-97596390D01*
X159313286Y-97596390D02*
X159265667Y-97644009D01*
X159265667Y-97644009D02*
X159218048Y-97739247D01*
X183396286Y-62369819D02*
X184062952Y-62369819D01*
X184062952Y-62369819D02*
X183634381Y-63369819D01*
X184872476Y-62703152D02*
X184872476Y-63369819D01*
X184634381Y-62322200D02*
X184396286Y-63036485D01*
X184396286Y-63036485D02*
X185015333Y-63036485D01*
X185396286Y-63369819D02*
X185396286Y-62369819D01*
X185396286Y-62846009D02*
X185967714Y-62846009D01*
X185967714Y-63369819D02*
X185967714Y-62369819D01*
X187015333Y-63274580D02*
X186967714Y-63322200D01*
X186967714Y-63322200D02*
X186824857Y-63369819D01*
X186824857Y-63369819D02*
X186729619Y-63369819D01*
X186729619Y-63369819D02*
X186586762Y-63322200D01*
X186586762Y-63322200D02*
X186491524Y-63226961D01*
X186491524Y-63226961D02*
X186443905Y-63131723D01*
X186443905Y-63131723D02*
X186396286Y-62941247D01*
X186396286Y-62941247D02*
X186396286Y-62798390D01*
X186396286Y-62798390D02*
X186443905Y-62607914D01*
X186443905Y-62607914D02*
X186491524Y-62512676D01*
X186491524Y-62512676D02*
X186586762Y-62417438D01*
X186586762Y-62417438D02*
X186729619Y-62369819D01*
X186729619Y-62369819D02*
X186824857Y-62369819D01*
X186824857Y-62369819D02*
X186967714Y-62417438D01*
X186967714Y-62417438D02*
X187015333Y-62465057D01*
X187348667Y-62369819D02*
X188015333Y-62369819D01*
X188015333Y-62369819D02*
X187586762Y-63369819D01*
X188824857Y-62703152D02*
X188824857Y-63369819D01*
X188586762Y-62322200D02*
X188348667Y-63036485D01*
X188348667Y-63036485D02*
X188967714Y-63036485D01*
X141284438Y-48415411D02*
X141236819Y-48510649D01*
X141236819Y-48510649D02*
X141236819Y-48653506D01*
X141236819Y-48653506D02*
X141284438Y-48796363D01*
X141284438Y-48796363D02*
X141379676Y-48891601D01*
X141379676Y-48891601D02*
X141474914Y-48939220D01*
X141474914Y-48939220D02*
X141665390Y-48986839D01*
X141665390Y-48986839D02*
X141808247Y-48986839D01*
X141808247Y-48986839D02*
X141998723Y-48939220D01*
X141998723Y-48939220D02*
X142093961Y-48891601D01*
X142093961Y-48891601D02*
X142189200Y-48796363D01*
X142189200Y-48796363D02*
X142236819Y-48653506D01*
X142236819Y-48653506D02*
X142236819Y-48558268D01*
X142236819Y-48558268D02*
X142189200Y-48415411D01*
X142189200Y-48415411D02*
X142141580Y-48367792D01*
X142141580Y-48367792D02*
X141808247Y-48367792D01*
X141808247Y-48367792D02*
X141808247Y-48558268D01*
X142236819Y-47939220D02*
X141236819Y-47939220D01*
X141236819Y-47939220D02*
X142236819Y-47367792D01*
X142236819Y-47367792D02*
X141236819Y-47367792D01*
X142236819Y-46891601D02*
X141236819Y-46891601D01*
X141236819Y-46891601D02*
X141236819Y-46653506D01*
X141236819Y-46653506D02*
X141284438Y-46510649D01*
X141284438Y-46510649D02*
X141379676Y-46415411D01*
X141379676Y-46415411D02*
X141474914Y-46367792D01*
X141474914Y-46367792D02*
X141665390Y-46320173D01*
X141665390Y-46320173D02*
X141808247Y-46320173D01*
X141808247Y-46320173D02*
X141998723Y-46367792D01*
X141998723Y-46367792D02*
X142093961Y-46415411D01*
X142093961Y-46415411D02*
X142189200Y-46510649D01*
X142189200Y-46510649D02*
X142236819Y-46653506D01*
X142236819Y-46653506D02*
X142236819Y-46891601D01*
X134569200Y-48986839D02*
X134616819Y-48843982D01*
X134616819Y-48843982D02*
X134616819Y-48605887D01*
X134616819Y-48605887D02*
X134569200Y-48510649D01*
X134569200Y-48510649D02*
X134521580Y-48463030D01*
X134521580Y-48463030D02*
X134426342Y-48415411D01*
X134426342Y-48415411D02*
X134331104Y-48415411D01*
X134331104Y-48415411D02*
X134235866Y-48463030D01*
X134235866Y-48463030D02*
X134188247Y-48510649D01*
X134188247Y-48510649D02*
X134140628Y-48605887D01*
X134140628Y-48605887D02*
X134093009Y-48796363D01*
X134093009Y-48796363D02*
X134045390Y-48891601D01*
X134045390Y-48891601D02*
X133997771Y-48939220D01*
X133997771Y-48939220D02*
X133902533Y-48986839D01*
X133902533Y-48986839D02*
X133807295Y-48986839D01*
X133807295Y-48986839D02*
X133712057Y-48939220D01*
X133712057Y-48939220D02*
X133664438Y-48891601D01*
X133664438Y-48891601D02*
X133616819Y-48796363D01*
X133616819Y-48796363D02*
X133616819Y-48558268D01*
X133616819Y-48558268D02*
X133664438Y-48415411D01*
X134521580Y-47415411D02*
X134569200Y-47463030D01*
X134569200Y-47463030D02*
X134616819Y-47605887D01*
X134616819Y-47605887D02*
X134616819Y-47701125D01*
X134616819Y-47701125D02*
X134569200Y-47843982D01*
X134569200Y-47843982D02*
X134473961Y-47939220D01*
X134473961Y-47939220D02*
X134378723Y-47986839D01*
X134378723Y-47986839D02*
X134188247Y-48034458D01*
X134188247Y-48034458D02*
X134045390Y-48034458D01*
X134045390Y-48034458D02*
X133854914Y-47986839D01*
X133854914Y-47986839D02*
X133759676Y-47939220D01*
X133759676Y-47939220D02*
X133664438Y-47843982D01*
X133664438Y-47843982D02*
X133616819Y-47701125D01*
X133616819Y-47701125D02*
X133616819Y-47605887D01*
X133616819Y-47605887D02*
X133664438Y-47463030D01*
X133664438Y-47463030D02*
X133712057Y-47415411D01*
X134616819Y-46510649D02*
X134616819Y-46986839D01*
X134616819Y-46986839D02*
X133616819Y-46986839D01*
X202815866Y-48939220D02*
X202815866Y-48177316D01*
X203196819Y-48558268D02*
X202434914Y-48558268D01*
X202196819Y-47224935D02*
X202196819Y-47701125D01*
X202196819Y-47701125D02*
X202673009Y-47748744D01*
X202673009Y-47748744D02*
X202625390Y-47701125D01*
X202625390Y-47701125D02*
X202577771Y-47605887D01*
X202577771Y-47605887D02*
X202577771Y-47367792D01*
X202577771Y-47367792D02*
X202625390Y-47272554D01*
X202625390Y-47272554D02*
X202673009Y-47224935D01*
X202673009Y-47224935D02*
X202768247Y-47177316D01*
X202768247Y-47177316D02*
X203006342Y-47177316D01*
X203006342Y-47177316D02*
X203101580Y-47224935D01*
X203101580Y-47224935D02*
X203149200Y-47272554D01*
X203149200Y-47272554D02*
X203196819Y-47367792D01*
X203196819Y-47367792D02*
X203196819Y-47605887D01*
X203196819Y-47605887D02*
X203149200Y-47701125D01*
X203149200Y-47701125D02*
X203101580Y-47748744D01*
X202196819Y-46891601D02*
X203196819Y-46558268D01*
X203196819Y-46558268D02*
X202196819Y-46224935D01*
X182793095Y-89039819D02*
X183459761Y-89039819D01*
X183459761Y-89039819D02*
X183031190Y-90039819D01*
X184269285Y-89373152D02*
X184269285Y-90039819D01*
X184031190Y-88992200D02*
X183793095Y-89706485D01*
X183793095Y-89706485D02*
X184412142Y-89706485D01*
X184793095Y-90039819D02*
X184793095Y-89039819D01*
X184793095Y-89516009D02*
X185364523Y-89516009D01*
X185364523Y-90039819D02*
X185364523Y-89039819D01*
X186412142Y-89944580D02*
X186364523Y-89992200D01*
X186364523Y-89992200D02*
X186221666Y-90039819D01*
X186221666Y-90039819D02*
X186126428Y-90039819D01*
X186126428Y-90039819D02*
X185983571Y-89992200D01*
X185983571Y-89992200D02*
X185888333Y-89896961D01*
X185888333Y-89896961D02*
X185840714Y-89801723D01*
X185840714Y-89801723D02*
X185793095Y-89611247D01*
X185793095Y-89611247D02*
X185793095Y-89468390D01*
X185793095Y-89468390D02*
X185840714Y-89277914D01*
X185840714Y-89277914D02*
X185888333Y-89182676D01*
X185888333Y-89182676D02*
X185983571Y-89087438D01*
X185983571Y-89087438D02*
X186126428Y-89039819D01*
X186126428Y-89039819D02*
X186221666Y-89039819D01*
X186221666Y-89039819D02*
X186364523Y-89087438D01*
X186364523Y-89087438D02*
X186412142Y-89135057D01*
X187316904Y-89039819D02*
X186840714Y-89039819D01*
X186840714Y-89039819D02*
X186793095Y-89516009D01*
X186793095Y-89516009D02*
X186840714Y-89468390D01*
X186840714Y-89468390D02*
X186935952Y-89420771D01*
X186935952Y-89420771D02*
X187174047Y-89420771D01*
X187174047Y-89420771D02*
X187269285Y-89468390D01*
X187269285Y-89468390D02*
X187316904Y-89516009D01*
X187316904Y-89516009D02*
X187364523Y-89611247D01*
X187364523Y-89611247D02*
X187364523Y-89849342D01*
X187364523Y-89849342D02*
X187316904Y-89944580D01*
X187316904Y-89944580D02*
X187269285Y-89992200D01*
X187269285Y-89992200D02*
X187174047Y-90039819D01*
X187174047Y-90039819D02*
X186935952Y-90039819D01*
X186935952Y-90039819D02*
X186840714Y-89992200D01*
X186840714Y-89992200D02*
X186793095Y-89944580D01*
X187697857Y-89039819D02*
X188364523Y-89039819D01*
X188364523Y-89039819D02*
X187935952Y-90039819D01*
X189174047Y-89373152D02*
X189174047Y-90039819D01*
X188935952Y-88992200D02*
X188697857Y-89706485D01*
X188697857Y-89706485D02*
X189316904Y-89706485D01*
X206256286Y-89166819D02*
X206922952Y-89166819D01*
X206922952Y-89166819D02*
X206494381Y-90166819D01*
X207732476Y-89500152D02*
X207732476Y-90166819D01*
X207494381Y-89119200D02*
X207256286Y-89833485D01*
X207256286Y-89833485D02*
X207875333Y-89833485D01*
X208256286Y-90166819D02*
X208256286Y-89166819D01*
X208256286Y-89643009D02*
X208827714Y-89643009D01*
X208827714Y-90166819D02*
X208827714Y-89166819D01*
X209875333Y-90071580D02*
X209827714Y-90119200D01*
X209827714Y-90119200D02*
X209684857Y-90166819D01*
X209684857Y-90166819D02*
X209589619Y-90166819D01*
X209589619Y-90166819D02*
X209446762Y-90119200D01*
X209446762Y-90119200D02*
X209351524Y-90023961D01*
X209351524Y-90023961D02*
X209303905Y-89928723D01*
X209303905Y-89928723D02*
X209256286Y-89738247D01*
X209256286Y-89738247D02*
X209256286Y-89595390D01*
X209256286Y-89595390D02*
X209303905Y-89404914D01*
X209303905Y-89404914D02*
X209351524Y-89309676D01*
X209351524Y-89309676D02*
X209446762Y-89214438D01*
X209446762Y-89214438D02*
X209589619Y-89166819D01*
X209589619Y-89166819D02*
X209684857Y-89166819D01*
X209684857Y-89166819D02*
X209827714Y-89214438D01*
X209827714Y-89214438D02*
X209875333Y-89262057D01*
X210208667Y-89166819D02*
X210875333Y-89166819D01*
X210875333Y-89166819D02*
X210446762Y-90166819D01*
X211684857Y-89500152D02*
X211684857Y-90166819D01*
X211446762Y-89119200D02*
X211208667Y-89833485D01*
X211208667Y-89833485D02*
X211827714Y-89833485D01*
X139315866Y-48939220D02*
X139315866Y-48177316D01*
X139696819Y-48558268D02*
X138934914Y-48558268D01*
X138696819Y-47224935D02*
X138696819Y-47701125D01*
X138696819Y-47701125D02*
X139173009Y-47748744D01*
X139173009Y-47748744D02*
X139125390Y-47701125D01*
X139125390Y-47701125D02*
X139077771Y-47605887D01*
X139077771Y-47605887D02*
X139077771Y-47367792D01*
X139077771Y-47367792D02*
X139125390Y-47272554D01*
X139125390Y-47272554D02*
X139173009Y-47224935D01*
X139173009Y-47224935D02*
X139268247Y-47177316D01*
X139268247Y-47177316D02*
X139506342Y-47177316D01*
X139506342Y-47177316D02*
X139601580Y-47224935D01*
X139601580Y-47224935D02*
X139649200Y-47272554D01*
X139649200Y-47272554D02*
X139696819Y-47367792D01*
X139696819Y-47367792D02*
X139696819Y-47605887D01*
X139696819Y-47605887D02*
X139649200Y-47701125D01*
X139649200Y-47701125D02*
X139601580Y-47748744D01*
X138696819Y-46891601D02*
X139696819Y-46558268D01*
X139696819Y-46558268D02*
X138696819Y-46224935D01*
X205526095Y-62369819D02*
X206192761Y-62369819D01*
X206192761Y-62369819D02*
X205764190Y-63369819D01*
X207002285Y-62703152D02*
X207002285Y-63369819D01*
X206764190Y-62322200D02*
X206526095Y-63036485D01*
X206526095Y-63036485D02*
X207145142Y-63036485D01*
X207526095Y-63369819D02*
X207526095Y-62369819D01*
X207526095Y-62846009D02*
X208097523Y-62846009D01*
X208097523Y-63369819D02*
X208097523Y-62369819D01*
X209145142Y-63274580D02*
X209097523Y-63322200D01*
X209097523Y-63322200D02*
X208954666Y-63369819D01*
X208954666Y-63369819D02*
X208859428Y-63369819D01*
X208859428Y-63369819D02*
X208716571Y-63322200D01*
X208716571Y-63322200D02*
X208621333Y-63226961D01*
X208621333Y-63226961D02*
X208573714Y-63131723D01*
X208573714Y-63131723D02*
X208526095Y-62941247D01*
X208526095Y-62941247D02*
X208526095Y-62798390D01*
X208526095Y-62798390D02*
X208573714Y-62607914D01*
X208573714Y-62607914D02*
X208621333Y-62512676D01*
X208621333Y-62512676D02*
X208716571Y-62417438D01*
X208716571Y-62417438D02*
X208859428Y-62369819D01*
X208859428Y-62369819D02*
X208954666Y-62369819D01*
X208954666Y-62369819D02*
X209097523Y-62417438D01*
X209097523Y-62417438D02*
X209145142Y-62465057D01*
X210097523Y-63369819D02*
X209526095Y-63369819D01*
X209811809Y-63369819D02*
X209811809Y-62369819D01*
X209811809Y-62369819D02*
X209716571Y-62512676D01*
X209716571Y-62512676D02*
X209621333Y-62607914D01*
X209621333Y-62607914D02*
X209526095Y-62655533D01*
X210430857Y-62369819D02*
X211049904Y-62369819D01*
X211049904Y-62369819D02*
X210716571Y-62750771D01*
X210716571Y-62750771D02*
X210859428Y-62750771D01*
X210859428Y-62750771D02*
X210954666Y-62798390D01*
X210954666Y-62798390D02*
X211002285Y-62846009D01*
X211002285Y-62846009D02*
X211049904Y-62941247D01*
X211049904Y-62941247D02*
X211049904Y-63179342D01*
X211049904Y-63179342D02*
X211002285Y-63274580D01*
X211002285Y-63274580D02*
X210954666Y-63322200D01*
X210954666Y-63322200D02*
X210859428Y-63369819D01*
X210859428Y-63369819D02*
X210573714Y-63369819D01*
X210573714Y-63369819D02*
X210478476Y-63322200D01*
X210478476Y-63322200D02*
X210430857Y-63274580D01*
X211621333Y-62798390D02*
X211526095Y-62750771D01*
X211526095Y-62750771D02*
X211478476Y-62703152D01*
X211478476Y-62703152D02*
X211430857Y-62607914D01*
X211430857Y-62607914D02*
X211430857Y-62560295D01*
X211430857Y-62560295D02*
X211478476Y-62465057D01*
X211478476Y-62465057D02*
X211526095Y-62417438D01*
X211526095Y-62417438D02*
X211621333Y-62369819D01*
X211621333Y-62369819D02*
X211811809Y-62369819D01*
X211811809Y-62369819D02*
X211907047Y-62417438D01*
X211907047Y-62417438D02*
X211954666Y-62465057D01*
X211954666Y-62465057D02*
X212002285Y-62560295D01*
X212002285Y-62560295D02*
X212002285Y-62607914D01*
X212002285Y-62607914D02*
X211954666Y-62703152D01*
X211954666Y-62703152D02*
X211907047Y-62750771D01*
X211907047Y-62750771D02*
X211811809Y-62798390D01*
X211811809Y-62798390D02*
X211621333Y-62798390D01*
X211621333Y-62798390D02*
X211526095Y-62846009D01*
X211526095Y-62846009D02*
X211478476Y-62893628D01*
X211478476Y-62893628D02*
X211430857Y-62988866D01*
X211430857Y-62988866D02*
X211430857Y-63179342D01*
X211430857Y-63179342D02*
X211478476Y-63274580D01*
X211478476Y-63274580D02*
X211526095Y-63322200D01*
X211526095Y-63322200D02*
X211621333Y-63369819D01*
X211621333Y-63369819D02*
X211811809Y-63369819D01*
X211811809Y-63369819D02*
X211907047Y-63322200D01*
X211907047Y-63322200D02*
X211954666Y-63274580D01*
X211954666Y-63274580D02*
X212002285Y-63179342D01*
X212002285Y-63179342D02*
X212002285Y-62988866D01*
X212002285Y-62988866D02*
X211954666Y-62893628D01*
X211954666Y-62893628D02*
X211907047Y-62846009D01*
X211907047Y-62846009D02*
X211811809Y-62798390D01*
X163479409Y-76463590D02*
X163384171Y-76415971D01*
X163384171Y-76415971D02*
X163336552Y-76368352D01*
X163336552Y-76368352D02*
X163288933Y-76273114D01*
X163288933Y-76273114D02*
X163288933Y-76225495D01*
X163288933Y-76225495D02*
X163336552Y-76130257D01*
X163336552Y-76130257D02*
X163384171Y-76082638D01*
X163384171Y-76082638D02*
X163479409Y-76035019D01*
X163479409Y-76035019D02*
X163669885Y-76035019D01*
X163669885Y-76035019D02*
X163765123Y-76082638D01*
X163765123Y-76082638D02*
X163812742Y-76130257D01*
X163812742Y-76130257D02*
X163860361Y-76225495D01*
X163860361Y-76225495D02*
X163860361Y-76273114D01*
X163860361Y-76273114D02*
X163812742Y-76368352D01*
X163812742Y-76368352D02*
X163765123Y-76415971D01*
X163765123Y-76415971D02*
X163669885Y-76463590D01*
X163669885Y-76463590D02*
X163479409Y-76463590D01*
X163479409Y-76463590D02*
X163384171Y-76511209D01*
X163384171Y-76511209D02*
X163336552Y-76558828D01*
X163336552Y-76558828D02*
X163288933Y-76654066D01*
X163288933Y-76654066D02*
X163288933Y-76844542D01*
X163288933Y-76844542D02*
X163336552Y-76939780D01*
X163336552Y-76939780D02*
X163384171Y-76987400D01*
X163384171Y-76987400D02*
X163479409Y-77035019D01*
X163479409Y-77035019D02*
X163669885Y-77035019D01*
X163669885Y-77035019D02*
X163765123Y-76987400D01*
X163765123Y-76987400D02*
X163812742Y-76939780D01*
X163812742Y-76939780D02*
X163860361Y-76844542D01*
X163860361Y-76844542D02*
X163860361Y-76654066D01*
X163860361Y-76654066D02*
X163812742Y-76558828D01*
X163812742Y-76558828D02*
X163765123Y-76511209D01*
X163765123Y-76511209D02*
X163669885Y-76463590D01*
X165050838Y-77035019D02*
X165050838Y-76035019D01*
X165050838Y-76035019D02*
X165384171Y-76749304D01*
X165384171Y-76749304D02*
X165717504Y-76035019D01*
X165717504Y-76035019D02*
X165717504Y-77035019D01*
X166193695Y-77035019D02*
X166193695Y-76035019D01*
X166193695Y-76511209D02*
X166765123Y-76511209D01*
X166765123Y-77035019D02*
X166765123Y-76035019D01*
X167146076Y-76368352D02*
X167669885Y-76368352D01*
X167669885Y-76368352D02*
X167146076Y-77035019D01*
X167146076Y-77035019D02*
X167669885Y-77035019D01*
X139994095Y-73926819D02*
X140660761Y-73926819D01*
X140660761Y-73926819D02*
X140232190Y-74926819D01*
X141470285Y-74260152D02*
X141470285Y-74926819D01*
X141232190Y-73879200D02*
X140994095Y-74593485D01*
X140994095Y-74593485D02*
X141613142Y-74593485D01*
X141994095Y-74926819D02*
X141994095Y-73926819D01*
X141994095Y-74403009D02*
X142565523Y-74403009D01*
X142565523Y-74926819D02*
X142565523Y-73926819D01*
X143613142Y-74831580D02*
X143565523Y-74879200D01*
X143565523Y-74879200D02*
X143422666Y-74926819D01*
X143422666Y-74926819D02*
X143327428Y-74926819D01*
X143327428Y-74926819D02*
X143184571Y-74879200D01*
X143184571Y-74879200D02*
X143089333Y-74783961D01*
X143089333Y-74783961D02*
X143041714Y-74688723D01*
X143041714Y-74688723D02*
X142994095Y-74498247D01*
X142994095Y-74498247D02*
X142994095Y-74355390D01*
X142994095Y-74355390D02*
X143041714Y-74164914D01*
X143041714Y-74164914D02*
X143089333Y-74069676D01*
X143089333Y-74069676D02*
X143184571Y-73974438D01*
X143184571Y-73974438D02*
X143327428Y-73926819D01*
X143327428Y-73926819D02*
X143422666Y-73926819D01*
X143422666Y-73926819D02*
X143565523Y-73974438D01*
X143565523Y-73974438D02*
X143613142Y-74022057D01*
X144565523Y-74926819D02*
X143994095Y-74926819D01*
X144279809Y-74926819D02*
X144279809Y-73926819D01*
X144279809Y-73926819D02*
X144184571Y-74069676D01*
X144184571Y-74069676D02*
X144089333Y-74164914D01*
X144089333Y-74164914D02*
X143994095Y-74212533D01*
X145422666Y-73926819D02*
X145232190Y-73926819D01*
X145232190Y-73926819D02*
X145136952Y-73974438D01*
X145136952Y-73974438D02*
X145089333Y-74022057D01*
X145089333Y-74022057D02*
X144994095Y-74164914D01*
X144994095Y-74164914D02*
X144946476Y-74355390D01*
X144946476Y-74355390D02*
X144946476Y-74736342D01*
X144946476Y-74736342D02*
X144994095Y-74831580D01*
X144994095Y-74831580D02*
X145041714Y-74879200D01*
X145041714Y-74879200D02*
X145136952Y-74926819D01*
X145136952Y-74926819D02*
X145327428Y-74926819D01*
X145327428Y-74926819D02*
X145422666Y-74879200D01*
X145422666Y-74879200D02*
X145470285Y-74831580D01*
X145470285Y-74831580D02*
X145517904Y-74736342D01*
X145517904Y-74736342D02*
X145517904Y-74498247D01*
X145517904Y-74498247D02*
X145470285Y-74403009D01*
X145470285Y-74403009D02*
X145422666Y-74355390D01*
X145422666Y-74355390D02*
X145327428Y-74307771D01*
X145327428Y-74307771D02*
X145136952Y-74307771D01*
X145136952Y-74307771D02*
X145041714Y-74355390D01*
X145041714Y-74355390D02*
X144994095Y-74403009D01*
X144994095Y-74403009D02*
X144946476Y-74498247D01*
X146470285Y-74926819D02*
X145898857Y-74926819D01*
X146184571Y-74926819D02*
X146184571Y-73926819D01*
X146184571Y-73926819D02*
X146089333Y-74069676D01*
X146089333Y-74069676D02*
X145994095Y-74164914D01*
X145994095Y-74164914D02*
X145898857Y-74212533D01*
X197116819Y-49082077D02*
X197116819Y-48510649D01*
X198116819Y-48796363D02*
X197116819Y-48796363D01*
X197116819Y-48272553D02*
X198116819Y-47605887D01*
X197116819Y-47605887D02*
X198116819Y-48272553D01*
X198116819Y-47224934D02*
X197116819Y-47224934D01*
X197116819Y-47224934D02*
X197116819Y-46986839D01*
X197116819Y-46986839D02*
X197164438Y-46843982D01*
X197164438Y-46843982D02*
X197259676Y-46748744D01*
X197259676Y-46748744D02*
X197354914Y-46701125D01*
X197354914Y-46701125D02*
X197545390Y-46653506D01*
X197545390Y-46653506D02*
X197688247Y-46653506D01*
X197688247Y-46653506D02*
X197878723Y-46701125D01*
X197878723Y-46701125D02*
X197973961Y-46748744D01*
X197973961Y-46748744D02*
X198069200Y-46843982D01*
X198069200Y-46843982D02*
X198116819Y-46986839D01*
X198116819Y-46986839D02*
X198116819Y-47224934D01*
X160536286Y-62369819D02*
X161202952Y-62369819D01*
X161202952Y-62369819D02*
X160774381Y-63369819D01*
X162012476Y-62703152D02*
X162012476Y-63369819D01*
X161774381Y-62322200D02*
X161536286Y-63036485D01*
X161536286Y-63036485D02*
X162155333Y-63036485D01*
X162536286Y-63369819D02*
X162536286Y-62369819D01*
X162536286Y-62846009D02*
X163107714Y-62846009D01*
X163107714Y-63369819D02*
X163107714Y-62369819D01*
X164155333Y-63274580D02*
X164107714Y-63322200D01*
X164107714Y-63322200D02*
X163964857Y-63369819D01*
X163964857Y-63369819D02*
X163869619Y-63369819D01*
X163869619Y-63369819D02*
X163726762Y-63322200D01*
X163726762Y-63322200D02*
X163631524Y-63226961D01*
X163631524Y-63226961D02*
X163583905Y-63131723D01*
X163583905Y-63131723D02*
X163536286Y-62941247D01*
X163536286Y-62941247D02*
X163536286Y-62798390D01*
X163536286Y-62798390D02*
X163583905Y-62607914D01*
X163583905Y-62607914D02*
X163631524Y-62512676D01*
X163631524Y-62512676D02*
X163726762Y-62417438D01*
X163726762Y-62417438D02*
X163869619Y-62369819D01*
X163869619Y-62369819D02*
X163964857Y-62369819D01*
X163964857Y-62369819D02*
X164107714Y-62417438D01*
X164107714Y-62417438D02*
X164155333Y-62465057D01*
X165107714Y-63369819D02*
X164536286Y-63369819D01*
X164822000Y-63369819D02*
X164822000Y-62369819D01*
X164822000Y-62369819D02*
X164726762Y-62512676D01*
X164726762Y-62512676D02*
X164631524Y-62607914D01*
X164631524Y-62607914D02*
X164536286Y-62655533D01*
X165964857Y-62703152D02*
X165964857Y-63369819D01*
X165726762Y-62322200D02*
X165488667Y-63036485D01*
X165488667Y-63036485D02*
X166107714Y-63036485D01*
X205526095Y-73291819D02*
X206192761Y-73291819D01*
X206192761Y-73291819D02*
X205764190Y-74291819D01*
X207002285Y-73625152D02*
X207002285Y-74291819D01*
X206764190Y-73244200D02*
X206526095Y-73958485D01*
X206526095Y-73958485D02*
X207145142Y-73958485D01*
X207526095Y-74291819D02*
X207526095Y-73291819D01*
X207526095Y-73768009D02*
X208097523Y-73768009D01*
X208097523Y-74291819D02*
X208097523Y-73291819D01*
X209145142Y-74196580D02*
X209097523Y-74244200D01*
X209097523Y-74244200D02*
X208954666Y-74291819D01*
X208954666Y-74291819D02*
X208859428Y-74291819D01*
X208859428Y-74291819D02*
X208716571Y-74244200D01*
X208716571Y-74244200D02*
X208621333Y-74148961D01*
X208621333Y-74148961D02*
X208573714Y-74053723D01*
X208573714Y-74053723D02*
X208526095Y-73863247D01*
X208526095Y-73863247D02*
X208526095Y-73720390D01*
X208526095Y-73720390D02*
X208573714Y-73529914D01*
X208573714Y-73529914D02*
X208621333Y-73434676D01*
X208621333Y-73434676D02*
X208716571Y-73339438D01*
X208716571Y-73339438D02*
X208859428Y-73291819D01*
X208859428Y-73291819D02*
X208954666Y-73291819D01*
X208954666Y-73291819D02*
X209097523Y-73339438D01*
X209097523Y-73339438D02*
X209145142Y-73387057D01*
X210097523Y-74291819D02*
X209526095Y-74291819D01*
X209811809Y-74291819D02*
X209811809Y-73291819D01*
X209811809Y-73291819D02*
X209716571Y-73434676D01*
X209716571Y-73434676D02*
X209621333Y-73529914D01*
X209621333Y-73529914D02*
X209526095Y-73577533D01*
X210430857Y-73291819D02*
X211049904Y-73291819D01*
X211049904Y-73291819D02*
X210716571Y-73672771D01*
X210716571Y-73672771D02*
X210859428Y-73672771D01*
X210859428Y-73672771D02*
X210954666Y-73720390D01*
X210954666Y-73720390D02*
X211002285Y-73768009D01*
X211002285Y-73768009D02*
X211049904Y-73863247D01*
X211049904Y-73863247D02*
X211049904Y-74101342D01*
X211049904Y-74101342D02*
X211002285Y-74196580D01*
X211002285Y-74196580D02*
X210954666Y-74244200D01*
X210954666Y-74244200D02*
X210859428Y-74291819D01*
X210859428Y-74291819D02*
X210573714Y-74291819D01*
X210573714Y-74291819D02*
X210478476Y-74244200D01*
X210478476Y-74244200D02*
X210430857Y-74196580D01*
X211526095Y-74291819D02*
X211716571Y-74291819D01*
X211716571Y-74291819D02*
X211811809Y-74244200D01*
X211811809Y-74244200D02*
X211859428Y-74196580D01*
X211859428Y-74196580D02*
X211954666Y-74053723D01*
X211954666Y-74053723D02*
X212002285Y-73863247D01*
X212002285Y-73863247D02*
X212002285Y-73482295D01*
X212002285Y-73482295D02*
X211954666Y-73387057D01*
X211954666Y-73387057D02*
X211907047Y-73339438D01*
X211907047Y-73339438D02*
X211811809Y-73291819D01*
X211811809Y-73291819D02*
X211621333Y-73291819D01*
X211621333Y-73291819D02*
X211526095Y-73339438D01*
X211526095Y-73339438D02*
X211478476Y-73387057D01*
X211478476Y-73387057D02*
X211430857Y-73482295D01*
X211430857Y-73482295D02*
X211430857Y-73720390D01*
X211430857Y-73720390D02*
X211478476Y-73815628D01*
X211478476Y-73815628D02*
X211526095Y-73863247D01*
X211526095Y-73863247D02*
X211621333Y-73910866D01*
X211621333Y-73910866D02*
X211811809Y-73910866D01*
X211811809Y-73910866D02*
X211907047Y-73863247D01*
X211907047Y-73863247D02*
X211954666Y-73815628D01*
X211954666Y-73815628D02*
X212002285Y-73720390D01*
X194272019Y-107147904D02*
X194272019Y-106481238D01*
X194272019Y-106481238D02*
X195272019Y-106909809D01*
X194605352Y-105671714D02*
X195272019Y-105671714D01*
X194224400Y-105909809D02*
X194938685Y-106147904D01*
X194938685Y-106147904D02*
X194938685Y-105528857D01*
X195272019Y-105147904D02*
X194272019Y-105147904D01*
X194748209Y-105147904D02*
X194748209Y-104576476D01*
X195272019Y-104576476D02*
X194272019Y-104576476D01*
X195176780Y-103528857D02*
X195224400Y-103576476D01*
X195224400Y-103576476D02*
X195272019Y-103719333D01*
X195272019Y-103719333D02*
X195272019Y-103814571D01*
X195272019Y-103814571D02*
X195224400Y-103957428D01*
X195224400Y-103957428D02*
X195129161Y-104052666D01*
X195129161Y-104052666D02*
X195033923Y-104100285D01*
X195033923Y-104100285D02*
X194843447Y-104147904D01*
X194843447Y-104147904D02*
X194700590Y-104147904D01*
X194700590Y-104147904D02*
X194510114Y-104100285D01*
X194510114Y-104100285D02*
X194414876Y-104052666D01*
X194414876Y-104052666D02*
X194319638Y-103957428D01*
X194319638Y-103957428D02*
X194272019Y-103814571D01*
X194272019Y-103814571D02*
X194272019Y-103719333D01*
X194272019Y-103719333D02*
X194319638Y-103576476D01*
X194319638Y-103576476D02*
X194367257Y-103528857D01*
X194367257Y-103147904D02*
X194319638Y-103100285D01*
X194319638Y-103100285D02*
X194272019Y-103005047D01*
X194272019Y-103005047D02*
X194272019Y-102766952D01*
X194272019Y-102766952D02*
X194319638Y-102671714D01*
X194319638Y-102671714D02*
X194367257Y-102624095D01*
X194367257Y-102624095D02*
X194462495Y-102576476D01*
X194462495Y-102576476D02*
X194557733Y-102576476D01*
X194557733Y-102576476D02*
X194700590Y-102624095D01*
X194700590Y-102624095D02*
X195272019Y-103195523D01*
X195272019Y-103195523D02*
X195272019Y-102576476D01*
X194272019Y-102243142D02*
X194272019Y-101576476D01*
X194272019Y-101576476D02*
X195272019Y-102005047D01*
X194272019Y-101290761D02*
X194272019Y-100671714D01*
X194272019Y-100671714D02*
X194652971Y-101005047D01*
X194652971Y-101005047D02*
X194652971Y-100862190D01*
X194652971Y-100862190D02*
X194700590Y-100766952D01*
X194700590Y-100766952D02*
X194748209Y-100719333D01*
X194748209Y-100719333D02*
X194843447Y-100671714D01*
X194843447Y-100671714D02*
X195081542Y-100671714D01*
X195081542Y-100671714D02*
X195176780Y-100719333D01*
X195176780Y-100719333D02*
X195224400Y-100766952D01*
X195224400Y-100766952D02*
X195272019Y-100862190D01*
X195272019Y-100862190D02*
X195272019Y-101147904D01*
X195272019Y-101147904D02*
X195224400Y-101243142D01*
X195224400Y-101243142D02*
X195176780Y-101290761D01*
X170271903Y-45342180D02*
X170638570Y-45818371D01*
X170900475Y-45342180D02*
X170900475Y-46342180D01*
X170900475Y-46342180D02*
X170481427Y-46342180D01*
X170481427Y-46342180D02*
X170376665Y-46294561D01*
X170376665Y-46294561D02*
X170324284Y-46246942D01*
X170324284Y-46246942D02*
X170271903Y-46151704D01*
X170271903Y-46151704D02*
X170271903Y-46008847D01*
X170271903Y-46008847D02*
X170324284Y-45913609D01*
X170324284Y-45913609D02*
X170376665Y-45865990D01*
X170376665Y-45865990D02*
X170481427Y-45818371D01*
X170481427Y-45818371D02*
X170900475Y-45818371D01*
X169381427Y-45389800D02*
X169486189Y-45342180D01*
X169486189Y-45342180D02*
X169695713Y-45342180D01*
X169695713Y-45342180D02*
X169800475Y-45389800D01*
X169800475Y-45389800D02*
X169852856Y-45485038D01*
X169852856Y-45485038D02*
X169852856Y-45865990D01*
X169852856Y-45865990D02*
X169800475Y-45961228D01*
X169800475Y-45961228D02*
X169695713Y-46008847D01*
X169695713Y-46008847D02*
X169486189Y-46008847D01*
X169486189Y-46008847D02*
X169381427Y-45961228D01*
X169381427Y-45961228D02*
X169329046Y-45865990D01*
X169329046Y-45865990D02*
X169329046Y-45770752D01*
X169329046Y-45770752D02*
X169852856Y-45675514D01*
X168909999Y-45389800D02*
X168805237Y-45342180D01*
X168805237Y-45342180D02*
X168595713Y-45342180D01*
X168595713Y-45342180D02*
X168490951Y-45389800D01*
X168490951Y-45389800D02*
X168438570Y-45485038D01*
X168438570Y-45485038D02*
X168438570Y-45532657D01*
X168438570Y-45532657D02*
X168490951Y-45627895D01*
X168490951Y-45627895D02*
X168595713Y-45675514D01*
X168595713Y-45675514D02*
X168752856Y-45675514D01*
X168752856Y-45675514D02*
X168857618Y-45723133D01*
X168857618Y-45723133D02*
X168909999Y-45818371D01*
X168909999Y-45818371D02*
X168909999Y-45865990D01*
X168909999Y-45865990D02*
X168857618Y-45961228D01*
X168857618Y-45961228D02*
X168752856Y-46008847D01*
X168752856Y-46008847D02*
X168595713Y-46008847D01*
X168595713Y-46008847D02*
X168490951Y-45961228D01*
X167548094Y-45389800D02*
X167652856Y-45342180D01*
X167652856Y-45342180D02*
X167862380Y-45342180D01*
X167862380Y-45342180D02*
X167967142Y-45389800D01*
X167967142Y-45389800D02*
X168019523Y-45485038D01*
X168019523Y-45485038D02*
X168019523Y-45865990D01*
X168019523Y-45865990D02*
X167967142Y-45961228D01*
X167967142Y-45961228D02*
X167862380Y-46008847D01*
X167862380Y-46008847D02*
X167652856Y-46008847D01*
X167652856Y-46008847D02*
X167548094Y-45961228D01*
X167548094Y-45961228D02*
X167495713Y-45865990D01*
X167495713Y-45865990D02*
X167495713Y-45770752D01*
X167495713Y-45770752D02*
X168019523Y-45675514D01*
X167181428Y-46008847D02*
X166762380Y-46008847D01*
X167024285Y-46342180D02*
X167024285Y-45485038D01*
X167024285Y-45485038D02*
X166971904Y-45389800D01*
X166971904Y-45389800D02*
X166867142Y-45342180D01*
X166867142Y-45342180D02*
X166762380Y-45342180D01*
X171589819Y-107147904D02*
X171589819Y-106481238D01*
X171589819Y-106481238D02*
X172589819Y-106909809D01*
X171923152Y-105671714D02*
X172589819Y-105671714D01*
X171542200Y-105909809D02*
X172256485Y-106147904D01*
X172256485Y-106147904D02*
X172256485Y-105528857D01*
X172589819Y-105147904D02*
X171589819Y-105147904D01*
X172066009Y-105147904D02*
X172066009Y-104576476D01*
X172589819Y-104576476D02*
X171589819Y-104576476D01*
X172494580Y-103528857D02*
X172542200Y-103576476D01*
X172542200Y-103576476D02*
X172589819Y-103719333D01*
X172589819Y-103719333D02*
X172589819Y-103814571D01*
X172589819Y-103814571D02*
X172542200Y-103957428D01*
X172542200Y-103957428D02*
X172446961Y-104052666D01*
X172446961Y-104052666D02*
X172351723Y-104100285D01*
X172351723Y-104100285D02*
X172161247Y-104147904D01*
X172161247Y-104147904D02*
X172018390Y-104147904D01*
X172018390Y-104147904D02*
X171827914Y-104100285D01*
X171827914Y-104100285D02*
X171732676Y-104052666D01*
X171732676Y-104052666D02*
X171637438Y-103957428D01*
X171637438Y-103957428D02*
X171589819Y-103814571D01*
X171589819Y-103814571D02*
X171589819Y-103719333D01*
X171589819Y-103719333D02*
X171637438Y-103576476D01*
X171637438Y-103576476D02*
X171685057Y-103528857D01*
X171589819Y-102624095D02*
X171589819Y-103100285D01*
X171589819Y-103100285D02*
X172066009Y-103147904D01*
X172066009Y-103147904D02*
X172018390Y-103100285D01*
X172018390Y-103100285D02*
X171970771Y-103005047D01*
X171970771Y-103005047D02*
X171970771Y-102766952D01*
X171970771Y-102766952D02*
X172018390Y-102671714D01*
X172018390Y-102671714D02*
X172066009Y-102624095D01*
X172066009Y-102624095D02*
X172161247Y-102576476D01*
X172161247Y-102576476D02*
X172399342Y-102576476D01*
X172399342Y-102576476D02*
X172494580Y-102624095D01*
X172494580Y-102624095D02*
X172542200Y-102671714D01*
X172542200Y-102671714D02*
X172589819Y-102766952D01*
X172589819Y-102766952D02*
X172589819Y-103005047D01*
X172589819Y-103005047D02*
X172542200Y-103100285D01*
X172542200Y-103100285D02*
X172494580Y-103147904D01*
X171589819Y-102243142D02*
X171589819Y-101576476D01*
X171589819Y-101576476D02*
X172589819Y-102005047D01*
X171923152Y-100766952D02*
X172589819Y-100766952D01*
X171542200Y-101005047D02*
X172256485Y-101243142D01*
X172256485Y-101243142D02*
X172256485Y-100624095D01*
X140216286Y-62446019D02*
X140882952Y-62446019D01*
X140882952Y-62446019D02*
X140454381Y-63446019D01*
X141692476Y-62779352D02*
X141692476Y-63446019D01*
X141454381Y-62398400D02*
X141216286Y-63112685D01*
X141216286Y-63112685D02*
X141835333Y-63112685D01*
X142216286Y-63446019D02*
X142216286Y-62446019D01*
X142216286Y-62922209D02*
X142787714Y-62922209D01*
X142787714Y-63446019D02*
X142787714Y-62446019D01*
X143835333Y-63350780D02*
X143787714Y-63398400D01*
X143787714Y-63398400D02*
X143644857Y-63446019D01*
X143644857Y-63446019D02*
X143549619Y-63446019D01*
X143549619Y-63446019D02*
X143406762Y-63398400D01*
X143406762Y-63398400D02*
X143311524Y-63303161D01*
X143311524Y-63303161D02*
X143263905Y-63207923D01*
X143263905Y-63207923D02*
X143216286Y-63017447D01*
X143216286Y-63017447D02*
X143216286Y-62874590D01*
X143216286Y-62874590D02*
X143263905Y-62684114D01*
X143263905Y-62684114D02*
X143311524Y-62588876D01*
X143311524Y-62588876D02*
X143406762Y-62493638D01*
X143406762Y-62493638D02*
X143549619Y-62446019D01*
X143549619Y-62446019D02*
X143644857Y-62446019D01*
X143644857Y-62446019D02*
X143787714Y-62493638D01*
X143787714Y-62493638D02*
X143835333Y-62541257D01*
X144454381Y-62446019D02*
X144549619Y-62446019D01*
X144549619Y-62446019D02*
X144644857Y-62493638D01*
X144644857Y-62493638D02*
X144692476Y-62541257D01*
X144692476Y-62541257D02*
X144740095Y-62636495D01*
X144740095Y-62636495D02*
X144787714Y-62826971D01*
X144787714Y-62826971D02*
X144787714Y-63065066D01*
X144787714Y-63065066D02*
X144740095Y-63255542D01*
X144740095Y-63255542D02*
X144692476Y-63350780D01*
X144692476Y-63350780D02*
X144644857Y-63398400D01*
X144644857Y-63398400D02*
X144549619Y-63446019D01*
X144549619Y-63446019D02*
X144454381Y-63446019D01*
X144454381Y-63446019D02*
X144359143Y-63398400D01*
X144359143Y-63398400D02*
X144311524Y-63350780D01*
X144311524Y-63350780D02*
X144263905Y-63255542D01*
X144263905Y-63255542D02*
X144216286Y-63065066D01*
X144216286Y-63065066D02*
X144216286Y-62826971D01*
X144216286Y-62826971D02*
X144263905Y-62636495D01*
X144263905Y-62636495D02*
X144311524Y-62541257D01*
X144311524Y-62541257D02*
X144359143Y-62493638D01*
X144359143Y-62493638D02*
X144454381Y-62446019D01*
X145168667Y-62541257D02*
X145216286Y-62493638D01*
X145216286Y-62493638D02*
X145311524Y-62446019D01*
X145311524Y-62446019D02*
X145549619Y-62446019D01*
X145549619Y-62446019D02*
X145644857Y-62493638D01*
X145644857Y-62493638D02*
X145692476Y-62541257D01*
X145692476Y-62541257D02*
X145740095Y-62636495D01*
X145740095Y-62636495D02*
X145740095Y-62731733D01*
X145740095Y-62731733D02*
X145692476Y-62874590D01*
X145692476Y-62874590D02*
X145121048Y-63446019D01*
X145121048Y-63446019D02*
X145740095Y-63446019D01*
X203330350Y-81753152D02*
X203330350Y-82419819D01*
X203092255Y-81372200D02*
X202854160Y-82086485D01*
X202854160Y-82086485D02*
X203473207Y-82086485D01*
X203854160Y-82419819D02*
X203854160Y-81419819D01*
X203949398Y-82038866D02*
X204235112Y-82419819D01*
X204235112Y-81753152D02*
X203854160Y-82134104D01*
X204568446Y-81419819D02*
X205235112Y-81419819D01*
X205235112Y-81419819D02*
X204806541Y-82419819D01*
X183904286Y-73698219D02*
X184570952Y-73698219D01*
X184570952Y-73698219D02*
X184142381Y-74698219D01*
X185380476Y-74031552D02*
X185380476Y-74698219D01*
X185142381Y-73650600D02*
X184904286Y-74364885D01*
X184904286Y-74364885D02*
X185523333Y-74364885D01*
X185904286Y-74698219D02*
X185904286Y-73698219D01*
X185904286Y-74174409D02*
X186475714Y-74174409D01*
X186475714Y-74698219D02*
X186475714Y-73698219D01*
X187523333Y-74602980D02*
X187475714Y-74650600D01*
X187475714Y-74650600D02*
X187332857Y-74698219D01*
X187332857Y-74698219D02*
X187237619Y-74698219D01*
X187237619Y-74698219D02*
X187094762Y-74650600D01*
X187094762Y-74650600D02*
X186999524Y-74555361D01*
X186999524Y-74555361D02*
X186951905Y-74460123D01*
X186951905Y-74460123D02*
X186904286Y-74269647D01*
X186904286Y-74269647D02*
X186904286Y-74126790D01*
X186904286Y-74126790D02*
X186951905Y-73936314D01*
X186951905Y-73936314D02*
X186999524Y-73841076D01*
X186999524Y-73841076D02*
X187094762Y-73745838D01*
X187094762Y-73745838D02*
X187237619Y-73698219D01*
X187237619Y-73698219D02*
X187332857Y-73698219D01*
X187332857Y-73698219D02*
X187475714Y-73745838D01*
X187475714Y-73745838D02*
X187523333Y-73793457D01*
X188142381Y-73698219D02*
X188237619Y-73698219D01*
X188237619Y-73698219D02*
X188332857Y-73745838D01*
X188332857Y-73745838D02*
X188380476Y-73793457D01*
X188380476Y-73793457D02*
X188428095Y-73888695D01*
X188428095Y-73888695D02*
X188475714Y-74079171D01*
X188475714Y-74079171D02*
X188475714Y-74317266D01*
X188475714Y-74317266D02*
X188428095Y-74507742D01*
X188428095Y-74507742D02*
X188380476Y-74602980D01*
X188380476Y-74602980D02*
X188332857Y-74650600D01*
X188332857Y-74650600D02*
X188237619Y-74698219D01*
X188237619Y-74698219D02*
X188142381Y-74698219D01*
X188142381Y-74698219D02*
X188047143Y-74650600D01*
X188047143Y-74650600D02*
X187999524Y-74602980D01*
X187999524Y-74602980D02*
X187951905Y-74507742D01*
X187951905Y-74507742D02*
X187904286Y-74317266D01*
X187904286Y-74317266D02*
X187904286Y-74079171D01*
X187904286Y-74079171D02*
X187951905Y-73888695D01*
X187951905Y-73888695D02*
X187999524Y-73793457D01*
X187999524Y-73793457D02*
X188047143Y-73745838D01*
X188047143Y-73745838D02*
X188142381Y-73698219D01*
X189047143Y-74126790D02*
X188951905Y-74079171D01*
X188951905Y-74079171D02*
X188904286Y-74031552D01*
X188904286Y-74031552D02*
X188856667Y-73936314D01*
X188856667Y-73936314D02*
X188856667Y-73888695D01*
X188856667Y-73888695D02*
X188904286Y-73793457D01*
X188904286Y-73793457D02*
X188951905Y-73745838D01*
X188951905Y-73745838D02*
X189047143Y-73698219D01*
X189047143Y-73698219D02*
X189237619Y-73698219D01*
X189237619Y-73698219D02*
X189332857Y-73745838D01*
X189332857Y-73745838D02*
X189380476Y-73793457D01*
X189380476Y-73793457D02*
X189428095Y-73888695D01*
X189428095Y-73888695D02*
X189428095Y-73936314D01*
X189428095Y-73936314D02*
X189380476Y-74031552D01*
X189380476Y-74031552D02*
X189332857Y-74079171D01*
X189332857Y-74079171D02*
X189237619Y-74126790D01*
X189237619Y-74126790D02*
X189047143Y-74126790D01*
X189047143Y-74126790D02*
X188951905Y-74174409D01*
X188951905Y-74174409D02*
X188904286Y-74222028D01*
X188904286Y-74222028D02*
X188856667Y-74317266D01*
X188856667Y-74317266D02*
X188856667Y-74507742D01*
X188856667Y-74507742D02*
X188904286Y-74602980D01*
X188904286Y-74602980D02*
X188951905Y-74650600D01*
X188951905Y-74650600D02*
X189047143Y-74698219D01*
X189047143Y-74698219D02*
X189237619Y-74698219D01*
X189237619Y-74698219D02*
X189332857Y-74650600D01*
X189332857Y-74650600D02*
X189380476Y-74602980D01*
X189380476Y-74602980D02*
X189428095Y-74507742D01*
X189428095Y-74507742D02*
X189428095Y-74317266D01*
X189428095Y-74317266D02*
X189380476Y-74222028D01*
X189380476Y-74222028D02*
X189332857Y-74174409D01*
X189332857Y-74174409D02*
X189237619Y-74126790D01*
X134183857Y-95986390D02*
X134088619Y-95938771D01*
X134088619Y-95938771D02*
X134041000Y-95891152D01*
X134041000Y-95891152D02*
X133993381Y-95795914D01*
X133993381Y-95795914D02*
X133993381Y-95748295D01*
X133993381Y-95748295D02*
X134041000Y-95653057D01*
X134041000Y-95653057D02*
X134088619Y-95605438D01*
X134088619Y-95605438D02*
X134183857Y-95557819D01*
X134183857Y-95557819D02*
X134374333Y-95557819D01*
X134374333Y-95557819D02*
X134469571Y-95605438D01*
X134469571Y-95605438D02*
X134517190Y-95653057D01*
X134517190Y-95653057D02*
X134564809Y-95748295D01*
X134564809Y-95748295D02*
X134564809Y-95795914D01*
X134564809Y-95795914D02*
X134517190Y-95891152D01*
X134517190Y-95891152D02*
X134469571Y-95938771D01*
X134469571Y-95938771D02*
X134374333Y-95986390D01*
X134374333Y-95986390D02*
X134183857Y-95986390D01*
X134183857Y-95986390D02*
X134088619Y-96034009D01*
X134088619Y-96034009D02*
X134041000Y-96081628D01*
X134041000Y-96081628D02*
X133993381Y-96176866D01*
X133993381Y-96176866D02*
X133993381Y-96367342D01*
X133993381Y-96367342D02*
X134041000Y-96462580D01*
X134041000Y-96462580D02*
X134088619Y-96510200D01*
X134088619Y-96510200D02*
X134183857Y-96557819D01*
X134183857Y-96557819D02*
X134374333Y-96557819D01*
X134374333Y-96557819D02*
X134469571Y-96510200D01*
X134469571Y-96510200D02*
X134517190Y-96462580D01*
X134517190Y-96462580D02*
X134564809Y-96367342D01*
X134564809Y-96367342D02*
X134564809Y-96176866D01*
X134564809Y-96176866D02*
X134517190Y-96081628D01*
X134517190Y-96081628D02*
X134469571Y-96034009D01*
X134469571Y-96034009D02*
X134374333Y-95986390D01*
X134993381Y-96557819D02*
X134993381Y-95557819D01*
X135088619Y-96176866D02*
X135374333Y-96557819D01*
X135374333Y-95891152D02*
X134993381Y-96272104D01*
X136136238Y-96034009D02*
X136279095Y-96081628D01*
X136279095Y-96081628D02*
X136326714Y-96129247D01*
X136326714Y-96129247D02*
X136374333Y-96224485D01*
X136374333Y-96224485D02*
X136374333Y-96367342D01*
X136374333Y-96367342D02*
X136326714Y-96462580D01*
X136326714Y-96462580D02*
X136279095Y-96510200D01*
X136279095Y-96510200D02*
X136183857Y-96557819D01*
X136183857Y-96557819D02*
X135802905Y-96557819D01*
X135802905Y-96557819D02*
X135802905Y-95557819D01*
X135802905Y-95557819D02*
X136136238Y-95557819D01*
X136136238Y-95557819D02*
X136231476Y-95605438D01*
X136231476Y-95605438D02*
X136279095Y-95653057D01*
X136279095Y-95653057D02*
X136326714Y-95748295D01*
X136326714Y-95748295D02*
X136326714Y-95843533D01*
X136326714Y-95843533D02*
X136279095Y-95938771D01*
X136279095Y-95938771D02*
X136231476Y-95986390D01*
X136231476Y-95986390D02*
X136136238Y-96034009D01*
X136136238Y-96034009D02*
X135802905Y-96034009D01*
X137517191Y-96510200D02*
X137660048Y-96557819D01*
X137660048Y-96557819D02*
X137898143Y-96557819D01*
X137898143Y-96557819D02*
X137993381Y-96510200D01*
X137993381Y-96510200D02*
X138041000Y-96462580D01*
X138041000Y-96462580D02*
X138088619Y-96367342D01*
X138088619Y-96367342D02*
X138088619Y-96272104D01*
X138088619Y-96272104D02*
X138041000Y-96176866D01*
X138041000Y-96176866D02*
X137993381Y-96129247D01*
X137993381Y-96129247D02*
X137898143Y-96081628D01*
X137898143Y-96081628D02*
X137707667Y-96034009D01*
X137707667Y-96034009D02*
X137612429Y-95986390D01*
X137612429Y-95986390D02*
X137564810Y-95938771D01*
X137564810Y-95938771D02*
X137517191Y-95843533D01*
X137517191Y-95843533D02*
X137517191Y-95748295D01*
X137517191Y-95748295D02*
X137564810Y-95653057D01*
X137564810Y-95653057D02*
X137612429Y-95605438D01*
X137612429Y-95605438D02*
X137707667Y-95557819D01*
X137707667Y-95557819D02*
X137945762Y-95557819D01*
X137945762Y-95557819D02*
X138088619Y-95605438D01*
X139088619Y-96557819D02*
X138755286Y-96081628D01*
X138517191Y-96557819D02*
X138517191Y-95557819D01*
X138517191Y-95557819D02*
X138898143Y-95557819D01*
X138898143Y-95557819D02*
X138993381Y-95605438D01*
X138993381Y-95605438D02*
X139041000Y-95653057D01*
X139041000Y-95653057D02*
X139088619Y-95748295D01*
X139088619Y-95748295D02*
X139088619Y-95891152D01*
X139088619Y-95891152D02*
X139041000Y-95986390D01*
X139041000Y-95986390D02*
X138993381Y-96034009D01*
X138993381Y-96034009D02*
X138898143Y-96081628D01*
X138898143Y-96081628D02*
X138517191Y-96081628D01*
X139469572Y-96272104D02*
X139945762Y-96272104D01*
X139374334Y-96557819D02*
X139707667Y-95557819D01*
X139707667Y-95557819D02*
X140041000Y-96557819D01*
X140374334Y-96557819D02*
X140374334Y-95557819D01*
X140374334Y-95557819D02*
X140707667Y-96272104D01*
X140707667Y-96272104D02*
X141041000Y-95557819D01*
X141041000Y-95557819D02*
X141041000Y-96557819D01*
X136302904Y-97167819D02*
X136112428Y-97167819D01*
X136112428Y-97167819D02*
X136017190Y-97215438D01*
X136017190Y-97215438D02*
X135969571Y-97263057D01*
X135969571Y-97263057D02*
X135874333Y-97405914D01*
X135874333Y-97405914D02*
X135826714Y-97596390D01*
X135826714Y-97596390D02*
X135826714Y-97977342D01*
X135826714Y-97977342D02*
X135874333Y-98072580D01*
X135874333Y-98072580D02*
X135921952Y-98120200D01*
X135921952Y-98120200D02*
X136017190Y-98167819D01*
X136017190Y-98167819D02*
X136207666Y-98167819D01*
X136207666Y-98167819D02*
X136302904Y-98120200D01*
X136302904Y-98120200D02*
X136350523Y-98072580D01*
X136350523Y-98072580D02*
X136398142Y-97977342D01*
X136398142Y-97977342D02*
X136398142Y-97739247D01*
X136398142Y-97739247D02*
X136350523Y-97644009D01*
X136350523Y-97644009D02*
X136302904Y-97596390D01*
X136302904Y-97596390D02*
X136207666Y-97548771D01*
X136207666Y-97548771D02*
X136017190Y-97548771D01*
X136017190Y-97548771D02*
X135921952Y-97596390D01*
X135921952Y-97596390D02*
X135874333Y-97644009D01*
X135874333Y-97644009D02*
X135826714Y-97739247D01*
X136779095Y-97263057D02*
X136826714Y-97215438D01*
X136826714Y-97215438D02*
X136921952Y-97167819D01*
X136921952Y-97167819D02*
X137160047Y-97167819D01*
X137160047Y-97167819D02*
X137255285Y-97215438D01*
X137255285Y-97215438D02*
X137302904Y-97263057D01*
X137302904Y-97263057D02*
X137350523Y-97358295D01*
X137350523Y-97358295D02*
X137350523Y-97453533D01*
X137350523Y-97453533D02*
X137302904Y-97596390D01*
X137302904Y-97596390D02*
X136731476Y-98167819D01*
X136731476Y-98167819D02*
X137350523Y-98167819D01*
X138207666Y-97167819D02*
X138017190Y-97167819D01*
X138017190Y-97167819D02*
X137921952Y-97215438D01*
X137921952Y-97215438D02*
X137874333Y-97263057D01*
X137874333Y-97263057D02*
X137779095Y-97405914D01*
X137779095Y-97405914D02*
X137731476Y-97596390D01*
X137731476Y-97596390D02*
X137731476Y-97977342D01*
X137731476Y-97977342D02*
X137779095Y-98072580D01*
X137779095Y-98072580D02*
X137826714Y-98120200D01*
X137826714Y-98120200D02*
X137921952Y-98167819D01*
X137921952Y-98167819D02*
X138112428Y-98167819D01*
X138112428Y-98167819D02*
X138207666Y-98120200D01*
X138207666Y-98120200D02*
X138255285Y-98072580D01*
X138255285Y-98072580D02*
X138302904Y-97977342D01*
X138302904Y-97977342D02*
X138302904Y-97739247D01*
X138302904Y-97739247D02*
X138255285Y-97644009D01*
X138255285Y-97644009D02*
X138207666Y-97596390D01*
X138207666Y-97596390D02*
X138112428Y-97548771D01*
X138112428Y-97548771D02*
X137921952Y-97548771D01*
X137921952Y-97548771D02*
X137826714Y-97596390D01*
X137826714Y-97596390D02*
X137779095Y-97644009D01*
X137779095Y-97644009D02*
X137731476Y-97739247D01*
X139160047Y-97501152D02*
X139160047Y-98167819D01*
X138921952Y-97120200D02*
X138683857Y-97834485D01*
X138683857Y-97834485D02*
X139302904Y-97834485D01*
X148332819Y-49939411D02*
X148332819Y-50510839D01*
X148332819Y-50225125D02*
X147332819Y-50225125D01*
X147332819Y-50225125D02*
X147475676Y-50320363D01*
X147475676Y-50320363D02*
X147570914Y-50415601D01*
X147570914Y-50415601D02*
X147618533Y-50510839D01*
X148332819Y-49510839D02*
X147332819Y-49510839D01*
X147951866Y-49415601D02*
X148332819Y-49129887D01*
X147666152Y-49129887D02*
X148047104Y-49510839D01*
D12*
X167931425Y-124783733D02*
X169150473Y-124783733D01*
X171131425Y-125317066D02*
X171131425Y-123917066D01*
X171131425Y-123917066D02*
X171664758Y-124917066D01*
X171664758Y-124917066D02*
X172198092Y-123917066D01*
X172198092Y-123917066D02*
X172198092Y-125317066D01*
X172807615Y-124383733D02*
X173188567Y-125317066D01*
X173569520Y-124383733D02*
X173188567Y-125317066D01*
X173188567Y-125317066D02*
X173036186Y-125650400D01*
X173036186Y-125650400D02*
X172959996Y-125717066D01*
X172959996Y-125717066D02*
X172807615Y-125783733D01*
X174864758Y-124383733D02*
X174864758Y-125317066D01*
X174483806Y-123850400D02*
X174102853Y-124850400D01*
X174102853Y-124850400D02*
X175093330Y-124850400D01*
X175474282Y-123917066D02*
X176388568Y-123917066D01*
X175931425Y-125317066D02*
X175931425Y-123917066D01*
X176921902Y-125317066D02*
X176921902Y-123917066D01*
X176921902Y-124583733D02*
X177836188Y-124583733D01*
X177836188Y-125317066D02*
X177836188Y-123917066D01*
X180045711Y-125317066D02*
X179893330Y-125250400D01*
X179893330Y-125250400D02*
X179817140Y-125117066D01*
X179817140Y-125117066D02*
X179817140Y-123917066D01*
X180655235Y-125317066D02*
X180655235Y-124383733D01*
X180655235Y-123917066D02*
X180579044Y-123983733D01*
X180579044Y-123983733D02*
X180655235Y-124050400D01*
X180655235Y-124050400D02*
X180731425Y-123983733D01*
X180731425Y-123983733D02*
X180655235Y-123917066D01*
X180655235Y-123917066D02*
X180655235Y-124050400D01*
X182102854Y-124383733D02*
X182102854Y-125517066D01*
X182102854Y-125517066D02*
X182026664Y-125650400D01*
X182026664Y-125650400D02*
X181950473Y-125717066D01*
X181950473Y-125717066D02*
X181798092Y-125783733D01*
X181798092Y-125783733D02*
X181569521Y-125783733D01*
X181569521Y-125783733D02*
X181417140Y-125717066D01*
X182102854Y-125250400D02*
X181950473Y-125317066D01*
X181950473Y-125317066D02*
X181645711Y-125317066D01*
X181645711Y-125317066D02*
X181493330Y-125250400D01*
X181493330Y-125250400D02*
X181417140Y-125183733D01*
X181417140Y-125183733D02*
X181340949Y-125050400D01*
X181340949Y-125050400D02*
X181340949Y-124650400D01*
X181340949Y-124650400D02*
X181417140Y-124517066D01*
X181417140Y-124517066D02*
X181493330Y-124450400D01*
X181493330Y-124450400D02*
X181645711Y-124383733D01*
X181645711Y-124383733D02*
X181950473Y-124383733D01*
X181950473Y-124383733D02*
X182102854Y-124450400D01*
X182864759Y-125317066D02*
X182864759Y-123917066D01*
X183550473Y-125317066D02*
X183550473Y-124583733D01*
X183550473Y-124583733D02*
X183474283Y-124450400D01*
X183474283Y-124450400D02*
X183321902Y-124383733D01*
X183321902Y-124383733D02*
X183093330Y-124383733D01*
X183093330Y-124383733D02*
X182940949Y-124450400D01*
X182940949Y-124450400D02*
X182864759Y-124517066D01*
X184083806Y-124383733D02*
X184693330Y-124383733D01*
X184312378Y-123917066D02*
X184312378Y-125117066D01*
X184312378Y-125117066D02*
X184388568Y-125250400D01*
X184388568Y-125250400D02*
X184540949Y-125317066D01*
X184540949Y-125317066D02*
X184693330Y-125317066D01*
X186445712Y-124783733D02*
X187664760Y-124783733D01*
X189493331Y-124383733D02*
X189798093Y-125317066D01*
X189798093Y-125317066D02*
X190102855Y-124650400D01*
X190102855Y-124650400D02*
X190407617Y-125317066D01*
X190407617Y-125317066D02*
X190712379Y-124383733D01*
X191169521Y-124383733D02*
X191474283Y-125317066D01*
X191474283Y-125317066D02*
X191779045Y-124650400D01*
X191779045Y-124650400D02*
X192083807Y-125317066D01*
X192083807Y-125317066D02*
X192388569Y-124383733D01*
X192845711Y-124383733D02*
X193150473Y-125317066D01*
X193150473Y-125317066D02*
X193455235Y-124650400D01*
X193455235Y-124650400D02*
X193759997Y-125317066D01*
X193759997Y-125317066D02*
X194064759Y-124383733D01*
X194674282Y-125183733D02*
X194750472Y-125250400D01*
X194750472Y-125250400D02*
X194674282Y-125317066D01*
X194674282Y-125317066D02*
X194598091Y-125250400D01*
X194598091Y-125250400D02*
X194674282Y-125183733D01*
X194674282Y-125183733D02*
X194674282Y-125317066D01*
X195436187Y-125317066D02*
X195436187Y-124383733D01*
X195436187Y-124517066D02*
X195512377Y-124450400D01*
X195512377Y-124450400D02*
X195664758Y-124383733D01*
X195664758Y-124383733D02*
X195893330Y-124383733D01*
X195893330Y-124383733D02*
X196045711Y-124450400D01*
X196045711Y-124450400D02*
X196121901Y-124583733D01*
X196121901Y-124583733D02*
X196121901Y-125317066D01*
X196121901Y-124583733D02*
X196198092Y-124450400D01*
X196198092Y-124450400D02*
X196350473Y-124383733D01*
X196350473Y-124383733D02*
X196579044Y-124383733D01*
X196579044Y-124383733D02*
X196731425Y-124450400D01*
X196731425Y-124450400D02*
X196807615Y-124583733D01*
X196807615Y-124583733D02*
X196807615Y-125317066D01*
X197417139Y-124383733D02*
X197798091Y-125317066D01*
X198179044Y-124383733D02*
X197798091Y-125317066D01*
X197798091Y-125317066D02*
X197645710Y-125650400D01*
X197645710Y-125650400D02*
X197569520Y-125717066D01*
X197569520Y-125717066D02*
X197417139Y-125783733D01*
X198788568Y-124383733D02*
X198788568Y-125317066D01*
X198788568Y-124517066D02*
X198864758Y-124450400D01*
X198864758Y-124450400D02*
X199017139Y-124383733D01*
X199017139Y-124383733D02*
X199245711Y-124383733D01*
X199245711Y-124383733D02*
X199398092Y-124450400D01*
X199398092Y-124450400D02*
X199474282Y-124583733D01*
X199474282Y-124583733D02*
X199474282Y-125317066D01*
X200464758Y-125317066D02*
X200312377Y-125250400D01*
X200312377Y-125250400D02*
X200236187Y-125183733D01*
X200236187Y-125183733D02*
X200159996Y-125050400D01*
X200159996Y-125050400D02*
X200159996Y-124650400D01*
X200159996Y-124650400D02*
X200236187Y-124517066D01*
X200236187Y-124517066D02*
X200312377Y-124450400D01*
X200312377Y-124450400D02*
X200464758Y-124383733D01*
X200464758Y-124383733D02*
X200693330Y-124383733D01*
X200693330Y-124383733D02*
X200845711Y-124450400D01*
X200845711Y-124450400D02*
X200921901Y-124517066D01*
X200921901Y-124517066D02*
X200998092Y-124650400D01*
X200998092Y-124650400D02*
X200998092Y-125050400D01*
X200998092Y-125050400D02*
X200921901Y-125183733D01*
X200921901Y-125183733D02*
X200845711Y-125250400D01*
X200845711Y-125250400D02*
X200693330Y-125317066D01*
X200693330Y-125317066D02*
X200464758Y-125317066D01*
X201683806Y-125317066D02*
X201683806Y-124383733D01*
X201683806Y-124650400D02*
X201759996Y-124517066D01*
X201759996Y-124517066D02*
X201836187Y-124450400D01*
X201836187Y-124450400D02*
X201988568Y-124383733D01*
X201988568Y-124383733D02*
X202140949Y-124383733D01*
X202674282Y-125183733D02*
X202750472Y-125250400D01*
X202750472Y-125250400D02*
X202674282Y-125317066D01*
X202674282Y-125317066D02*
X202598091Y-125250400D01*
X202598091Y-125250400D02*
X202674282Y-125183733D01*
X202674282Y-125183733D02*
X202674282Y-125317066D01*
X203664758Y-125317066D02*
X203512377Y-125250400D01*
X203512377Y-125250400D02*
X203436187Y-125183733D01*
X203436187Y-125183733D02*
X203359996Y-125050400D01*
X203359996Y-125050400D02*
X203359996Y-124650400D01*
X203359996Y-124650400D02*
X203436187Y-124517066D01*
X203436187Y-124517066D02*
X203512377Y-124450400D01*
X203512377Y-124450400D02*
X203664758Y-124383733D01*
X203664758Y-124383733D02*
X203893330Y-124383733D01*
X203893330Y-124383733D02*
X204045711Y-124450400D01*
X204045711Y-124450400D02*
X204121901Y-124517066D01*
X204121901Y-124517066D02*
X204198092Y-124650400D01*
X204198092Y-124650400D02*
X204198092Y-125050400D01*
X204198092Y-125050400D02*
X204121901Y-125183733D01*
X204121901Y-125183733D02*
X204045711Y-125250400D01*
X204045711Y-125250400D02*
X203893330Y-125317066D01*
X203893330Y-125317066D02*
X203664758Y-125317066D01*
X204883806Y-125317066D02*
X204883806Y-124383733D01*
X204883806Y-124650400D02*
X204959996Y-124517066D01*
X204959996Y-124517066D02*
X205036187Y-124450400D01*
X205036187Y-124450400D02*
X205188568Y-124383733D01*
X205188568Y-124383733D02*
X205340949Y-124383733D01*
X206559996Y-124383733D02*
X206559996Y-125517066D01*
X206559996Y-125517066D02*
X206483806Y-125650400D01*
X206483806Y-125650400D02*
X206407615Y-125717066D01*
X206407615Y-125717066D02*
X206255234Y-125783733D01*
X206255234Y-125783733D02*
X206026663Y-125783733D01*
X206026663Y-125783733D02*
X205874282Y-125717066D01*
X206559996Y-125250400D02*
X206407615Y-125317066D01*
X206407615Y-125317066D02*
X206102853Y-125317066D01*
X206102853Y-125317066D02*
X205950472Y-125250400D01*
X205950472Y-125250400D02*
X205874282Y-125183733D01*
X205874282Y-125183733D02*
X205798091Y-125050400D01*
X205798091Y-125050400D02*
X205798091Y-124650400D01*
X205798091Y-124650400D02*
X205874282Y-124517066D01*
X205874282Y-124517066D02*
X205950472Y-124450400D01*
X205950472Y-124450400D02*
X206102853Y-124383733D01*
X206102853Y-124383733D02*
X206407615Y-124383733D01*
X206407615Y-124383733D02*
X206559996Y-124450400D01*
X208540949Y-124783733D02*
X209759997Y-124783733D01*
D11*
X204784438Y-48415411D02*
X204736819Y-48510649D01*
X204736819Y-48510649D02*
X204736819Y-48653506D01*
X204736819Y-48653506D02*
X204784438Y-48796363D01*
X204784438Y-48796363D02*
X204879676Y-48891601D01*
X204879676Y-48891601D02*
X204974914Y-48939220D01*
X204974914Y-48939220D02*
X205165390Y-48986839D01*
X205165390Y-48986839D02*
X205308247Y-48986839D01*
X205308247Y-48986839D02*
X205498723Y-48939220D01*
X205498723Y-48939220D02*
X205593961Y-48891601D01*
X205593961Y-48891601D02*
X205689200Y-48796363D01*
X205689200Y-48796363D02*
X205736819Y-48653506D01*
X205736819Y-48653506D02*
X205736819Y-48558268D01*
X205736819Y-48558268D02*
X205689200Y-48415411D01*
X205689200Y-48415411D02*
X205641580Y-48367792D01*
X205641580Y-48367792D02*
X205308247Y-48367792D01*
X205308247Y-48367792D02*
X205308247Y-48558268D01*
X205736819Y-47939220D02*
X204736819Y-47939220D01*
X204736819Y-47939220D02*
X205736819Y-47367792D01*
X205736819Y-47367792D02*
X204736819Y-47367792D01*
X205736819Y-46891601D02*
X204736819Y-46891601D01*
X204736819Y-46891601D02*
X204736819Y-46653506D01*
X204736819Y-46653506D02*
X204784438Y-46510649D01*
X204784438Y-46510649D02*
X204879676Y-46415411D01*
X204879676Y-46415411D02*
X204974914Y-46367792D01*
X204974914Y-46367792D02*
X205165390Y-46320173D01*
X205165390Y-46320173D02*
X205308247Y-46320173D01*
X205308247Y-46320173D02*
X205498723Y-46367792D01*
X205498723Y-46367792D02*
X205593961Y-46415411D01*
X205593961Y-46415411D02*
X205689200Y-46510649D01*
X205689200Y-46510649D02*
X205736819Y-46653506D01*
X205736819Y-46653506D02*
X205736819Y-46891601D01*
X207324438Y-48415411D02*
X207276819Y-48510649D01*
X207276819Y-48510649D02*
X207276819Y-48653506D01*
X207276819Y-48653506D02*
X207324438Y-48796363D01*
X207324438Y-48796363D02*
X207419676Y-48891601D01*
X207419676Y-48891601D02*
X207514914Y-48939220D01*
X207514914Y-48939220D02*
X207705390Y-48986839D01*
X207705390Y-48986839D02*
X207848247Y-48986839D01*
X207848247Y-48986839D02*
X208038723Y-48939220D01*
X208038723Y-48939220D02*
X208133961Y-48891601D01*
X208133961Y-48891601D02*
X208229200Y-48796363D01*
X208229200Y-48796363D02*
X208276819Y-48653506D01*
X208276819Y-48653506D02*
X208276819Y-48558268D01*
X208276819Y-48558268D02*
X208229200Y-48415411D01*
X208229200Y-48415411D02*
X208181580Y-48367792D01*
X208181580Y-48367792D02*
X207848247Y-48367792D01*
X207848247Y-48367792D02*
X207848247Y-48558268D01*
X208276819Y-47939220D02*
X207276819Y-47939220D01*
X207276819Y-47939220D02*
X208276819Y-47367792D01*
X208276819Y-47367792D02*
X207276819Y-47367792D01*
X208276819Y-46891601D02*
X207276819Y-46891601D01*
X207276819Y-46891601D02*
X207276819Y-46653506D01*
X207276819Y-46653506D02*
X207324438Y-46510649D01*
X207324438Y-46510649D02*
X207419676Y-46415411D01*
X207419676Y-46415411D02*
X207514914Y-46367792D01*
X207514914Y-46367792D02*
X207705390Y-46320173D01*
X207705390Y-46320173D02*
X207848247Y-46320173D01*
X207848247Y-46320173D02*
X208038723Y-46367792D01*
X208038723Y-46367792D02*
X208133961Y-46415411D01*
X208133961Y-46415411D02*
X208229200Y-46510649D01*
X208229200Y-46510649D02*
X208276819Y-46653506D01*
X208276819Y-46653506D02*
X208276819Y-46891601D01*
X206133819Y-107147904D02*
X206133819Y-106481238D01*
X206133819Y-106481238D02*
X207133819Y-106909809D01*
X206467152Y-105671714D02*
X207133819Y-105671714D01*
X206086200Y-105909809D02*
X206800485Y-106147904D01*
X206800485Y-106147904D02*
X206800485Y-105528857D01*
X207133819Y-105147904D02*
X206133819Y-105147904D01*
X206610009Y-105147904D02*
X206610009Y-104576476D01*
X207133819Y-104576476D02*
X206133819Y-104576476D01*
X207038580Y-103528857D02*
X207086200Y-103576476D01*
X207086200Y-103576476D02*
X207133819Y-103719333D01*
X207133819Y-103719333D02*
X207133819Y-103814571D01*
X207133819Y-103814571D02*
X207086200Y-103957428D01*
X207086200Y-103957428D02*
X206990961Y-104052666D01*
X206990961Y-104052666D02*
X206895723Y-104100285D01*
X206895723Y-104100285D02*
X206705247Y-104147904D01*
X206705247Y-104147904D02*
X206562390Y-104147904D01*
X206562390Y-104147904D02*
X206371914Y-104100285D01*
X206371914Y-104100285D02*
X206276676Y-104052666D01*
X206276676Y-104052666D02*
X206181438Y-103957428D01*
X206181438Y-103957428D02*
X206133819Y-103814571D01*
X206133819Y-103814571D02*
X206133819Y-103719333D01*
X206133819Y-103719333D02*
X206181438Y-103576476D01*
X206181438Y-103576476D02*
X206229057Y-103528857D01*
X206133819Y-102624095D02*
X206133819Y-103100285D01*
X206133819Y-103100285D02*
X206610009Y-103147904D01*
X206610009Y-103147904D02*
X206562390Y-103100285D01*
X206562390Y-103100285D02*
X206514771Y-103005047D01*
X206514771Y-103005047D02*
X206514771Y-102766952D01*
X206514771Y-102766952D02*
X206562390Y-102671714D01*
X206562390Y-102671714D02*
X206610009Y-102624095D01*
X206610009Y-102624095D02*
X206705247Y-102576476D01*
X206705247Y-102576476D02*
X206943342Y-102576476D01*
X206943342Y-102576476D02*
X207038580Y-102624095D01*
X207038580Y-102624095D02*
X207086200Y-102671714D01*
X207086200Y-102671714D02*
X207133819Y-102766952D01*
X207133819Y-102766952D02*
X207133819Y-103005047D01*
X207133819Y-103005047D02*
X207086200Y-103100285D01*
X207086200Y-103100285D02*
X207038580Y-103147904D01*
X206133819Y-102243142D02*
X206133819Y-101576476D01*
X206133819Y-101576476D02*
X207133819Y-102005047D01*
X206467152Y-100766952D02*
X207133819Y-100766952D01*
X206086200Y-101005047D02*
X206800485Y-101243142D01*
X206800485Y-101243142D02*
X206800485Y-100624095D01*
X178365305Y-73673619D02*
X178365305Y-74483142D01*
X178365305Y-74483142D02*
X178412924Y-74578380D01*
X178412924Y-74578380D02*
X178460543Y-74626000D01*
X178460543Y-74626000D02*
X178555781Y-74673619D01*
X178555781Y-74673619D02*
X178746257Y-74673619D01*
X178746257Y-74673619D02*
X178841495Y-74626000D01*
X178841495Y-74626000D02*
X178889114Y-74578380D01*
X178889114Y-74578380D02*
X178936733Y-74483142D01*
X178936733Y-74483142D02*
X178936733Y-73673619D01*
X179936733Y-74673619D02*
X179365305Y-74673619D01*
X179651019Y-74673619D02*
X179651019Y-73673619D01*
X179651019Y-73673619D02*
X179555781Y-73816476D01*
X179555781Y-73816476D02*
X179460543Y-73911714D01*
X179460543Y-73911714D02*
X179365305Y-73959333D01*
X180270067Y-73673619D02*
X180889114Y-73673619D01*
X180889114Y-73673619D02*
X180555781Y-74054571D01*
X180555781Y-74054571D02*
X180698638Y-74054571D01*
X180698638Y-74054571D02*
X180793876Y-74102190D01*
X180793876Y-74102190D02*
X180841495Y-74149809D01*
X180841495Y-74149809D02*
X180889114Y-74245047D01*
X180889114Y-74245047D02*
X180889114Y-74483142D01*
X180889114Y-74483142D02*
X180841495Y-74578380D01*
X180841495Y-74578380D02*
X180793876Y-74626000D01*
X180793876Y-74626000D02*
X180698638Y-74673619D01*
X180698638Y-74673619D02*
X180412924Y-74673619D01*
X180412924Y-74673619D02*
X180317686Y-74626000D01*
X180317686Y-74626000D02*
X180270067Y-74578380D01*
X175867219Y-53455866D02*
X175391028Y-53789199D01*
X175867219Y-54027294D02*
X174867219Y-54027294D01*
X174867219Y-54027294D02*
X174867219Y-53646342D01*
X174867219Y-53646342D02*
X174914838Y-53551104D01*
X174914838Y-53551104D02*
X174962457Y-53503485D01*
X174962457Y-53503485D02*
X175057695Y-53455866D01*
X175057695Y-53455866D02*
X175200552Y-53455866D01*
X175200552Y-53455866D02*
X175295790Y-53503485D01*
X175295790Y-53503485D02*
X175343409Y-53551104D01*
X175343409Y-53551104D02*
X175391028Y-53646342D01*
X175391028Y-53646342D02*
X175391028Y-54027294D01*
X175200552Y-52598723D02*
X175867219Y-52598723D01*
X174819600Y-52836818D02*
X175533885Y-53074913D01*
X175533885Y-53074913D02*
X175533885Y-52455866D01*
X200747333Y-82369819D02*
X200414000Y-81893628D01*
X200175905Y-82369819D02*
X200175905Y-81369819D01*
X200175905Y-81369819D02*
X200556857Y-81369819D01*
X200556857Y-81369819D02*
X200652095Y-81417438D01*
X200652095Y-81417438D02*
X200699714Y-81465057D01*
X200699714Y-81465057D02*
X200747333Y-81560295D01*
X200747333Y-81560295D02*
X200747333Y-81703152D01*
X200747333Y-81703152D02*
X200699714Y-81798390D01*
X200699714Y-81798390D02*
X200652095Y-81846009D01*
X200652095Y-81846009D02*
X200556857Y-81893628D01*
X200556857Y-81893628D02*
X200175905Y-81893628D01*
X201604476Y-81369819D02*
X201414000Y-81369819D01*
X201414000Y-81369819D02*
X201318762Y-81417438D01*
X201318762Y-81417438D02*
X201271143Y-81465057D01*
X201271143Y-81465057D02*
X201175905Y-81607914D01*
X201175905Y-81607914D02*
X201128286Y-81798390D01*
X201128286Y-81798390D02*
X201128286Y-82179342D01*
X201128286Y-82179342D02*
X201175905Y-82274580D01*
X201175905Y-82274580D02*
X201223524Y-82322200D01*
X201223524Y-82322200D02*
X201318762Y-82369819D01*
X201318762Y-82369819D02*
X201509238Y-82369819D01*
X201509238Y-82369819D02*
X201604476Y-82322200D01*
X201604476Y-82322200D02*
X201652095Y-82274580D01*
X201652095Y-82274580D02*
X201699714Y-82179342D01*
X201699714Y-82179342D02*
X201699714Y-81941247D01*
X201699714Y-81941247D02*
X201652095Y-81846009D01*
X201652095Y-81846009D02*
X201604476Y-81798390D01*
X201604476Y-81798390D02*
X201509238Y-81750771D01*
X201509238Y-81750771D02*
X201318762Y-81750771D01*
X201318762Y-81750771D02*
X201223524Y-81798390D01*
X201223524Y-81798390D02*
X201175905Y-81846009D01*
X201175905Y-81846009D02*
X201128286Y-81941247D01*
X134693819Y-122721666D02*
X134217628Y-123054999D01*
X134693819Y-123293094D02*
X133693819Y-123293094D01*
X133693819Y-123293094D02*
X133693819Y-122912142D01*
X133693819Y-122912142D02*
X133741438Y-122816904D01*
X133741438Y-122816904D02*
X133789057Y-122769285D01*
X133789057Y-122769285D02*
X133884295Y-122721666D01*
X133884295Y-122721666D02*
X134027152Y-122721666D01*
X134027152Y-122721666D02*
X134122390Y-122769285D01*
X134122390Y-122769285D02*
X134170009Y-122816904D01*
X134170009Y-122816904D02*
X134217628Y-122912142D01*
X134217628Y-122912142D02*
X134217628Y-123293094D01*
X134693819Y-121769285D02*
X134693819Y-122340713D01*
X134693819Y-122054999D02*
X133693819Y-122054999D01*
X133693819Y-122054999D02*
X133836676Y-122150237D01*
X133836676Y-122150237D02*
X133931914Y-122245475D01*
X133931914Y-122245475D02*
X133979533Y-122340713D01*
X199294905Y-73292619D02*
X199294905Y-74102142D01*
X199294905Y-74102142D02*
X199342524Y-74197380D01*
X199342524Y-74197380D02*
X199390143Y-74245000D01*
X199390143Y-74245000D02*
X199485381Y-74292619D01*
X199485381Y-74292619D02*
X199675857Y-74292619D01*
X199675857Y-74292619D02*
X199771095Y-74245000D01*
X199771095Y-74245000D02*
X199818714Y-74197380D01*
X199818714Y-74197380D02*
X199866333Y-74102142D01*
X199866333Y-74102142D02*
X199866333Y-73292619D01*
X200866333Y-74292619D02*
X200294905Y-74292619D01*
X200580619Y-74292619D02*
X200580619Y-73292619D01*
X200580619Y-73292619D02*
X200485381Y-73435476D01*
X200485381Y-73435476D02*
X200390143Y-73530714D01*
X200390143Y-73530714D02*
X200294905Y-73578333D01*
X201485381Y-73292619D02*
X201580619Y-73292619D01*
X201580619Y-73292619D02*
X201675857Y-73340238D01*
X201675857Y-73340238D02*
X201723476Y-73387857D01*
X201723476Y-73387857D02*
X201771095Y-73483095D01*
X201771095Y-73483095D02*
X201818714Y-73673571D01*
X201818714Y-73673571D02*
X201818714Y-73911666D01*
X201818714Y-73911666D02*
X201771095Y-74102142D01*
X201771095Y-74102142D02*
X201723476Y-74197380D01*
X201723476Y-74197380D02*
X201675857Y-74245000D01*
X201675857Y-74245000D02*
X201580619Y-74292619D01*
X201580619Y-74292619D02*
X201485381Y-74292619D01*
X201485381Y-74292619D02*
X201390143Y-74245000D01*
X201390143Y-74245000D02*
X201342524Y-74197380D01*
X201342524Y-74197380D02*
X201294905Y-74102142D01*
X201294905Y-74102142D02*
X201247286Y-73911666D01*
X201247286Y-73911666D02*
X201247286Y-73673571D01*
X201247286Y-73673571D02*
X201294905Y-73483095D01*
X201294905Y-73483095D02*
X201342524Y-73387857D01*
X201342524Y-73387857D02*
X201390143Y-73340238D01*
X201390143Y-73340238D02*
X201485381Y-73292619D01*
X167501667Y-50227200D02*
X167644524Y-50274819D01*
X167644524Y-50274819D02*
X167882619Y-50274819D01*
X167882619Y-50274819D02*
X167977857Y-50227200D01*
X167977857Y-50227200D02*
X168025476Y-50179580D01*
X168025476Y-50179580D02*
X168073095Y-50084342D01*
X168073095Y-50084342D02*
X168073095Y-49989104D01*
X168073095Y-49989104D02*
X168025476Y-49893866D01*
X168025476Y-49893866D02*
X167977857Y-49846247D01*
X167977857Y-49846247D02*
X167882619Y-49798628D01*
X167882619Y-49798628D02*
X167692143Y-49751009D01*
X167692143Y-49751009D02*
X167596905Y-49703390D01*
X167596905Y-49703390D02*
X167549286Y-49655771D01*
X167549286Y-49655771D02*
X167501667Y-49560533D01*
X167501667Y-49560533D02*
X167501667Y-49465295D01*
X167501667Y-49465295D02*
X167549286Y-49370057D01*
X167549286Y-49370057D02*
X167596905Y-49322438D01*
X167596905Y-49322438D02*
X167692143Y-49274819D01*
X167692143Y-49274819D02*
X167930238Y-49274819D01*
X167930238Y-49274819D02*
X168073095Y-49322438D01*
X168406429Y-49274819D02*
X168644524Y-50274819D01*
X168644524Y-50274819D02*
X168835000Y-49560533D01*
X168835000Y-49560533D02*
X169025476Y-50274819D01*
X169025476Y-50274819D02*
X169263572Y-49274819D01*
X170168333Y-50274819D02*
X169596905Y-50274819D01*
X169882619Y-50274819D02*
X169882619Y-49274819D01*
X169882619Y-49274819D02*
X169787381Y-49417676D01*
X169787381Y-49417676D02*
X169692143Y-49512914D01*
X169692143Y-49512914D02*
X169596905Y-49560533D01*
X180825000Y-50995842D02*
X180782143Y-51038700D01*
X180782143Y-51038700D02*
X180653571Y-51081557D01*
X180653571Y-51081557D02*
X180567857Y-51081557D01*
X180567857Y-51081557D02*
X180439286Y-51038700D01*
X180439286Y-51038700D02*
X180353571Y-50952985D01*
X180353571Y-50952985D02*
X180310714Y-50867271D01*
X180310714Y-50867271D02*
X180267857Y-50695842D01*
X180267857Y-50695842D02*
X180267857Y-50567271D01*
X180267857Y-50567271D02*
X180310714Y-50395842D01*
X180310714Y-50395842D02*
X180353571Y-50310128D01*
X180353571Y-50310128D02*
X180439286Y-50224414D01*
X180439286Y-50224414D02*
X180567857Y-50181557D01*
X180567857Y-50181557D02*
X180653571Y-50181557D01*
X180653571Y-50181557D02*
X180782143Y-50224414D01*
X180782143Y-50224414D02*
X180825000Y-50267271D01*
X181125000Y-50181557D02*
X181682143Y-50181557D01*
X181682143Y-50181557D02*
X181382143Y-50524414D01*
X181382143Y-50524414D02*
X181510714Y-50524414D01*
X181510714Y-50524414D02*
X181596429Y-50567271D01*
X181596429Y-50567271D02*
X181639286Y-50610128D01*
X181639286Y-50610128D02*
X181682143Y-50695842D01*
X181682143Y-50695842D02*
X181682143Y-50910128D01*
X181682143Y-50910128D02*
X181639286Y-50995842D01*
X181639286Y-50995842D02*
X181596429Y-51038700D01*
X181596429Y-51038700D02*
X181510714Y-51081557D01*
X181510714Y-51081557D02*
X181253571Y-51081557D01*
X181253571Y-51081557D02*
X181167857Y-51038700D01*
X181167857Y-51038700D02*
X181125000Y-50995842D01*
X150772019Y-82208666D02*
X150295828Y-82541999D01*
X150772019Y-82780094D02*
X149772019Y-82780094D01*
X149772019Y-82780094D02*
X149772019Y-82399142D01*
X149772019Y-82399142D02*
X149819638Y-82303904D01*
X149819638Y-82303904D02*
X149867257Y-82256285D01*
X149867257Y-82256285D02*
X149962495Y-82208666D01*
X149962495Y-82208666D02*
X150105352Y-82208666D01*
X150105352Y-82208666D02*
X150200590Y-82256285D01*
X150200590Y-82256285D02*
X150248209Y-82303904D01*
X150248209Y-82303904D02*
X150295828Y-82399142D01*
X150295828Y-82399142D02*
X150295828Y-82780094D01*
X149867257Y-81827713D02*
X149819638Y-81780094D01*
X149819638Y-81780094D02*
X149772019Y-81684856D01*
X149772019Y-81684856D02*
X149772019Y-81446761D01*
X149772019Y-81446761D02*
X149819638Y-81351523D01*
X149819638Y-81351523D02*
X149867257Y-81303904D01*
X149867257Y-81303904D02*
X149962495Y-81256285D01*
X149962495Y-81256285D02*
X150057733Y-81256285D01*
X150057733Y-81256285D02*
X150200590Y-81303904D01*
X150200590Y-81303904D02*
X150772019Y-81875332D01*
X150772019Y-81875332D02*
X150772019Y-81256285D01*
X180889285Y-56279442D02*
X180803571Y-56236585D01*
X180803571Y-56236585D02*
X180717857Y-56150871D01*
X180717857Y-56150871D02*
X180589285Y-56022299D01*
X180589285Y-56022299D02*
X180503571Y-55979442D01*
X180503571Y-55979442D02*
X180417857Y-55979442D01*
X180460714Y-56193728D02*
X180375000Y-56150871D01*
X180375000Y-56150871D02*
X180289285Y-56065156D01*
X180289285Y-56065156D02*
X180246428Y-55893728D01*
X180246428Y-55893728D02*
X180246428Y-55593728D01*
X180246428Y-55593728D02*
X180289285Y-55422299D01*
X180289285Y-55422299D02*
X180375000Y-55336585D01*
X180375000Y-55336585D02*
X180460714Y-55293728D01*
X180460714Y-55293728D02*
X180632142Y-55293728D01*
X180632142Y-55293728D02*
X180717857Y-55336585D01*
X180717857Y-55336585D02*
X180803571Y-55422299D01*
X180803571Y-55422299D02*
X180846428Y-55593728D01*
X180846428Y-55593728D02*
X180846428Y-55893728D01*
X180846428Y-55893728D02*
X180803571Y-56065156D01*
X180803571Y-56065156D02*
X180717857Y-56150871D01*
X180717857Y-56150871D02*
X180632142Y-56193728D01*
X180632142Y-56193728D02*
X180460714Y-56193728D01*
X181703571Y-56193728D02*
X181189285Y-56193728D01*
X181446428Y-56193728D02*
X181446428Y-55293728D01*
X181446428Y-55293728D02*
X181360714Y-55422299D01*
X181360714Y-55422299D02*
X181274999Y-55508013D01*
X181274999Y-55508013D02*
X181189285Y-55550871D01*
X190587333Y-82369819D02*
X190254000Y-81893628D01*
X190015905Y-82369819D02*
X190015905Y-81369819D01*
X190015905Y-81369819D02*
X190396857Y-81369819D01*
X190396857Y-81369819D02*
X190492095Y-81417438D01*
X190492095Y-81417438D02*
X190539714Y-81465057D01*
X190539714Y-81465057D02*
X190587333Y-81560295D01*
X190587333Y-81560295D02*
X190587333Y-81703152D01*
X190587333Y-81703152D02*
X190539714Y-81798390D01*
X190539714Y-81798390D02*
X190492095Y-81846009D01*
X190492095Y-81846009D02*
X190396857Y-81893628D01*
X190396857Y-81893628D02*
X190015905Y-81893628D01*
X190920667Y-81369819D02*
X191587333Y-81369819D01*
X191587333Y-81369819D02*
X191158762Y-82369819D01*
X134709819Y-52911333D02*
X135424104Y-52911333D01*
X135424104Y-52911333D02*
X135566961Y-52958952D01*
X135566961Y-52958952D02*
X135662200Y-53054190D01*
X135662200Y-53054190D02*
X135709819Y-53197047D01*
X135709819Y-53197047D02*
X135709819Y-53292285D01*
X134805057Y-52482761D02*
X134757438Y-52435142D01*
X134757438Y-52435142D02*
X134709819Y-52339904D01*
X134709819Y-52339904D02*
X134709819Y-52101809D01*
X134709819Y-52101809D02*
X134757438Y-52006571D01*
X134757438Y-52006571D02*
X134805057Y-51958952D01*
X134805057Y-51958952D02*
X134900295Y-51911333D01*
X134900295Y-51911333D02*
X134995533Y-51911333D01*
X134995533Y-51911333D02*
X135138390Y-51958952D01*
X135138390Y-51958952D02*
X135709819Y-52530380D01*
X135709819Y-52530380D02*
X135709819Y-51911333D01*
X178339905Y-62319819D02*
X178339905Y-63129342D01*
X178339905Y-63129342D02*
X178387524Y-63224580D01*
X178387524Y-63224580D02*
X178435143Y-63272200D01*
X178435143Y-63272200D02*
X178530381Y-63319819D01*
X178530381Y-63319819D02*
X178720857Y-63319819D01*
X178720857Y-63319819D02*
X178816095Y-63272200D01*
X178816095Y-63272200D02*
X178863714Y-63224580D01*
X178863714Y-63224580D02*
X178911333Y-63129342D01*
X178911333Y-63129342D02*
X178911333Y-62319819D01*
X179911333Y-63319819D02*
X179339905Y-63319819D01*
X179625619Y-63319819D02*
X179625619Y-62319819D01*
X179625619Y-62319819D02*
X179530381Y-62462676D01*
X179530381Y-62462676D02*
X179435143Y-62557914D01*
X179435143Y-62557914D02*
X179339905Y-62605533D01*
X180863714Y-63319819D02*
X180292286Y-63319819D01*
X180578000Y-63319819D02*
X180578000Y-62319819D01*
X180578000Y-62319819D02*
X180482762Y-62462676D01*
X180482762Y-62462676D02*
X180387524Y-62557914D01*
X180387524Y-62557914D02*
X180292286Y-62605533D01*
X191494580Y-52911666D02*
X191542200Y-52959285D01*
X191542200Y-52959285D02*
X191589819Y-53102142D01*
X191589819Y-53102142D02*
X191589819Y-53197380D01*
X191589819Y-53197380D02*
X191542200Y-53340237D01*
X191542200Y-53340237D02*
X191446961Y-53435475D01*
X191446961Y-53435475D02*
X191351723Y-53483094D01*
X191351723Y-53483094D02*
X191161247Y-53530713D01*
X191161247Y-53530713D02*
X191018390Y-53530713D01*
X191018390Y-53530713D02*
X190827914Y-53483094D01*
X190827914Y-53483094D02*
X190732676Y-53435475D01*
X190732676Y-53435475D02*
X190637438Y-53340237D01*
X190637438Y-53340237D02*
X190589819Y-53197380D01*
X190589819Y-53197380D02*
X190589819Y-53102142D01*
X190589819Y-53102142D02*
X190637438Y-52959285D01*
X190637438Y-52959285D02*
X190685057Y-52911666D01*
X191018390Y-52340237D02*
X190970771Y-52435475D01*
X190970771Y-52435475D02*
X190923152Y-52483094D01*
X190923152Y-52483094D02*
X190827914Y-52530713D01*
X190827914Y-52530713D02*
X190780295Y-52530713D01*
X190780295Y-52530713D02*
X190685057Y-52483094D01*
X190685057Y-52483094D02*
X190637438Y-52435475D01*
X190637438Y-52435475D02*
X190589819Y-52340237D01*
X190589819Y-52340237D02*
X190589819Y-52149761D01*
X190589819Y-52149761D02*
X190637438Y-52054523D01*
X190637438Y-52054523D02*
X190685057Y-52006904D01*
X190685057Y-52006904D02*
X190780295Y-51959285D01*
X190780295Y-51959285D02*
X190827914Y-51959285D01*
X190827914Y-51959285D02*
X190923152Y-52006904D01*
X190923152Y-52006904D02*
X190970771Y-52054523D01*
X190970771Y-52054523D02*
X191018390Y-52149761D01*
X191018390Y-52149761D02*
X191018390Y-52340237D01*
X191018390Y-52340237D02*
X191066009Y-52435475D01*
X191066009Y-52435475D02*
X191113628Y-52483094D01*
X191113628Y-52483094D02*
X191208866Y-52530713D01*
X191208866Y-52530713D02*
X191399342Y-52530713D01*
X191399342Y-52530713D02*
X191494580Y-52483094D01*
X191494580Y-52483094D02*
X191542200Y-52435475D01*
X191542200Y-52435475D02*
X191589819Y-52340237D01*
X191589819Y-52340237D02*
X191589819Y-52149761D01*
X191589819Y-52149761D02*
X191542200Y-52054523D01*
X191542200Y-52054523D02*
X191494580Y-52006904D01*
X191494580Y-52006904D02*
X191399342Y-51959285D01*
X191399342Y-51959285D02*
X191208866Y-51959285D01*
X191208866Y-51959285D02*
X191113628Y-52006904D01*
X191113628Y-52006904D02*
X191066009Y-52054523D01*
X191066009Y-52054523D02*
X191018390Y-52149761D01*
X200761905Y-89116819D02*
X200761905Y-89926342D01*
X200761905Y-89926342D02*
X200809524Y-90021580D01*
X200809524Y-90021580D02*
X200857143Y-90069200D01*
X200857143Y-90069200D02*
X200952381Y-90116819D01*
X200952381Y-90116819D02*
X201142857Y-90116819D01*
X201142857Y-90116819D02*
X201238095Y-90069200D01*
X201238095Y-90069200D02*
X201285714Y-90021580D01*
X201285714Y-90021580D02*
X201333333Y-89926342D01*
X201333333Y-89926342D02*
X201333333Y-89116819D01*
X202333333Y-90116819D02*
X201761905Y-90116819D01*
X202047619Y-90116819D02*
X202047619Y-89116819D01*
X202047619Y-89116819D02*
X201952381Y-89259676D01*
X201952381Y-89259676D02*
X201857143Y-89354914D01*
X201857143Y-89354914D02*
X201761905Y-89402533D01*
X203238095Y-89116819D02*
X202761905Y-89116819D01*
X202761905Y-89116819D02*
X202714286Y-89593009D01*
X202714286Y-89593009D02*
X202761905Y-89545390D01*
X202761905Y-89545390D02*
X202857143Y-89497771D01*
X202857143Y-89497771D02*
X203095238Y-89497771D01*
X203095238Y-89497771D02*
X203190476Y-89545390D01*
X203190476Y-89545390D02*
X203238095Y-89593009D01*
X203238095Y-89593009D02*
X203285714Y-89688247D01*
X203285714Y-89688247D02*
X203285714Y-89926342D01*
X203285714Y-89926342D02*
X203238095Y-90021580D01*
X203238095Y-90021580D02*
X203190476Y-90069200D01*
X203190476Y-90069200D02*
X203095238Y-90116819D01*
X203095238Y-90116819D02*
X202857143Y-90116819D01*
X202857143Y-90116819D02*
X202761905Y-90069200D01*
X202761905Y-90069200D02*
X202714286Y-90021580D01*
X155606905Y-62319819D02*
X155606905Y-63129342D01*
X155606905Y-63129342D02*
X155654524Y-63224580D01*
X155654524Y-63224580D02*
X155702143Y-63272200D01*
X155702143Y-63272200D02*
X155797381Y-63319819D01*
X155797381Y-63319819D02*
X155987857Y-63319819D01*
X155987857Y-63319819D02*
X156083095Y-63272200D01*
X156083095Y-63272200D02*
X156130714Y-63224580D01*
X156130714Y-63224580D02*
X156178333Y-63129342D01*
X156178333Y-63129342D02*
X156178333Y-62319819D01*
X157178333Y-63319819D02*
X156606905Y-63319819D01*
X156892619Y-63319819D02*
X156892619Y-62319819D01*
X156892619Y-62319819D02*
X156797381Y-62462676D01*
X156797381Y-62462676D02*
X156702143Y-62557914D01*
X156702143Y-62557914D02*
X156606905Y-62605533D01*
X157559286Y-62415057D02*
X157606905Y-62367438D01*
X157606905Y-62367438D02*
X157702143Y-62319819D01*
X157702143Y-62319819D02*
X157940238Y-62319819D01*
X157940238Y-62319819D02*
X158035476Y-62367438D01*
X158035476Y-62367438D02*
X158083095Y-62415057D01*
X158083095Y-62415057D02*
X158130714Y-62510295D01*
X158130714Y-62510295D02*
X158130714Y-62605533D01*
X158130714Y-62605533D02*
X158083095Y-62748390D01*
X158083095Y-62748390D02*
X157511667Y-63319819D01*
X157511667Y-63319819D02*
X158130714Y-63319819D01*
X195542819Y-52911333D02*
X196257104Y-52911333D01*
X196257104Y-52911333D02*
X196399961Y-52958952D01*
X196399961Y-52958952D02*
X196495200Y-53054190D01*
X196495200Y-53054190D02*
X196542819Y-53197047D01*
X196542819Y-53197047D02*
X196542819Y-53292285D01*
X196542819Y-51911333D02*
X196542819Y-52482761D01*
X196542819Y-52197047D02*
X195542819Y-52197047D01*
X195542819Y-52197047D02*
X195685676Y-52292285D01*
X195685676Y-52292285D02*
X195780914Y-52387523D01*
X195780914Y-52387523D02*
X195828533Y-52482761D01*
X186509819Y-52173094D02*
X185509819Y-52173094D01*
X185509819Y-52173094D02*
X185509819Y-51934999D01*
X185509819Y-51934999D02*
X185557438Y-51792142D01*
X185557438Y-51792142D02*
X185652676Y-51696904D01*
X185652676Y-51696904D02*
X185747914Y-51649285D01*
X185747914Y-51649285D02*
X185938390Y-51601666D01*
X185938390Y-51601666D02*
X186081247Y-51601666D01*
X186081247Y-51601666D02*
X186271723Y-51649285D01*
X186271723Y-51649285D02*
X186366961Y-51696904D01*
X186366961Y-51696904D02*
X186462200Y-51792142D01*
X186462200Y-51792142D02*
X186509819Y-51934999D01*
X186509819Y-51934999D02*
X186509819Y-52173094D01*
X185605057Y-51220713D02*
X185557438Y-51173094D01*
X185557438Y-51173094D02*
X185509819Y-51077856D01*
X185509819Y-51077856D02*
X185509819Y-50839761D01*
X185509819Y-50839761D02*
X185557438Y-50744523D01*
X185557438Y-50744523D02*
X185605057Y-50696904D01*
X185605057Y-50696904D02*
X185700295Y-50649285D01*
X185700295Y-50649285D02*
X185795533Y-50649285D01*
X185795533Y-50649285D02*
X185938390Y-50696904D01*
X185938390Y-50696904D02*
X186509819Y-51268332D01*
X186509819Y-51268332D02*
X186509819Y-50649285D01*
X155596905Y-50000819D02*
X155596905Y-50810342D01*
X155596905Y-50810342D02*
X155644524Y-50905580D01*
X155644524Y-50905580D02*
X155692143Y-50953200D01*
X155692143Y-50953200D02*
X155787381Y-51000819D01*
X155787381Y-51000819D02*
X155977857Y-51000819D01*
X155977857Y-51000819D02*
X156073095Y-50953200D01*
X156073095Y-50953200D02*
X156120714Y-50905580D01*
X156120714Y-50905580D02*
X156168333Y-50810342D01*
X156168333Y-50810342D02*
X156168333Y-50000819D01*
X157168333Y-51000819D02*
X156596905Y-51000819D01*
X156882619Y-51000819D02*
X156882619Y-50000819D01*
X156882619Y-50000819D02*
X156787381Y-50143676D01*
X156787381Y-50143676D02*
X156692143Y-50238914D01*
X156692143Y-50238914D02*
X156596905Y-50286533D01*
X158025476Y-50000819D02*
X157835000Y-50000819D01*
X157835000Y-50000819D02*
X157739762Y-50048438D01*
X157739762Y-50048438D02*
X157692143Y-50096057D01*
X157692143Y-50096057D02*
X157596905Y-50238914D01*
X157596905Y-50238914D02*
X157549286Y-50429390D01*
X157549286Y-50429390D02*
X157549286Y-50810342D01*
X157549286Y-50810342D02*
X157596905Y-50905580D01*
X157596905Y-50905580D02*
X157644524Y-50953200D01*
X157644524Y-50953200D02*
X157739762Y-51000819D01*
X157739762Y-51000819D02*
X157930238Y-51000819D01*
X157930238Y-51000819D02*
X158025476Y-50953200D01*
X158025476Y-50953200D02*
X158073095Y-50905580D01*
X158073095Y-50905580D02*
X158120714Y-50810342D01*
X158120714Y-50810342D02*
X158120714Y-50572247D01*
X158120714Y-50572247D02*
X158073095Y-50477009D01*
X158073095Y-50477009D02*
X158025476Y-50429390D01*
X158025476Y-50429390D02*
X157930238Y-50381771D01*
X157930238Y-50381771D02*
X157739762Y-50381771D01*
X157739762Y-50381771D02*
X157644524Y-50429390D01*
X157644524Y-50429390D02*
X157596905Y-50477009D01*
X157596905Y-50477009D02*
X157549286Y-50572247D01*
X182969819Y-118109904D02*
X183779342Y-118109904D01*
X183779342Y-118109904D02*
X183874580Y-118062285D01*
X183874580Y-118062285D02*
X183922200Y-118014666D01*
X183922200Y-118014666D02*
X183969819Y-117919428D01*
X183969819Y-117919428D02*
X183969819Y-117728952D01*
X183969819Y-117728952D02*
X183922200Y-117633714D01*
X183922200Y-117633714D02*
X183874580Y-117586095D01*
X183874580Y-117586095D02*
X183779342Y-117538476D01*
X183779342Y-117538476D02*
X182969819Y-117538476D01*
X183303152Y-116633714D02*
X183969819Y-116633714D01*
X182922200Y-116871809D02*
X183636485Y-117109904D01*
X183636485Y-117109904D02*
X183636485Y-116490857D01*
X136906095Y-93180819D02*
X136906095Y-93990342D01*
X136906095Y-93990342D02*
X136953714Y-94085580D01*
X136953714Y-94085580D02*
X137001333Y-94133200D01*
X137001333Y-94133200D02*
X137096571Y-94180819D01*
X137096571Y-94180819D02*
X137287047Y-94180819D01*
X137287047Y-94180819D02*
X137382285Y-94133200D01*
X137382285Y-94133200D02*
X137429904Y-94085580D01*
X137429904Y-94085580D02*
X137477523Y-93990342D01*
X137477523Y-93990342D02*
X137477523Y-93180819D01*
X137906095Y-93276057D02*
X137953714Y-93228438D01*
X137953714Y-93228438D02*
X138048952Y-93180819D01*
X138048952Y-93180819D02*
X138287047Y-93180819D01*
X138287047Y-93180819D02*
X138382285Y-93228438D01*
X138382285Y-93228438D02*
X138429904Y-93276057D01*
X138429904Y-93276057D02*
X138477523Y-93371295D01*
X138477523Y-93371295D02*
X138477523Y-93466533D01*
X138477523Y-93466533D02*
X138429904Y-93609390D01*
X138429904Y-93609390D02*
X137858476Y-94180819D01*
X137858476Y-94180819D02*
X138477523Y-94180819D01*
X214354580Y-116411666D02*
X214402200Y-116459285D01*
X214402200Y-116459285D02*
X214449819Y-116602142D01*
X214449819Y-116602142D02*
X214449819Y-116697380D01*
X214449819Y-116697380D02*
X214402200Y-116840237D01*
X214402200Y-116840237D02*
X214306961Y-116935475D01*
X214306961Y-116935475D02*
X214211723Y-116983094D01*
X214211723Y-116983094D02*
X214021247Y-117030713D01*
X214021247Y-117030713D02*
X213878390Y-117030713D01*
X213878390Y-117030713D02*
X213687914Y-116983094D01*
X213687914Y-116983094D02*
X213592676Y-116935475D01*
X213592676Y-116935475D02*
X213497438Y-116840237D01*
X213497438Y-116840237D02*
X213449819Y-116697380D01*
X213449819Y-116697380D02*
X213449819Y-116602142D01*
X213449819Y-116602142D02*
X213497438Y-116459285D01*
X213497438Y-116459285D02*
X213545057Y-116411666D01*
X214449819Y-115459285D02*
X214449819Y-116030713D01*
X214449819Y-115744999D02*
X213449819Y-115744999D01*
X213449819Y-115744999D02*
X213592676Y-115840237D01*
X213592676Y-115840237D02*
X213687914Y-115935475D01*
X213687914Y-115935475D02*
X213735533Y-116030713D01*
X195415819Y-118236904D02*
X196225342Y-118236904D01*
X196225342Y-118236904D02*
X196320580Y-118189285D01*
X196320580Y-118189285D02*
X196368200Y-118141666D01*
X196368200Y-118141666D02*
X196415819Y-118046428D01*
X196415819Y-118046428D02*
X196415819Y-117855952D01*
X196415819Y-117855952D02*
X196368200Y-117760714D01*
X196368200Y-117760714D02*
X196320580Y-117713095D01*
X196320580Y-117713095D02*
X196225342Y-117665476D01*
X196225342Y-117665476D02*
X195415819Y-117665476D01*
X195415819Y-116713095D02*
X195415819Y-117189285D01*
X195415819Y-117189285D02*
X195892009Y-117236904D01*
X195892009Y-117236904D02*
X195844390Y-117189285D01*
X195844390Y-117189285D02*
X195796771Y-117094047D01*
X195796771Y-117094047D02*
X195796771Y-116855952D01*
X195796771Y-116855952D02*
X195844390Y-116760714D01*
X195844390Y-116760714D02*
X195892009Y-116713095D01*
X195892009Y-116713095D02*
X195987247Y-116665476D01*
X195987247Y-116665476D02*
X196225342Y-116665476D01*
X196225342Y-116665476D02*
X196320580Y-116713095D01*
X196320580Y-116713095D02*
X196368200Y-116760714D01*
X196368200Y-116760714D02*
X196415819Y-116855952D01*
X196415819Y-116855952D02*
X196415819Y-117094047D01*
X196415819Y-117094047D02*
X196368200Y-117189285D01*
X196368200Y-117189285D02*
X196320580Y-117236904D01*
X135032905Y-62319819D02*
X135032905Y-63129342D01*
X135032905Y-63129342D02*
X135080524Y-63224580D01*
X135080524Y-63224580D02*
X135128143Y-63272200D01*
X135128143Y-63272200D02*
X135223381Y-63319819D01*
X135223381Y-63319819D02*
X135413857Y-63319819D01*
X135413857Y-63319819D02*
X135509095Y-63272200D01*
X135509095Y-63272200D02*
X135556714Y-63224580D01*
X135556714Y-63224580D02*
X135604333Y-63129342D01*
X135604333Y-63129342D02*
X135604333Y-62319819D01*
X136604333Y-63319819D02*
X136032905Y-63319819D01*
X136318619Y-63319819D02*
X136318619Y-62319819D01*
X136318619Y-62319819D02*
X136223381Y-62462676D01*
X136223381Y-62462676D02*
X136128143Y-62557914D01*
X136128143Y-62557914D02*
X136032905Y-62605533D01*
X137461476Y-62653152D02*
X137461476Y-63319819D01*
X137223381Y-62272200D02*
X136985286Y-62986485D01*
X136985286Y-62986485D02*
X137604333Y-62986485D01*
X211328333Y-82274580D02*
X211280714Y-82322200D01*
X211280714Y-82322200D02*
X211137857Y-82369819D01*
X211137857Y-82369819D02*
X211042619Y-82369819D01*
X211042619Y-82369819D02*
X210899762Y-82322200D01*
X210899762Y-82322200D02*
X210804524Y-82226961D01*
X210804524Y-82226961D02*
X210756905Y-82131723D01*
X210756905Y-82131723D02*
X210709286Y-81941247D01*
X210709286Y-81941247D02*
X210709286Y-81798390D01*
X210709286Y-81798390D02*
X210756905Y-81607914D01*
X210756905Y-81607914D02*
X210804524Y-81512676D01*
X210804524Y-81512676D02*
X210899762Y-81417438D01*
X210899762Y-81417438D02*
X211042619Y-81369819D01*
X211042619Y-81369819D02*
X211137857Y-81369819D01*
X211137857Y-81369819D02*
X211280714Y-81417438D01*
X211280714Y-81417438D02*
X211328333Y-81465057D01*
X211709286Y-81465057D02*
X211756905Y-81417438D01*
X211756905Y-81417438D02*
X211852143Y-81369819D01*
X211852143Y-81369819D02*
X212090238Y-81369819D01*
X212090238Y-81369819D02*
X212185476Y-81417438D01*
X212185476Y-81417438D02*
X212233095Y-81465057D01*
X212233095Y-81465057D02*
X212280714Y-81560295D01*
X212280714Y-81560295D02*
X212280714Y-81655533D01*
X212280714Y-81655533D02*
X212233095Y-81798390D01*
X212233095Y-81798390D02*
X211661667Y-82369819D01*
X211661667Y-82369819D02*
X212280714Y-82369819D01*
X133096095Y-73876819D02*
X133096095Y-74686342D01*
X133096095Y-74686342D02*
X133143714Y-74781580D01*
X133143714Y-74781580D02*
X133191333Y-74829200D01*
X133191333Y-74829200D02*
X133286571Y-74876819D01*
X133286571Y-74876819D02*
X133477047Y-74876819D01*
X133477047Y-74876819D02*
X133572285Y-74829200D01*
X133572285Y-74829200D02*
X133619904Y-74781580D01*
X133619904Y-74781580D02*
X133667523Y-74686342D01*
X133667523Y-74686342D02*
X133667523Y-73876819D01*
X134286571Y-74305390D02*
X134191333Y-74257771D01*
X134191333Y-74257771D02*
X134143714Y-74210152D01*
X134143714Y-74210152D02*
X134096095Y-74114914D01*
X134096095Y-74114914D02*
X134096095Y-74067295D01*
X134096095Y-74067295D02*
X134143714Y-73972057D01*
X134143714Y-73972057D02*
X134191333Y-73924438D01*
X134191333Y-73924438D02*
X134286571Y-73876819D01*
X134286571Y-73876819D02*
X134477047Y-73876819D01*
X134477047Y-73876819D02*
X134572285Y-73924438D01*
X134572285Y-73924438D02*
X134619904Y-73972057D01*
X134619904Y-73972057D02*
X134667523Y-74067295D01*
X134667523Y-74067295D02*
X134667523Y-74114914D01*
X134667523Y-74114914D02*
X134619904Y-74210152D01*
X134619904Y-74210152D02*
X134572285Y-74257771D01*
X134572285Y-74257771D02*
X134477047Y-74305390D01*
X134477047Y-74305390D02*
X134286571Y-74305390D01*
X134286571Y-74305390D02*
X134191333Y-74353009D01*
X134191333Y-74353009D02*
X134143714Y-74400628D01*
X134143714Y-74400628D02*
X134096095Y-74495866D01*
X134096095Y-74495866D02*
X134096095Y-74686342D01*
X134096095Y-74686342D02*
X134143714Y-74781580D01*
X134143714Y-74781580D02*
X134191333Y-74829200D01*
X134191333Y-74829200D02*
X134286571Y-74876819D01*
X134286571Y-74876819D02*
X134477047Y-74876819D01*
X134477047Y-74876819D02*
X134572285Y-74829200D01*
X134572285Y-74829200D02*
X134619904Y-74781580D01*
X134619904Y-74781580D02*
X134667523Y-74686342D01*
X134667523Y-74686342D02*
X134667523Y-74495866D01*
X134667523Y-74495866D02*
X134619904Y-74400628D01*
X134619904Y-74400628D02*
X134572285Y-74353009D01*
X134572285Y-74353009D02*
X134477047Y-74305390D01*
X189049819Y-52238094D02*
X188049819Y-52238094D01*
X188049819Y-52238094D02*
X188049819Y-51999999D01*
X188049819Y-51999999D02*
X188097438Y-51857142D01*
X188097438Y-51857142D02*
X188192676Y-51761904D01*
X188192676Y-51761904D02*
X188287914Y-51714285D01*
X188287914Y-51714285D02*
X188478390Y-51666666D01*
X188478390Y-51666666D02*
X188621247Y-51666666D01*
X188621247Y-51666666D02*
X188811723Y-51714285D01*
X188811723Y-51714285D02*
X188906961Y-51761904D01*
X188906961Y-51761904D02*
X189002200Y-51857142D01*
X189002200Y-51857142D02*
X189049819Y-51999999D01*
X189049819Y-51999999D02*
X189049819Y-52238094D01*
X188049819Y-51333332D02*
X188049819Y-50714285D01*
X188049819Y-50714285D02*
X188430771Y-51047618D01*
X188430771Y-51047618D02*
X188430771Y-50904761D01*
X188430771Y-50904761D02*
X188478390Y-50809523D01*
X188478390Y-50809523D02*
X188526009Y-50761904D01*
X188526009Y-50761904D02*
X188621247Y-50714285D01*
X188621247Y-50714285D02*
X188859342Y-50714285D01*
X188859342Y-50714285D02*
X188954580Y-50761904D01*
X188954580Y-50761904D02*
X189002200Y-50809523D01*
X189002200Y-50809523D02*
X189049819Y-50904761D01*
X189049819Y-50904761D02*
X189049819Y-51190475D01*
X189049819Y-51190475D02*
X189002200Y-51285713D01*
X189002200Y-51285713D02*
X188954580Y-51333332D01*
X172444580Y-63071666D02*
X172492200Y-63119285D01*
X172492200Y-63119285D02*
X172539819Y-63262142D01*
X172539819Y-63262142D02*
X172539819Y-63357380D01*
X172539819Y-63357380D02*
X172492200Y-63500237D01*
X172492200Y-63500237D02*
X172396961Y-63595475D01*
X172396961Y-63595475D02*
X172301723Y-63643094D01*
X172301723Y-63643094D02*
X172111247Y-63690713D01*
X172111247Y-63690713D02*
X171968390Y-63690713D01*
X171968390Y-63690713D02*
X171777914Y-63643094D01*
X171777914Y-63643094D02*
X171682676Y-63595475D01*
X171682676Y-63595475D02*
X171587438Y-63500237D01*
X171587438Y-63500237D02*
X171539819Y-63357380D01*
X171539819Y-63357380D02*
X171539819Y-63262142D01*
X171539819Y-63262142D02*
X171587438Y-63119285D01*
X171587438Y-63119285D02*
X171635057Y-63071666D01*
X171539819Y-62166904D02*
X171539819Y-62643094D01*
X171539819Y-62643094D02*
X172016009Y-62690713D01*
X172016009Y-62690713D02*
X171968390Y-62643094D01*
X171968390Y-62643094D02*
X171920771Y-62547856D01*
X171920771Y-62547856D02*
X171920771Y-62309761D01*
X171920771Y-62309761D02*
X171968390Y-62214523D01*
X171968390Y-62214523D02*
X172016009Y-62166904D01*
X172016009Y-62166904D02*
X172111247Y-62119285D01*
X172111247Y-62119285D02*
X172349342Y-62119285D01*
X172349342Y-62119285D02*
X172444580Y-62166904D01*
X172444580Y-62166904D02*
X172492200Y-62214523D01*
X172492200Y-62214523D02*
X172539819Y-62309761D01*
X172539819Y-62309761D02*
X172539819Y-62547856D01*
X172539819Y-62547856D02*
X172492200Y-62643094D01*
X172492200Y-62643094D02*
X172444580Y-62690713D01*
X195478580Y-89741666D02*
X195526200Y-89789285D01*
X195526200Y-89789285D02*
X195573819Y-89932142D01*
X195573819Y-89932142D02*
X195573819Y-90027380D01*
X195573819Y-90027380D02*
X195526200Y-90170237D01*
X195526200Y-90170237D02*
X195430961Y-90265475D01*
X195430961Y-90265475D02*
X195335723Y-90313094D01*
X195335723Y-90313094D02*
X195145247Y-90360713D01*
X195145247Y-90360713D02*
X195002390Y-90360713D01*
X195002390Y-90360713D02*
X194811914Y-90313094D01*
X194811914Y-90313094D02*
X194716676Y-90265475D01*
X194716676Y-90265475D02*
X194621438Y-90170237D01*
X194621438Y-90170237D02*
X194573819Y-90027380D01*
X194573819Y-90027380D02*
X194573819Y-89932142D01*
X194573819Y-89932142D02*
X194621438Y-89789285D01*
X194621438Y-89789285D02*
X194669057Y-89741666D01*
X194907152Y-88884523D02*
X195573819Y-88884523D01*
X194526200Y-89122618D02*
X195240485Y-89360713D01*
X195240485Y-89360713D02*
X195240485Y-88741666D01*
X199263095Y-62319819D02*
X199263095Y-63129342D01*
X199263095Y-63129342D02*
X199310714Y-63224580D01*
X199310714Y-63224580D02*
X199358333Y-63272200D01*
X199358333Y-63272200D02*
X199453571Y-63319819D01*
X199453571Y-63319819D02*
X199644047Y-63319819D01*
X199644047Y-63319819D02*
X199739285Y-63272200D01*
X199739285Y-63272200D02*
X199786904Y-63224580D01*
X199786904Y-63224580D02*
X199834523Y-63129342D01*
X199834523Y-63129342D02*
X199834523Y-62319819D01*
X200358333Y-63319819D02*
X200548809Y-63319819D01*
X200548809Y-63319819D02*
X200644047Y-63272200D01*
X200644047Y-63272200D02*
X200691666Y-63224580D01*
X200691666Y-63224580D02*
X200786904Y-63081723D01*
X200786904Y-63081723D02*
X200834523Y-62891247D01*
X200834523Y-62891247D02*
X200834523Y-62510295D01*
X200834523Y-62510295D02*
X200786904Y-62415057D01*
X200786904Y-62415057D02*
X200739285Y-62367438D01*
X200739285Y-62367438D02*
X200644047Y-62319819D01*
X200644047Y-62319819D02*
X200453571Y-62319819D01*
X200453571Y-62319819D02*
X200358333Y-62367438D01*
X200358333Y-62367438D02*
X200310714Y-62415057D01*
X200310714Y-62415057D02*
X200263095Y-62510295D01*
X200263095Y-62510295D02*
X200263095Y-62748390D01*
X200263095Y-62748390D02*
X200310714Y-62843628D01*
X200310714Y-62843628D02*
X200358333Y-62891247D01*
X200358333Y-62891247D02*
X200453571Y-62938866D01*
X200453571Y-62938866D02*
X200644047Y-62938866D01*
X200644047Y-62938866D02*
X200739285Y-62891247D01*
X200739285Y-62891247D02*
X200786904Y-62843628D01*
X200786904Y-62843628D02*
X200834523Y-62748390D01*
X156210095Y-93180819D02*
X156210095Y-93990342D01*
X156210095Y-93990342D02*
X156257714Y-94085580D01*
X156257714Y-94085580D02*
X156305333Y-94133200D01*
X156305333Y-94133200D02*
X156400571Y-94180819D01*
X156400571Y-94180819D02*
X156591047Y-94180819D01*
X156591047Y-94180819D02*
X156686285Y-94133200D01*
X156686285Y-94133200D02*
X156733904Y-94085580D01*
X156733904Y-94085580D02*
X156781523Y-93990342D01*
X156781523Y-93990342D02*
X156781523Y-93180819D01*
X157781523Y-94180819D02*
X157210095Y-94180819D01*
X157495809Y-94180819D02*
X157495809Y-93180819D01*
X157495809Y-93180819D02*
X157400571Y-93323676D01*
X157400571Y-93323676D02*
X157305333Y-93418914D01*
X157305333Y-93418914D02*
X157210095Y-93466533D01*
X171323095Y-89116819D02*
X171323095Y-89926342D01*
X171323095Y-89926342D02*
X171370714Y-90021580D01*
X171370714Y-90021580D02*
X171418333Y-90069200D01*
X171418333Y-90069200D02*
X171513571Y-90116819D01*
X171513571Y-90116819D02*
X171704047Y-90116819D01*
X171704047Y-90116819D02*
X171799285Y-90069200D01*
X171799285Y-90069200D02*
X171846904Y-90021580D01*
X171846904Y-90021580D02*
X171894523Y-89926342D01*
X171894523Y-89926342D02*
X171894523Y-89116819D01*
X172275476Y-89116819D02*
X172942142Y-89116819D01*
X172942142Y-89116819D02*
X172513571Y-90116819D01*
X214449819Y-102988094D02*
X213449819Y-102988094D01*
X213449819Y-102988094D02*
X213449819Y-102749999D01*
X213449819Y-102749999D02*
X213497438Y-102607142D01*
X213497438Y-102607142D02*
X213592676Y-102511904D01*
X213592676Y-102511904D02*
X213687914Y-102464285D01*
X213687914Y-102464285D02*
X213878390Y-102416666D01*
X213878390Y-102416666D02*
X214021247Y-102416666D01*
X214021247Y-102416666D02*
X214211723Y-102464285D01*
X214211723Y-102464285D02*
X214306961Y-102511904D01*
X214306961Y-102511904D02*
X214402200Y-102607142D01*
X214402200Y-102607142D02*
X214449819Y-102749999D01*
X214449819Y-102749999D02*
X214449819Y-102988094D01*
X214449819Y-101464285D02*
X214449819Y-102035713D01*
X214449819Y-101749999D02*
X213449819Y-101749999D01*
X213449819Y-101749999D02*
X213592676Y-101845237D01*
X213592676Y-101845237D02*
X213687914Y-101940475D01*
X213687914Y-101940475D02*
X213735533Y-102035713D01*
X148404819Y-52998666D02*
X147928628Y-53331999D01*
X148404819Y-53570094D02*
X147404819Y-53570094D01*
X147404819Y-53570094D02*
X147404819Y-53189142D01*
X147404819Y-53189142D02*
X147452438Y-53093904D01*
X147452438Y-53093904D02*
X147500057Y-53046285D01*
X147500057Y-53046285D02*
X147595295Y-52998666D01*
X147595295Y-52998666D02*
X147738152Y-52998666D01*
X147738152Y-52998666D02*
X147833390Y-53046285D01*
X147833390Y-53046285D02*
X147881009Y-53093904D01*
X147881009Y-53093904D02*
X147928628Y-53189142D01*
X147928628Y-53189142D02*
X147928628Y-53570094D01*
X147404819Y-52093904D02*
X147404819Y-52570094D01*
X147404819Y-52570094D02*
X147881009Y-52617713D01*
X147881009Y-52617713D02*
X147833390Y-52570094D01*
X147833390Y-52570094D02*
X147785771Y-52474856D01*
X147785771Y-52474856D02*
X147785771Y-52236761D01*
X147785771Y-52236761D02*
X147833390Y-52141523D01*
X147833390Y-52141523D02*
X147881009Y-52093904D01*
X147881009Y-52093904D02*
X147976247Y-52046285D01*
X147976247Y-52046285D02*
X148214342Y-52046285D01*
X148214342Y-52046285D02*
X148309580Y-52093904D01*
X148309580Y-52093904D02*
X148357200Y-52141523D01*
X148357200Y-52141523D02*
X148404819Y-52236761D01*
X148404819Y-52236761D02*
X148404819Y-52474856D01*
X148404819Y-52474856D02*
X148357200Y-52570094D01*
X148357200Y-52570094D02*
X148309580Y-52617713D01*
X161758333Y-122914580D02*
X161710714Y-122962200D01*
X161710714Y-122962200D02*
X161567857Y-123009819D01*
X161567857Y-123009819D02*
X161472619Y-123009819D01*
X161472619Y-123009819D02*
X161329762Y-122962200D01*
X161329762Y-122962200D02*
X161234524Y-122866961D01*
X161234524Y-122866961D02*
X161186905Y-122771723D01*
X161186905Y-122771723D02*
X161139286Y-122581247D01*
X161139286Y-122581247D02*
X161139286Y-122438390D01*
X161139286Y-122438390D02*
X161186905Y-122247914D01*
X161186905Y-122247914D02*
X161234524Y-122152676D01*
X161234524Y-122152676D02*
X161329762Y-122057438D01*
X161329762Y-122057438D02*
X161472619Y-122009819D01*
X161472619Y-122009819D02*
X161567857Y-122009819D01*
X161567857Y-122009819D02*
X161710714Y-122057438D01*
X161710714Y-122057438D02*
X161758333Y-122105057D01*
X162091667Y-122009819D02*
X162758333Y-122009819D01*
X162758333Y-122009819D02*
X162329762Y-123009819D01*
X130217080Y-63071666D02*
X130264700Y-63119285D01*
X130264700Y-63119285D02*
X130312319Y-63262142D01*
X130312319Y-63262142D02*
X130312319Y-63357380D01*
X130312319Y-63357380D02*
X130264700Y-63500237D01*
X130264700Y-63500237D02*
X130169461Y-63595475D01*
X130169461Y-63595475D02*
X130074223Y-63643094D01*
X130074223Y-63643094D02*
X129883747Y-63690713D01*
X129883747Y-63690713D02*
X129740890Y-63690713D01*
X129740890Y-63690713D02*
X129550414Y-63643094D01*
X129550414Y-63643094D02*
X129455176Y-63595475D01*
X129455176Y-63595475D02*
X129359938Y-63500237D01*
X129359938Y-63500237D02*
X129312319Y-63357380D01*
X129312319Y-63357380D02*
X129312319Y-63262142D01*
X129312319Y-63262142D02*
X129359938Y-63119285D01*
X129359938Y-63119285D02*
X129407557Y-63071666D01*
X129312319Y-62214523D02*
X129312319Y-62404999D01*
X129312319Y-62404999D02*
X129359938Y-62500237D01*
X129359938Y-62500237D02*
X129407557Y-62547856D01*
X129407557Y-62547856D02*
X129550414Y-62643094D01*
X129550414Y-62643094D02*
X129740890Y-62690713D01*
X129740890Y-62690713D02*
X130121842Y-62690713D01*
X130121842Y-62690713D02*
X130217080Y-62643094D01*
X130217080Y-62643094D02*
X130264700Y-62595475D01*
X130264700Y-62595475D02*
X130312319Y-62500237D01*
X130312319Y-62500237D02*
X130312319Y-62309761D01*
X130312319Y-62309761D02*
X130264700Y-62214523D01*
X130264700Y-62214523D02*
X130217080Y-62166904D01*
X130217080Y-62166904D02*
X130121842Y-62119285D01*
X130121842Y-62119285D02*
X129883747Y-62119285D01*
X129883747Y-62119285D02*
X129788509Y-62166904D01*
X129788509Y-62166904D02*
X129740890Y-62214523D01*
X129740890Y-62214523D02*
X129693271Y-62309761D01*
X129693271Y-62309761D02*
X129693271Y-62500237D01*
X129693271Y-62500237D02*
X129740890Y-62595475D01*
X129740890Y-62595475D02*
X129788509Y-62643094D01*
X129788509Y-62643094D02*
X129883747Y-62690713D01*
X205829819Y-118236904D02*
X206639342Y-118236904D01*
X206639342Y-118236904D02*
X206734580Y-118189285D01*
X206734580Y-118189285D02*
X206782200Y-118141666D01*
X206782200Y-118141666D02*
X206829819Y-118046428D01*
X206829819Y-118046428D02*
X206829819Y-117855952D01*
X206829819Y-117855952D02*
X206782200Y-117760714D01*
X206782200Y-117760714D02*
X206734580Y-117713095D01*
X206734580Y-117713095D02*
X206639342Y-117665476D01*
X206639342Y-117665476D02*
X205829819Y-117665476D01*
X205829819Y-117284523D02*
X205829819Y-116665476D01*
X205829819Y-116665476D02*
X206210771Y-116998809D01*
X206210771Y-116998809D02*
X206210771Y-116855952D01*
X206210771Y-116855952D02*
X206258390Y-116760714D01*
X206258390Y-116760714D02*
X206306009Y-116713095D01*
X206306009Y-116713095D02*
X206401247Y-116665476D01*
X206401247Y-116665476D02*
X206639342Y-116665476D01*
X206639342Y-116665476D02*
X206734580Y-116713095D01*
X206734580Y-116713095D02*
X206782200Y-116760714D01*
X206782200Y-116760714D02*
X206829819Y-116855952D01*
X206829819Y-116855952D02*
X206829819Y-117141666D01*
X206829819Y-117141666D02*
X206782200Y-117236904D01*
X206782200Y-117236904D02*
X206734580Y-117284523D01*
X174114619Y-82005466D02*
X173638428Y-82338799D01*
X174114619Y-82576894D02*
X173114619Y-82576894D01*
X173114619Y-82576894D02*
X173114619Y-82195942D01*
X173114619Y-82195942D02*
X173162238Y-82100704D01*
X173162238Y-82100704D02*
X173209857Y-82053085D01*
X173209857Y-82053085D02*
X173305095Y-82005466D01*
X173305095Y-82005466D02*
X173447952Y-82005466D01*
X173447952Y-82005466D02*
X173543190Y-82053085D01*
X173543190Y-82053085D02*
X173590809Y-82100704D01*
X173590809Y-82100704D02*
X173638428Y-82195942D01*
X173638428Y-82195942D02*
X173638428Y-82576894D01*
X173114619Y-81672132D02*
X173114619Y-81053085D01*
X173114619Y-81053085D02*
X173495571Y-81386418D01*
X173495571Y-81386418D02*
X173495571Y-81243561D01*
X173495571Y-81243561D02*
X173543190Y-81148323D01*
X173543190Y-81148323D02*
X173590809Y-81100704D01*
X173590809Y-81100704D02*
X173686047Y-81053085D01*
X173686047Y-81053085D02*
X173924142Y-81053085D01*
X173924142Y-81053085D02*
X174019380Y-81100704D01*
X174019380Y-81100704D02*
X174067000Y-81148323D01*
X174067000Y-81148323D02*
X174114619Y-81243561D01*
X174114619Y-81243561D02*
X174114619Y-81529275D01*
X174114619Y-81529275D02*
X174067000Y-81624513D01*
X174067000Y-81624513D02*
X174019380Y-81672132D01*
X159921676Y-76035819D02*
X160588342Y-77035819D01*
X160588342Y-76035819D02*
X159921676Y-77035819D01*
X161493104Y-77035819D02*
X160921676Y-77035819D01*
X161207390Y-77035819D02*
X161207390Y-76035819D01*
X161207390Y-76035819D02*
X161112152Y-76178676D01*
X161112152Y-76178676D02*
X161016914Y-76273914D01*
X161016914Y-76273914D02*
X160921676Y-76321533D01*
X171412819Y-118109904D02*
X172222342Y-118109904D01*
X172222342Y-118109904D02*
X172317580Y-118062285D01*
X172317580Y-118062285D02*
X172365200Y-118014666D01*
X172365200Y-118014666D02*
X172412819Y-117919428D01*
X172412819Y-117919428D02*
X172412819Y-117728952D01*
X172412819Y-117728952D02*
X172365200Y-117633714D01*
X172365200Y-117633714D02*
X172317580Y-117586095D01*
X172317580Y-117586095D02*
X172222342Y-117538476D01*
X172222342Y-117538476D02*
X171412819Y-117538476D01*
X171412819Y-116633714D02*
X171412819Y-116824190D01*
X171412819Y-116824190D02*
X171460438Y-116919428D01*
X171460438Y-116919428D02*
X171508057Y-116967047D01*
X171508057Y-116967047D02*
X171650914Y-117062285D01*
X171650914Y-117062285D02*
X171841390Y-117109904D01*
X171841390Y-117109904D02*
X172222342Y-117109904D01*
X172222342Y-117109904D02*
X172317580Y-117062285D01*
X172317580Y-117062285D02*
X172365200Y-117014666D01*
X172365200Y-117014666D02*
X172412819Y-116919428D01*
X172412819Y-116919428D02*
X172412819Y-116728952D01*
X172412819Y-116728952D02*
X172365200Y-116633714D01*
X172365200Y-116633714D02*
X172317580Y-116586095D01*
X172317580Y-116586095D02*
X172222342Y-116538476D01*
X172222342Y-116538476D02*
X171984247Y-116538476D01*
X171984247Y-116538476D02*
X171889009Y-116586095D01*
X171889009Y-116586095D02*
X171841390Y-116633714D01*
X171841390Y-116633714D02*
X171793771Y-116728952D01*
X171793771Y-116728952D02*
X171793771Y-116919428D01*
X171793771Y-116919428D02*
X171841390Y-117014666D01*
X171841390Y-117014666D02*
X171889009Y-117062285D01*
X171889009Y-117062285D02*
X171984247Y-117109904D01*
D10*
X174505000Y-77045000D02*
X192525000Y-77045000D01*
X192525000Y-77045000D02*
X192525000Y-71505000D01*
X174505000Y-75275000D02*
X174505000Y-77045000D01*
X174505000Y-71505000D02*
X174505000Y-73275000D01*
X192525000Y-71505000D02*
X174505000Y-71505000D01*
X174505000Y-75275000D02*
G75*
G03*
X174505000Y-73275000I0J1000000D01*
G01*
X177205000Y-48225000D02*
X177205000Y-54645000D01*
X176875000Y-48225000D02*
X177205000Y-48225000D01*
X174915000Y-48225000D02*
X174585000Y-48225000D01*
X174585000Y-48225000D02*
X174585000Y-54645000D01*
X177205000Y-54645000D02*
X176875000Y-54645000D01*
X174585000Y-54645000D02*
X174915000Y-54645000D01*
X205790000Y-83225000D02*
X199370000Y-83225000D01*
X205790000Y-82895000D02*
X205790000Y-83225000D01*
X205790000Y-80935000D02*
X205790000Y-80605000D01*
X205790000Y-80605000D02*
X199370000Y-80605000D01*
X199370000Y-83225000D02*
X199370000Y-82895000D01*
X199370000Y-80605000D02*
X199370000Y-80935000D01*
X158285000Y-123955000D02*
X158285000Y-121155000D01*
X158285000Y-121155000D02*
X135085000Y-121155000D01*
X155575000Y-123955000D02*
X155575000Y-121155000D01*
X135085000Y-123955000D02*
X158285000Y-123955000D01*
X135085000Y-121155000D02*
X135085000Y-123955000D01*
X194825000Y-77045000D02*
X215385000Y-77045000D01*
X215385000Y-77045000D02*
X215385000Y-71505000D01*
X194825000Y-75275000D02*
X194825000Y-77045000D01*
X194825000Y-71505000D02*
X194825000Y-73275000D01*
X215385000Y-71505000D02*
X194825000Y-71505000D01*
X194825000Y-75275000D02*
G75*
G03*
X194825000Y-73275000I0J1000000D01*
G01*
X166335000Y-48820000D02*
X166335000Y-50820000D01*
X166835000Y-52070000D02*
X170835000Y-52070000D01*
X170835000Y-47570000D02*
X166835000Y-47570000D01*
X171335000Y-50820000D02*
X171335000Y-48820000D01*
D13*
X179691000Y-47495000D02*
X180291000Y-47495000D01*
X179991000Y-47195000D02*
X179991000Y-47795000D01*
X181591000Y-47495000D02*
X182391000Y-47495000D01*
X183491000Y-48895000D02*
G75*
G03*
X183491000Y-48895000I-2500000J0D01*
G01*
D10*
X128715000Y-80505000D02*
X128715000Y-83305000D01*
X128715000Y-83305000D02*
X149375000Y-83305000D01*
X131425000Y-80505000D02*
X131425000Y-83305000D01*
X149375000Y-80505000D02*
X128715000Y-80505000D01*
X149375000Y-83305000D02*
X149375000Y-80505000D01*
X182775000Y-52437500D02*
X179175000Y-52437500D01*
X180975000Y-56887499D02*
G75*
G03*
X183331399Y-55386307I0J2599999D01*
G01*
X183299183Y-53164705D02*
G75*
G03*
X182774999Y-52437501I-2324183J-1122795D01*
G01*
X178618600Y-55386307D02*
G75*
G03*
X180975000Y-56887500I2356400J1098807D01*
G01*
X179175001Y-52437501D02*
G75*
G03*
X178650817Y-53164705I1799999J-1849999D01*
G01*
X195615000Y-83225000D02*
X189195000Y-83225000D01*
X195615000Y-82895000D02*
X195615000Y-83225000D01*
X195615000Y-80935000D02*
X195615000Y-80605000D01*
X195615000Y-80605000D02*
X189195000Y-80605000D01*
X189195000Y-83225000D02*
X189195000Y-82895000D01*
X189195000Y-80605000D02*
X189195000Y-80935000D01*
X137415000Y-54202071D02*
X137415000Y-53805000D01*
X138175000Y-54202071D02*
X138175000Y-53805000D01*
X139955000Y-54202071D02*
X139955000Y-53805000D01*
X140715000Y-54202071D02*
X140715000Y-53805000D01*
X142495000Y-54202071D02*
X142495000Y-53805000D01*
X143255000Y-54202071D02*
X143255000Y-53805000D01*
X134875000Y-54135000D02*
X134875000Y-53805000D01*
X135635000Y-54135000D02*
X135635000Y-53805000D01*
X133925000Y-53805000D02*
X144205000Y-53805000D01*
X136525000Y-53805000D02*
X136525000Y-51145000D01*
X139065000Y-53805000D02*
X139065000Y-51145000D01*
X141605000Y-53805000D02*
X141605000Y-51145000D01*
X144205000Y-53805000D02*
X144205000Y-51145000D01*
X133925000Y-51145000D02*
X133925000Y-53805000D01*
X144205000Y-51145000D02*
X133925000Y-51145000D01*
X174505000Y-65605000D02*
X192525000Y-65605000D01*
X192525000Y-65605000D02*
X192525000Y-60065000D01*
X174505000Y-63835000D02*
X174505000Y-65605000D01*
X174505000Y-60065000D02*
X174505000Y-61835000D01*
X192525000Y-60065000D02*
X174505000Y-60065000D01*
X174505000Y-63835000D02*
G75*
G03*
X174505000Y-61835000I0J1000000D01*
G01*
X192445000Y-50185000D02*
X192131000Y-50185000D01*
X192445000Y-50185000D02*
X192445000Y-55305000D01*
X190139000Y-50185000D02*
X189825000Y-50185000D01*
X189825000Y-50185000D02*
X189825000Y-55305000D01*
X192445000Y-55305000D02*
X192131000Y-55305000D01*
X190139000Y-55305000D02*
X189825000Y-55305000D01*
X197365000Y-92295000D02*
X215385000Y-92295000D01*
X215385000Y-92295000D02*
X215385000Y-86755000D01*
X197365000Y-90525000D02*
X197365000Y-92295000D01*
X197365000Y-86755000D02*
X197365000Y-88525000D01*
X215385000Y-86755000D02*
X197365000Y-86755000D01*
X197365000Y-90525000D02*
G75*
G03*
X197365000Y-88525000I0J1000000D01*
G01*
X151645000Y-65635000D02*
X169665000Y-65635000D01*
X169665000Y-65635000D02*
X169665000Y-60095000D01*
X151645000Y-63865000D02*
X151645000Y-65635000D01*
X151645000Y-60095000D02*
X151645000Y-61865000D01*
X169665000Y-60095000D02*
X151645000Y-60095000D01*
X151645000Y-63865000D02*
G75*
G03*
X151645000Y-61865000I0J1000000D01*
G01*
X198375000Y-54202071D02*
X198375000Y-53805000D01*
X199135000Y-54202071D02*
X199135000Y-53805000D01*
X200915000Y-54202071D02*
X200915000Y-53805000D01*
X201675000Y-54202071D02*
X201675000Y-53805000D01*
X203455000Y-54202071D02*
X203455000Y-53805000D01*
X204215000Y-54202071D02*
X204215000Y-53805000D01*
X205995000Y-54202071D02*
X205995000Y-53805000D01*
X206755000Y-54202071D02*
X206755000Y-53805000D01*
X208535000Y-54202071D02*
X208535000Y-53805000D01*
X209295000Y-54202071D02*
X209295000Y-53805000D01*
X195835000Y-54135000D02*
X195835000Y-53805000D01*
X196595000Y-54135000D02*
X196595000Y-53805000D01*
X194885000Y-53805000D02*
X210245000Y-53805000D01*
X197485000Y-53805000D02*
X197485000Y-51145000D01*
X200025000Y-53805000D02*
X200025000Y-51145000D01*
X202565000Y-53805000D02*
X202565000Y-51145000D01*
X205105000Y-53805000D02*
X205105000Y-51145000D01*
X207645000Y-53805000D02*
X207645000Y-51145000D01*
X210245000Y-53805000D02*
X210245000Y-51145000D01*
X194885000Y-51145000D02*
X194885000Y-53805000D01*
X210245000Y-51145000D02*
X194885000Y-51145000D01*
X186055000Y-54265000D02*
X186055000Y-53495000D01*
X184995000Y-53495000D02*
X187115000Y-53495000D01*
X187115000Y-53495000D02*
X187115000Y-49375000D01*
X184995000Y-52835000D02*
X187115000Y-52835000D01*
X184995000Y-49375000D02*
X184995000Y-53495000D01*
X187115000Y-49375000D02*
X184995000Y-49375000D01*
X186055000Y-48605000D02*
X186055000Y-49375000D01*
X151645000Y-54205000D02*
X162045000Y-54205000D01*
X162045000Y-54205000D02*
X162045000Y-48665000D01*
X151645000Y-52435000D02*
X151645000Y-54205000D01*
X151645000Y-48665000D02*
X151645000Y-50435000D01*
X162045000Y-48665000D02*
X151645000Y-48665000D01*
X151645000Y-52435000D02*
G75*
G03*
X151645000Y-50435000I0J1000000D01*
G01*
X180745000Y-97025000D02*
X180745000Y-122665000D01*
X180745000Y-122665000D02*
X186285000Y-122665000D01*
X182515000Y-97025000D02*
X180745000Y-97025000D01*
X186285000Y-97025000D02*
X184515000Y-97025000D01*
X186285000Y-122665000D02*
X186285000Y-97025000D01*
X182515000Y-97025000D02*
G75*
G03*
X184515000Y-97025000I1000000J0D01*
G01*
X131215000Y-84335000D02*
X131215000Y-120135000D01*
X131215000Y-120135000D02*
X144375000Y-120135000D01*
X136795000Y-84335000D02*
X131215000Y-84335000D01*
X144375000Y-84335000D02*
X138795000Y-84335000D01*
X144375000Y-120135000D02*
X144375000Y-84335000D01*
X136795000Y-84335000D02*
G75*
G03*
X138795000Y-84335000I1000000J0D01*
G01*
X212685000Y-118805000D02*
X212999000Y-118805000D01*
X212685000Y-118805000D02*
X212685000Y-113685000D01*
X214991000Y-118805000D02*
X215305000Y-118805000D01*
X215305000Y-118805000D02*
X215305000Y-113685000D01*
X212685000Y-113685000D02*
X212999000Y-113685000D01*
X214991000Y-113685000D02*
X215305000Y-113685000D01*
X192175000Y-97025000D02*
X192175000Y-122665000D01*
X192175000Y-122665000D02*
X197715000Y-122665000D01*
X193945000Y-97025000D02*
X192175000Y-97025000D01*
X197715000Y-97025000D02*
X195945000Y-97025000D01*
X197715000Y-122665000D02*
X197715000Y-97025000D01*
X193945000Y-97025000D02*
G75*
G03*
X195945000Y-97025000I1000000J0D01*
G01*
X131305000Y-65625000D02*
X149325000Y-65625000D01*
X149325000Y-65625000D02*
X149325000Y-60085000D01*
X131305000Y-63855000D02*
X131305000Y-65625000D01*
X131305000Y-60085000D02*
X131305000Y-61855000D01*
X149325000Y-60085000D02*
X131305000Y-60085000D01*
X131305000Y-63855000D02*
G75*
G03*
X131305000Y-61855000I0J1000000D01*
G01*
X214055000Y-83225000D02*
X214055000Y-82911000D01*
X214055000Y-83225000D02*
X208935000Y-83225000D01*
X214055000Y-80919000D02*
X214055000Y-80605000D01*
X214055000Y-80605000D02*
X208935000Y-80605000D01*
X208935000Y-83225000D02*
X208935000Y-82911000D01*
X208935000Y-80919000D02*
X208935000Y-80605000D01*
X128765000Y-77055000D02*
X149325000Y-77055000D01*
X149325000Y-77055000D02*
X149325000Y-71515000D01*
X128765000Y-75285000D02*
X128765000Y-77055000D01*
X128765000Y-71515000D02*
X128765000Y-73285000D01*
X149325000Y-71515000D02*
X128765000Y-71515000D01*
X128765000Y-75285000D02*
G75*
G03*
X128765000Y-73285000I0J1000000D01*
G01*
X188595000Y-54345000D02*
X188595000Y-53575000D01*
X187535000Y-53575000D02*
X189655000Y-53575000D01*
X189655000Y-53575000D02*
X189655000Y-49455000D01*
X187535000Y-52915000D02*
X189655000Y-52915000D01*
X187535000Y-49455000D02*
X187535000Y-53575000D01*
X189655000Y-49455000D02*
X187535000Y-49455000D01*
X188595000Y-48685000D02*
X188595000Y-49455000D01*
X170775000Y-65465000D02*
X171089000Y-65465000D01*
X170775000Y-65465000D02*
X170775000Y-60345000D01*
X173081000Y-65465000D02*
X173395000Y-65465000D01*
X173395000Y-65465000D02*
X173395000Y-60345000D01*
X170775000Y-60345000D02*
X171089000Y-60345000D01*
X173081000Y-60345000D02*
X173395000Y-60345000D01*
X193635000Y-92135000D02*
X193949000Y-92135000D01*
X193635000Y-92135000D02*
X193635000Y-87015000D01*
X195941000Y-92135000D02*
X196255000Y-92135000D01*
X196255000Y-92135000D02*
X196255000Y-87015000D01*
X193635000Y-87015000D02*
X193949000Y-87015000D01*
X195941000Y-87015000D02*
X196255000Y-87015000D01*
X194825000Y-65615000D02*
X215385000Y-65615000D01*
X215385000Y-65615000D02*
X215385000Y-60075000D01*
X194825000Y-63845000D02*
X194825000Y-65615000D01*
X194825000Y-60075000D02*
X194825000Y-61845000D01*
X215385000Y-60075000D02*
X194825000Y-60075000D01*
X194825000Y-63845000D02*
G75*
G03*
X194825000Y-61845000I0J1000000D01*
G01*
X147835000Y-84325000D02*
X147835000Y-120125000D01*
X147835000Y-120125000D02*
X165855000Y-120125000D01*
X150265000Y-84325000D02*
X150265000Y-120125000D01*
X150265000Y-120125000D02*
X163425000Y-120125000D01*
X155845000Y-84325000D02*
X150265000Y-84325000D01*
X163425000Y-84325000D02*
X157845000Y-84325000D01*
X163425000Y-120125000D02*
X163425000Y-84325000D01*
X165855000Y-84325000D02*
X147835000Y-84325000D01*
X165855000Y-120125000D02*
X165855000Y-84325000D01*
X155845000Y-84325000D02*
G75*
G03*
X157845000Y-84325000I1000000J0D01*
G01*
X166885000Y-92305000D02*
X192525000Y-92305000D01*
X192525000Y-92305000D02*
X192525000Y-86765000D01*
X166885000Y-90535000D02*
X166885000Y-92305000D01*
X166885000Y-86765000D02*
X166885000Y-88535000D01*
X192525000Y-86765000D02*
X166885000Y-86765000D01*
X166885000Y-90535000D02*
G75*
G03*
X166885000Y-88535000I0J1000000D01*
G01*
X170470000Y-56481000D02*
X170470000Y-56325000D01*
X170470000Y-54165000D02*
X170470000Y-54009000D01*
X167237666Y-56323608D02*
G75*
G03*
X170469999Y-56480515I1672334J1078608D01*
G01*
X167868871Y-56324836D02*
G75*
G03*
X169950960Y-56324999I1041129J1079836D01*
G01*
X169950960Y-54165001D02*
G75*
G03*
X167868871Y-54165164I-1040960J-1079999D01*
G01*
X170469999Y-54009485D02*
G75*
G03*
X167237666Y-54166392I-1559999J-1235515D01*
G01*
X213995000Y-99405000D02*
X213995000Y-100175000D01*
X215055000Y-100175000D02*
X212935000Y-100175000D01*
X212935000Y-100175000D02*
X212935000Y-104295000D01*
X215055000Y-100835000D02*
X212935000Y-100835000D01*
X215055000Y-104295000D02*
X215055000Y-100175000D01*
X212935000Y-104295000D02*
X215055000Y-104295000D01*
X213995000Y-105065000D02*
X213995000Y-104295000D01*
X149265000Y-48225000D02*
X149265000Y-54645000D01*
X148935000Y-48225000D02*
X149265000Y-48225000D01*
X146975000Y-48225000D02*
X146645000Y-48225000D01*
X146645000Y-48225000D02*
X146645000Y-54645000D01*
X149265000Y-54645000D02*
X148935000Y-54645000D01*
X146645000Y-54645000D02*
X146975000Y-54645000D01*
X159365000Y-121245000D02*
X159365000Y-121559000D01*
X159365000Y-121245000D02*
X164485000Y-121245000D01*
X159365000Y-123551000D02*
X159365000Y-123865000D01*
X159365000Y-123865000D02*
X164485000Y-123865000D01*
X164485000Y-121245000D02*
X164485000Y-121559000D01*
X164485000Y-123551000D02*
X164485000Y-123865000D01*
X128547500Y-65465000D02*
X128861500Y-65465000D01*
X128547500Y-65465000D02*
X128547500Y-60345000D01*
X130853500Y-65465000D02*
X131167500Y-65465000D01*
X131167500Y-65465000D02*
X131167500Y-60345000D01*
X128547500Y-60345000D02*
X128861500Y-60345000D01*
X130853500Y-60345000D02*
X131167500Y-60345000D01*
X203605000Y-97025000D02*
X203605000Y-122665000D01*
X203605000Y-122665000D02*
X209145000Y-122665000D01*
X205375000Y-97025000D02*
X203605000Y-97025000D01*
X209145000Y-97025000D02*
X207375000Y-97025000D01*
X209145000Y-122665000D02*
X209145000Y-97025000D01*
X205375000Y-97025000D02*
G75*
G03*
X207375000Y-97025000I1000000J0D01*
G01*
X174455000Y-80515000D02*
X174455000Y-83315000D01*
X174455000Y-83315000D02*
X187495000Y-83315000D01*
X177165000Y-80515000D02*
X177165000Y-83315000D01*
X187495000Y-80515000D02*
X174455000Y-80515000D01*
X187495000Y-83315000D02*
X187495000Y-80515000D01*
X151455000Y-70500000D02*
X151455000Y-82650000D01*
X151455000Y-82650000D02*
X171605000Y-82650000D01*
X159025000Y-70500000D02*
X159025000Y-82650000D01*
X171605000Y-69750000D02*
X152205000Y-69750000D01*
X172355000Y-81900000D02*
X172355000Y-70500000D01*
X152205000Y-69750000D02*
G75*
G03*
X151455000Y-70500000I0J-750000D01*
G01*
X159775000Y-69750000D02*
G75*
G03*
X159025000Y-70500000I0J-750000D01*
G01*
X172355000Y-70500000D02*
G75*
G03*
X171605000Y-69750000I-750000J0D01*
G01*
X171605000Y-82650000D02*
G75*
G03*
X172355000Y-81900000I0J750000D01*
G01*
X169315000Y-97025000D02*
X169315000Y-122665000D01*
X169315000Y-122665000D02*
X174855000Y-122665000D01*
X171085000Y-97025000D02*
X169315000Y-97025000D01*
X174855000Y-97025000D02*
X173085000Y-97025000D01*
X174855000Y-122665000D02*
X174855000Y-97025000D01*
X171085000Y-97025000D02*
G75*
G03*
X173085000Y-97025000I1000000J0D01*
G01*
M02*
