M48
; DRILL file {KiCad 7.0.9} date Mi 22 Nov 2023 19:56:08 CET
; FORMAT={-:-/ absolute / inch / decimal}
; #@! TF.CreationDate,2023-11-22T19:56:08+01:00
; #@! TF.GenerationSoftware,Kicad,Pcbnew,7.0.9
; #@! TF.FileFunction,Plated,1,2,PTH
FMAT,2
INCH
; #@! TA.AperFunction,Plated,PTH,ViaDrill
T1C0.0157
; #@! TA.AperFunction,Plated,PTH,ViaDrill
T2C0.0197
; #@! TA.AperFunction,Plated,PTH,ComponentDrill
T3C0.0315
; #@! TA.AperFunction,Plated,PTH,ComponentDrill
T4C0.0354
; #@! TA.AperFunction,Plated,PTH,ComponentDrill
T5C0.0394
; #@! TA.AperFunction,Plated,PTH,ComponentDrill
T6C0.0433
%
G90
G05
T1
X5.265Y-2.7206
X5.2822Y-4.265
X5.335Y-3.295
X5.3692Y-3.0146
X5.375Y-4.405
X5.375Y-4.693
X5.4183Y-3.93
X5.445Y-4.18
X5.4705Y-2.9093
X5.4705Y-2.99
X5.474Y-2.808
X5.475Y-4.692
X5.479Y-2.488
X5.485Y-3.295
X5.546Y-2.553
X5.595Y-4.5185
X5.62Y-2.908
X5.62Y-2.9956
X5.628Y-2.446
X5.645Y-4.076
X5.658Y-4.013
X5.751Y-2.482
X5.797Y-4.674
X5.875Y-2.806
X5.92Y-2.775
X5.938Y-4.4311
X5.944Y-4.654
X5.965Y-2.343
X5.965Y-2.513
X5.965Y-3.793
X5.997Y-4.586
X5.999Y-4.4736
X6.005Y-2.085
X6.012Y-3.927
X6.013Y-3.453
X6.035Y-2.055
X6.045Y-4.589
X6.102Y-3.525
X6.1342Y-2.7298
X6.15Y-4.69
X6.153Y-2.925
X6.159Y-3.905
X6.16Y-4.3311
X6.161Y-4.245
X6.173Y-4.0176
X6.174Y-2.694
X6.18Y-4.73
X6.185Y-3.0133
X6.193Y-3.429
X6.206Y-4.0906
X6.2133Y-2.96
X6.222Y-4.1479
X6.224Y-3.8746
X6.23Y-3.23
X6.234Y-2.704
X6.2445Y-3.4975
X6.249Y-4.0906
X6.252Y-3.314
X6.256Y-3.061
X6.259Y-3.923
X6.274Y-4.2044
X6.275Y-2.501
X6.286Y-4.272
X6.286Y-4.324
X6.3033Y-3.778
X6.304Y-3.423
X6.305Y-3.596
X6.317Y-4.5566
X6.318Y-4.0816
X6.32Y-3.6786
X6.32Y-4.0066
X6.32Y-4.4856
X6.32Y-4.69
X6.323Y-4.396
X6.326Y-3.9266
X6.337Y-2.697
X6.337Y-3.238
X6.383Y-2.249
X6.39Y-2.201
X6.4227Y-3.507
X6.4227Y-3.9296
X6.4227Y-4.0286
X6.4227Y-4.3016
X6.4227Y-4.4016
X6.4227Y-4.5976
X6.429Y-4.1216
X6.429Y-4.2096
X6.431Y-4.5226
X6.435Y-2.934
X6.551Y-3.31
X6.56Y-3.8206
X6.572Y-4.6396
X6.636Y-2.4417
X6.687Y-3.7508
X6.69Y-4.0156
X6.69Y-4.0636
X6.707Y-2.698
X6.7162Y-3.9746
X6.723Y-3.005
X6.729Y-4.089
X6.7935Y-3.3225
X6.795Y-3.7836
X6.8118Y-3.5922
X6.821Y-4.0888
X6.8282Y-3.8256
X6.8384Y-3.5644
X6.844Y-4.7546
X6.8662Y-3.7365
X6.871Y-2.942
X6.872Y-3.805
X6.892Y-1.99
X6.93Y-2.553
X6.936Y-3.437
X6.9433Y-2.11
X6.994Y-3.8556
X6.996Y-4.005
X7.003Y-2.9127
X7.015Y-4.2156
X7.016Y-4.1016
X7.018Y-3.567
X7.023Y-3.461
X7.0287Y-4.3226
X7.0295Y-3.1595
X7.058Y-3.4258
X7.074Y-3.633
X7.092Y-3.461
X7.096Y-2.442
X7.119Y-4.523
X7.141Y-3.901
X7.153Y-2.4813
X7.16Y-4.6696
X7.161Y-4.3746
X7.172Y-3.445
X7.174Y-2.2887
X7.175Y-2.738
X7.2048Y-3.845
X7.212Y-2.4587
X7.212Y-3.613
X7.2408Y-3.46
X7.2433Y-4.183
X7.2504Y-2.211
X7.2583Y-3.844
X7.2636Y-4.5236
X7.27Y-3.305
X7.295Y-3.989
X7.313Y-4.062
X7.315Y-4.187
X7.321Y-4.4983
X7.322Y-4.603
X7.325Y-1.98
X7.328Y-3.935
X7.331Y-3.434
X7.331Y-3.567
X7.334Y-2.9533
X7.375Y-2.738
X7.4193Y-4.0118
X7.426Y-2.8937
X7.4368Y-4.0479
X7.4395Y-3.6115
X7.4558Y-4.0816
X7.489Y-4.6226
X7.499Y-3.134
X7.504Y-3.273
X7.512Y-2.948
X7.528Y-3.4459
X7.582Y-2.212
X7.583Y-3.925
X7.586Y-4.7286
X7.594Y-2.897
X7.596Y-3.968
X7.6147Y-4.3009
X7.62Y-3.124
X7.6223Y-4.5771
X7.6277Y-3.9923
X7.631Y-4.263
X7.633Y-3.358
X7.634Y-3.2007
X7.6367Y-3.903
X7.6757Y-4.6013
X7.676Y-4.6606
X7.7073Y-3.9026
X7.716Y-3.001
X7.716Y-3.9446
X7.7187Y-4.3676
X7.74Y-3.2993
X7.746Y-4.443
X7.7481Y-3.9967
X7.7633Y-3.853
X7.766Y-4.568
X7.769Y-4.411
X7.7773Y-3.744
X7.845Y-2.684
X7.877Y-3.947
X7.882Y-3.497
X7.969Y-3.745
X7.974Y-2.692
X8.007Y-2.861
X8.065Y-3.5
X8.077Y-4.123
X8.092Y-3.96
X8.093Y-3.89
X8.096Y-4.423
X8.125Y-3.448
X8.165Y-4.526
X8.167Y-4.625
X8.174Y-3.284
X8.201Y-3.952
X8.203Y-2.427
X8.277Y-2.822
X8.3483Y-2.949
X8.351Y-4.124
X8.365Y-3.138
T2
X5.424Y-2.553
X5.958Y-3.061
X6.102Y-3.4406
X6.821Y-3.001
X7.204Y-3.927
X7.61Y-2.553
X7.876Y-2.942
X8.22Y-2.938
X8.31Y-2.553
T3
X5.1125Y-2.3781
X5.1125Y-2.575
X5.1242Y-2.7746
X5.1242Y-3.0746
X5.1242Y-3.2246
X5.125Y-3.375
X5.125Y-3.475
X5.125Y-3.575
X5.125Y-3.675
X5.125Y-3.775
X5.125Y-3.875
X5.125Y-3.975
X5.125Y-4.075
X5.125Y-4.175
X5.125Y-4.275
X5.125Y-4.375
X5.125Y-4.475
X5.125Y-4.575
X5.125Y-4.675
X5.2242Y-2.3246
X5.2242Y-2.6246
X5.2242Y-2.7746
X5.2242Y-3.0746
X5.2242Y-3.2246
X5.3242Y-2.3246
X5.3242Y-2.6246
X5.3242Y-2.7746
X5.3242Y-3.0746
X5.3242Y-3.2246
X5.375Y-4.825
X5.4242Y-2.3246
X5.4242Y-2.6246
X5.4242Y-2.7746
X5.4242Y-3.0746
X5.4242Y-3.2246
X5.475Y-4.825
X5.5242Y-2.3246
X5.5242Y-2.6246
X5.5242Y-2.7746
X5.5242Y-3.0746
X5.5242Y-3.2246
X5.575Y-4.825
X5.6242Y-2.3246
X5.6242Y-2.6246
X5.6242Y-2.7746
X5.6242Y-3.0746
X5.6242Y-3.2246
X5.675Y-4.825
X5.7242Y-2.3246
X5.7242Y-2.6246
X5.7242Y-2.7746
X5.7242Y-3.0746
X5.7242Y-3.2246
X5.725Y-3.375
X5.725Y-3.475
X5.725Y-3.575
X5.725Y-3.675
X5.725Y-3.775
X5.725Y-3.875
X5.725Y-3.975
X5.725Y-4.075
X5.725Y-4.175
X5.725Y-4.275
X5.725Y-4.375
X5.725Y-4.475
X5.725Y-4.575
X5.725Y-4.675
X5.775Y-4.825
X5.8242Y-2.3246
X5.8242Y-2.6246
X5.8242Y-2.7746
X5.8242Y-3.0746
X5.8242Y-3.2246
X5.825Y-1.875
X5.825Y-2.175
X5.875Y-3.3746
X5.875Y-3.4746
X5.875Y-3.5746
X5.875Y-3.6746
X5.875Y-3.7746
X5.875Y-3.8746
X5.875Y-3.9746
X5.875Y-4.0746
X5.875Y-4.1746
X5.875Y-4.2746
X5.875Y-4.3746
X5.875Y-4.4746
X5.875Y-4.5746
X5.875Y-4.6746
X5.875Y-4.825
X5.975Y-4.825
X6.025Y-1.875
X6.025Y-2.175
X6.025Y-2.325
X6.025Y-2.625
X6.075Y-4.825
X6.125Y-1.875
X6.125Y-2.175
X6.125Y-2.325
X6.125Y-2.625
X6.175Y-4.825
X6.225Y-1.875
X6.225Y-2.175
X6.225Y-2.325
X6.225Y-2.625
X6.2766Y-4.825
X6.325Y-1.875
X6.325Y-2.175
X6.325Y-2.325
X6.325Y-2.625
X6.425Y-2.325
X6.425Y-2.625
X6.4734Y-4.825
X6.475Y-3.3746
X6.475Y-3.4746
X6.475Y-3.5746
X6.475Y-3.6746
X6.475Y-3.7746
X6.475Y-3.8746
X6.475Y-3.9746
X6.475Y-4.0746
X6.475Y-4.1746
X6.475Y-4.2746
X6.475Y-4.3746
X6.475Y-4.4746
X6.475Y-4.5746
X6.475Y-4.6746
X6.525Y-2.325
X6.525Y-2.625
X6.625Y-2.325
X6.625Y-2.625
X6.625Y-3.375
X6.625Y-3.675
X6.625Y-3.8746
X6.625Y-3.9746
X6.625Y-4.0746
X6.625Y-4.1746
X6.625Y-4.2746
X6.625Y-4.3746
X6.625Y-4.4746
X6.625Y-4.5746
X6.625Y-4.6746
X6.625Y-4.7746
X6.725Y-3.375
X6.725Y-3.675
X6.775Y-2.3781
X6.775Y-2.575
X6.825Y-3.375
X6.825Y-3.675
X6.925Y-1.875
X6.925Y-2.175
X6.925Y-2.3238
X6.925Y-2.6238
X6.925Y-2.7742
X6.925Y-3.0742
X6.925Y-3.225
X6.925Y-3.375
X6.925Y-3.675
X6.925Y-3.8746
X6.925Y-3.9746
X6.925Y-4.0746
X6.925Y-4.1746
X6.925Y-4.2746
X6.925Y-4.3746
X6.925Y-4.4746
X6.925Y-4.5746
X6.925Y-4.6746
X6.925Y-4.7746
X7.025Y-2.1373
X7.025Y-2.3238
X7.025Y-2.6238
X7.025Y-2.7742
X7.025Y-3.0742
X7.025Y-3.225
X7.025Y-3.375
X7.025Y-3.675
X7.075Y-3.8746
X7.075Y-3.9746
X7.075Y-4.0746
X7.075Y-4.1746
X7.075Y-4.2746
X7.075Y-4.3746
X7.075Y-4.4746
X7.075Y-4.5746
X7.075Y-4.6746
X7.075Y-4.7746
X7.0863Y-1.925
X7.125Y-2.1373
X7.125Y-2.3238
X7.125Y-2.6238
X7.125Y-2.7742
X7.125Y-3.0742
X7.125Y-3.225
X7.125Y-3.375
X7.125Y-3.675
X7.165Y-1.925
X7.225Y-2.1373
X7.225Y-2.3238
X7.225Y-2.6238
X7.225Y-2.7742
X7.225Y-3.0742
X7.225Y-3.225
X7.225Y-3.375
X7.225Y-3.675
X7.325Y-1.875
X7.325Y-2.175
X7.325Y-2.3238
X7.325Y-2.6238
X7.325Y-2.7742
X7.325Y-3.0742
X7.325Y-3.225
X7.325Y-3.375
X7.325Y-3.675
X7.375Y-3.8746
X7.375Y-3.9746
X7.375Y-4.0746
X7.375Y-4.1746
X7.375Y-4.2746
X7.375Y-4.3746
X7.375Y-4.4746
X7.375Y-4.5746
X7.375Y-4.6746
X7.375Y-4.7746
X7.425Y-1.8781
X7.425Y-2.1781
X7.425Y-2.3238
X7.425Y-2.6238
X7.425Y-2.7742
X7.425Y-3.0742
X7.425Y-3.225
X7.425Y-3.375
X7.425Y-3.675
X7.525Y-1.9781
X7.525Y-2.175
X7.525Y-2.3238
X7.525Y-2.6238
X7.525Y-2.7742
X7.525Y-3.0742
X7.525Y-3.375
X7.525Y-3.675
X7.525Y-3.8746
X7.525Y-3.9746
X7.525Y-4.0746
X7.525Y-4.1746
X7.525Y-4.2746
X7.525Y-4.3746
X7.525Y-4.4746
X7.525Y-4.5746
X7.525Y-4.6746
X7.525Y-4.7746
X7.675Y-3.4281
X7.675Y-3.625
X7.725Y-2.3242
X7.725Y-2.6242
X7.725Y-2.7742
X7.725Y-3.0742
X7.725Y-3.225
X7.825Y-2.3242
X7.825Y-2.6242
X7.825Y-2.7742
X7.825Y-3.0742
X7.825Y-3.3746
X7.825Y-3.6746
X7.825Y-3.8746
X7.825Y-3.9746
X7.825Y-4.0746
X7.825Y-4.1746
X7.825Y-4.2746
X7.825Y-4.3746
X7.825Y-4.4746
X7.825Y-4.5746
X7.825Y-4.6746
X7.825Y-4.7746
X7.8256Y-3.225
X7.925Y-2.3242
X7.925Y-2.6242
X7.925Y-2.7742
X7.925Y-3.0742
X7.925Y-3.3746
X7.925Y-3.6746
X7.975Y-3.8746
X7.975Y-3.9746
X7.975Y-4.0746
X7.975Y-4.1746
X7.975Y-4.2746
X7.975Y-4.3746
X7.975Y-4.4746
X7.975Y-4.5746
X7.975Y-4.6746
X7.975Y-4.7746
X8.025Y-2.3242
X8.025Y-2.6242
X8.025Y-2.7742
X8.025Y-3.0742
X8.025Y-3.3746
X8.025Y-3.6746
X8.125Y-2.3242
X8.125Y-2.6242
X8.125Y-2.7742
X8.125Y-3.0742
X8.125Y-3.3746
X8.125Y-3.6746
X8.1256Y-3.225
X8.225Y-2.3242
X8.225Y-2.6242
X8.225Y-2.7742
X8.225Y-3.0742
X8.225Y-3.3746
X8.225Y-3.6746
X8.2281Y-3.225
X8.275Y-3.8746
X8.275Y-3.9746
X8.275Y-4.0746
X8.275Y-4.1746
X8.275Y-4.2746
X8.275Y-4.3746
X8.275Y-4.4746
X8.275Y-4.5746
X8.275Y-4.6746
X8.275Y-4.7746
X8.325Y-2.3242
X8.325Y-2.6242
X8.325Y-2.7742
X8.325Y-3.0742
X8.325Y-3.3746
X8.325Y-3.6746
X8.425Y-2.3242
X8.425Y-2.6242
X8.425Y-2.7742
X8.425Y-3.0742
X8.425Y-3.225
X8.425Y-3.3746
X8.425Y-3.6746
X8.425Y-3.875
X8.425Y-4.175
X8.425Y-4.4781
X8.425Y-4.675
T4
X6.6Y-2.175
X6.7Y-2.175
T5
X5.325Y-2.175
X5.425Y-2.175
X5.525Y-2.175
X5.625Y-2.175
X6.0742Y-2.85
X6.0742Y-3.15
X6.3742Y-2.85
X6.3742Y-3.15
X6.6742Y-2.85
X6.6742Y-3.15
X7.725Y-2.175
X7.825Y-2.175
X7.925Y-2.175
X8.025Y-2.175
X8.125Y-2.175
X8.225Y-2.175
T6
X6.5191Y-1.8728
X6.5191Y-2.05
X6.775Y-1.8728
X6.775Y-2.05
T0
M30
