%TF.GenerationSoftware,KiCad,Pcbnew,7.0.9*%
%TF.CreationDate,2023-11-22T19:56:07+01:00*%
%TF.ProjectId,my4th-light,6d793474-682d-46c6-9967-68742e6b6963,rev?*%
%TF.SameCoordinates,Original*%
%TF.FileFunction,Drillmap*%
%TF.FilePolarity,Positive*%
%FSLAX45Y45*%
G04 Gerber Fmt 4.5, Leading zero omitted, Abs format (unit mm)*
G04 Created by KiCad (PCBNEW 7.0.9) date 2023-11-22 19:56:07*
%MOMM*%
%LPD*%
G01*
G04 APERTURE LIST*
%ADD10C,0.050000*%
%ADD11C,0.200000*%
%ADD12C,0.260000*%
G04 APERTURE END LIST*
D10*
X21600000Y-4400000D02*
X12800000Y-4400000D01*
X21600000Y-12700000D02*
X12800000Y-12700000D01*
X21700000Y-12600000D02*
X21700000Y-4500000D01*
X12700000Y-4500000D02*
X12700000Y-12600000D01*
X12800000Y-4400000D02*
X12700000Y-4500000D01*
X21600000Y-12700000D02*
X21700000Y-12600000D01*
X21600000Y-4400000D02*
X21700000Y-4500000D01*
X12700000Y-12600000D02*
X12800000Y-12700000D01*
D11*
D12*
X12870000Y-4570000D02*
X13130000Y-4830000D01*
X13130000Y-4570000D02*
X12870000Y-4830000D01*
X12870000Y-12270000D02*
X13130000Y-12530000D01*
X13130000Y-12270000D02*
X12870000Y-12530000D01*
X21270000Y-4570000D02*
X21530000Y-4830000D01*
X21530000Y-4570000D02*
X21270000Y-4830000D01*
X21270000Y-12270000D02*
X21530000Y-12530000D01*
X21530000Y-12270000D02*
X21270000Y-12530000D01*
D11*
X12958277Y-13013984D02*
X12958277Y-12813984D01*
X12958277Y-12813984D02*
X13005896Y-12813984D01*
X13005896Y-12813984D02*
X13034467Y-12823508D01*
X13034467Y-12823508D02*
X13053515Y-12842555D01*
X13053515Y-12842555D02*
X13063039Y-12861603D01*
X13063039Y-12861603D02*
X13072562Y-12899698D01*
X13072562Y-12899698D02*
X13072562Y-12928269D01*
X13072562Y-12928269D02*
X13063039Y-12966365D01*
X13063039Y-12966365D02*
X13053515Y-12985412D01*
X13053515Y-12985412D02*
X13034467Y-13004460D01*
X13034467Y-13004460D02*
X13005896Y-13013984D01*
X13005896Y-13013984D02*
X12958277Y-13013984D01*
X13158277Y-13013984D02*
X13158277Y-12880650D01*
X13158277Y-12918746D02*
X13167801Y-12899698D01*
X13167801Y-12899698D02*
X13177324Y-12890174D01*
X13177324Y-12890174D02*
X13196372Y-12880650D01*
X13196372Y-12880650D02*
X13215420Y-12880650D01*
X13282086Y-13013984D02*
X13282086Y-12880650D01*
X13282086Y-12813984D02*
X13272562Y-12823508D01*
X13272562Y-12823508D02*
X13282086Y-12833031D01*
X13282086Y-12833031D02*
X13291610Y-12823508D01*
X13291610Y-12823508D02*
X13282086Y-12813984D01*
X13282086Y-12813984D02*
X13282086Y-12833031D01*
X13405896Y-13013984D02*
X13386848Y-13004460D01*
X13386848Y-13004460D02*
X13377324Y-12985412D01*
X13377324Y-12985412D02*
X13377324Y-12813984D01*
X13510658Y-13013984D02*
X13491610Y-13004460D01*
X13491610Y-13004460D02*
X13482086Y-12985412D01*
X13482086Y-12985412D02*
X13482086Y-12813984D01*
X13739229Y-13013984D02*
X13739229Y-12813984D01*
X13739229Y-12813984D02*
X13805896Y-12956841D01*
X13805896Y-12956841D02*
X13872562Y-12813984D01*
X13872562Y-12813984D02*
X13872562Y-13013984D01*
X14053515Y-13013984D02*
X14053515Y-12909222D01*
X14053515Y-12909222D02*
X14043991Y-12890174D01*
X14043991Y-12890174D02*
X14024943Y-12880650D01*
X14024943Y-12880650D02*
X13986848Y-12880650D01*
X13986848Y-12880650D02*
X13967801Y-12890174D01*
X14053515Y-13004460D02*
X14034467Y-13013984D01*
X14034467Y-13013984D02*
X13986848Y-13013984D01*
X13986848Y-13013984D02*
X13967801Y-13004460D01*
X13967801Y-13004460D02*
X13958277Y-12985412D01*
X13958277Y-12985412D02*
X13958277Y-12966365D01*
X13958277Y-12966365D02*
X13967801Y-12947317D01*
X13967801Y-12947317D02*
X13986848Y-12937793D01*
X13986848Y-12937793D02*
X14034467Y-12937793D01*
X14034467Y-12937793D02*
X14053515Y-12928269D01*
X14148753Y-12880650D02*
X14148753Y-13080650D01*
X14148753Y-12890174D02*
X14167801Y-12880650D01*
X14167801Y-12880650D02*
X14205896Y-12880650D01*
X14205896Y-12880650D02*
X14224943Y-12890174D01*
X14224943Y-12890174D02*
X14234467Y-12899698D01*
X14234467Y-12899698D02*
X14243991Y-12918746D01*
X14243991Y-12918746D02*
X14243991Y-12975888D01*
X14243991Y-12975888D02*
X14234467Y-12994936D01*
X14234467Y-12994936D02*
X14224943Y-13004460D01*
X14224943Y-13004460D02*
X14205896Y-13013984D01*
X14205896Y-13013984D02*
X14167801Y-13013984D01*
X14167801Y-13013984D02*
X14148753Y-13004460D01*
X14329705Y-12994936D02*
X14339229Y-13004460D01*
X14339229Y-13004460D02*
X14329705Y-13013984D01*
X14329705Y-13013984D02*
X14320182Y-13004460D01*
X14320182Y-13004460D02*
X14329705Y-12994936D01*
X14329705Y-12994936D02*
X14329705Y-13013984D01*
X14329705Y-12890174D02*
X14339229Y-12899698D01*
X14339229Y-12899698D02*
X14329705Y-12909222D01*
X14329705Y-12909222D02*
X14320182Y-12899698D01*
X14320182Y-12899698D02*
X14329705Y-12890174D01*
X14329705Y-12890174D02*
X14329705Y-12909222D01*
X12497500Y-13242500D02*
X12697500Y-13442500D01*
X12697500Y-13242500D02*
X12497500Y-13442500D01*
X12948753Y-13253031D02*
X12958277Y-13243508D01*
X12958277Y-13243508D02*
X12977324Y-13233984D01*
X12977324Y-13233984D02*
X13024943Y-13233984D01*
X13024943Y-13233984D02*
X13043991Y-13243508D01*
X13043991Y-13243508D02*
X13053515Y-13253031D01*
X13053515Y-13253031D02*
X13063039Y-13272079D01*
X13063039Y-13272079D02*
X13063039Y-13291127D01*
X13063039Y-13291127D02*
X13053515Y-13319698D01*
X13053515Y-13319698D02*
X12939229Y-13433984D01*
X12939229Y-13433984D02*
X13063039Y-13433984D01*
X13148753Y-13414936D02*
X13158277Y-13424460D01*
X13158277Y-13424460D02*
X13148753Y-13433984D01*
X13148753Y-13433984D02*
X13139229Y-13424460D01*
X13139229Y-13424460D02*
X13148753Y-13414936D01*
X13148753Y-13414936D02*
X13148753Y-13433984D01*
X13329705Y-13233984D02*
X13291610Y-13233984D01*
X13291610Y-13233984D02*
X13272562Y-13243508D01*
X13272562Y-13243508D02*
X13263039Y-13253031D01*
X13263039Y-13253031D02*
X13243991Y-13281603D01*
X13243991Y-13281603D02*
X13234467Y-13319698D01*
X13234467Y-13319698D02*
X13234467Y-13395888D01*
X13234467Y-13395888D02*
X13243991Y-13414936D01*
X13243991Y-13414936D02*
X13253515Y-13424460D01*
X13253515Y-13424460D02*
X13272562Y-13433984D01*
X13272562Y-13433984D02*
X13310658Y-13433984D01*
X13310658Y-13433984D02*
X13329705Y-13424460D01*
X13329705Y-13424460D02*
X13339229Y-13414936D01*
X13339229Y-13414936D02*
X13348753Y-13395888D01*
X13348753Y-13395888D02*
X13348753Y-13348269D01*
X13348753Y-13348269D02*
X13339229Y-13329222D01*
X13339229Y-13329222D02*
X13329705Y-13319698D01*
X13329705Y-13319698D02*
X13310658Y-13310174D01*
X13310658Y-13310174D02*
X13272562Y-13310174D01*
X13272562Y-13310174D02*
X13253515Y-13319698D01*
X13253515Y-13319698D02*
X13243991Y-13329222D01*
X13243991Y-13329222D02*
X13234467Y-13348269D01*
X13472562Y-13233984D02*
X13491610Y-13233984D01*
X13491610Y-13233984D02*
X13510658Y-13243508D01*
X13510658Y-13243508D02*
X13520182Y-13253031D01*
X13520182Y-13253031D02*
X13529705Y-13272079D01*
X13529705Y-13272079D02*
X13539229Y-13310174D01*
X13539229Y-13310174D02*
X13539229Y-13357793D01*
X13539229Y-13357793D02*
X13529705Y-13395888D01*
X13529705Y-13395888D02*
X13520182Y-13414936D01*
X13520182Y-13414936D02*
X13510658Y-13424460D01*
X13510658Y-13424460D02*
X13491610Y-13433984D01*
X13491610Y-13433984D02*
X13472562Y-13433984D01*
X13472562Y-13433984D02*
X13453515Y-13424460D01*
X13453515Y-13424460D02*
X13443991Y-13414936D01*
X13443991Y-13414936D02*
X13434467Y-13395888D01*
X13434467Y-13395888D02*
X13424943Y-13357793D01*
X13424943Y-13357793D02*
X13424943Y-13310174D01*
X13424943Y-13310174D02*
X13434467Y-13272079D01*
X13434467Y-13272079D02*
X13443991Y-13253031D01*
X13443991Y-13253031D02*
X13453515Y-13243508D01*
X13453515Y-13243508D02*
X13472562Y-13233984D01*
X13663039Y-13233984D02*
X13682086Y-13233984D01*
X13682086Y-13233984D02*
X13701134Y-13243508D01*
X13701134Y-13243508D02*
X13710658Y-13253031D01*
X13710658Y-13253031D02*
X13720182Y-13272079D01*
X13720182Y-13272079D02*
X13729705Y-13310174D01*
X13729705Y-13310174D02*
X13729705Y-13357793D01*
X13729705Y-13357793D02*
X13720182Y-13395888D01*
X13720182Y-13395888D02*
X13710658Y-13414936D01*
X13710658Y-13414936D02*
X13701134Y-13424460D01*
X13701134Y-13424460D02*
X13682086Y-13433984D01*
X13682086Y-13433984D02*
X13663039Y-13433984D01*
X13663039Y-13433984D02*
X13643991Y-13424460D01*
X13643991Y-13424460D02*
X13634467Y-13414936D01*
X13634467Y-13414936D02*
X13624943Y-13395888D01*
X13624943Y-13395888D02*
X13615420Y-13357793D01*
X13615420Y-13357793D02*
X13615420Y-13310174D01*
X13615420Y-13310174D02*
X13624943Y-13272079D01*
X13624943Y-13272079D02*
X13634467Y-13253031D01*
X13634467Y-13253031D02*
X13643991Y-13243508D01*
X13643991Y-13243508D02*
X13663039Y-13233984D01*
X13815420Y-13433984D02*
X13815420Y-13300650D01*
X13815420Y-13319698D02*
X13824943Y-13310174D01*
X13824943Y-13310174D02*
X13843991Y-13300650D01*
X13843991Y-13300650D02*
X13872563Y-13300650D01*
X13872563Y-13300650D02*
X13891610Y-13310174D01*
X13891610Y-13310174D02*
X13901134Y-13329222D01*
X13901134Y-13329222D02*
X13901134Y-13433984D01*
X13901134Y-13329222D02*
X13910658Y-13310174D01*
X13910658Y-13310174D02*
X13929705Y-13300650D01*
X13929705Y-13300650D02*
X13958277Y-13300650D01*
X13958277Y-13300650D02*
X13977324Y-13310174D01*
X13977324Y-13310174D02*
X13986848Y-13329222D01*
X13986848Y-13329222D02*
X13986848Y-13433984D01*
X14082086Y-13433984D02*
X14082086Y-13300650D01*
X14082086Y-13319698D02*
X14091610Y-13310174D01*
X14091610Y-13310174D02*
X14110658Y-13300650D01*
X14110658Y-13300650D02*
X14139229Y-13300650D01*
X14139229Y-13300650D02*
X14158277Y-13310174D01*
X14158277Y-13310174D02*
X14167801Y-13329222D01*
X14167801Y-13329222D02*
X14167801Y-13433984D01*
X14167801Y-13329222D02*
X14177324Y-13310174D01*
X14177324Y-13310174D02*
X14196372Y-13300650D01*
X14196372Y-13300650D02*
X14224943Y-13300650D01*
X14224943Y-13300650D02*
X14243991Y-13310174D01*
X14243991Y-13310174D02*
X14253515Y-13329222D01*
X14253515Y-13329222D02*
X14253515Y-13433984D01*
X14643991Y-13224460D02*
X14472563Y-13481603D01*
X14901134Y-13233984D02*
X14920182Y-13233984D01*
X14920182Y-13233984D02*
X14939229Y-13243508D01*
X14939229Y-13243508D02*
X14948753Y-13253031D01*
X14948753Y-13253031D02*
X14958277Y-13272079D01*
X14958277Y-13272079D02*
X14967801Y-13310174D01*
X14967801Y-13310174D02*
X14967801Y-13357793D01*
X14967801Y-13357793D02*
X14958277Y-13395888D01*
X14958277Y-13395888D02*
X14948753Y-13414936D01*
X14948753Y-13414936D02*
X14939229Y-13424460D01*
X14939229Y-13424460D02*
X14920182Y-13433984D01*
X14920182Y-13433984D02*
X14901134Y-13433984D01*
X14901134Y-13433984D02*
X14882086Y-13424460D01*
X14882086Y-13424460D02*
X14872563Y-13414936D01*
X14872563Y-13414936D02*
X14863039Y-13395888D01*
X14863039Y-13395888D02*
X14853515Y-13357793D01*
X14853515Y-13357793D02*
X14853515Y-13310174D01*
X14853515Y-13310174D02*
X14863039Y-13272079D01*
X14863039Y-13272079D02*
X14872563Y-13253031D01*
X14872563Y-13253031D02*
X14882086Y-13243508D01*
X14882086Y-13243508D02*
X14901134Y-13233984D01*
X15053515Y-13414936D02*
X15063039Y-13424460D01*
X15063039Y-13424460D02*
X15053515Y-13433984D01*
X15053515Y-13433984D02*
X15043991Y-13424460D01*
X15043991Y-13424460D02*
X15053515Y-13414936D01*
X15053515Y-13414936D02*
X15053515Y-13433984D01*
X15253515Y-13433984D02*
X15139229Y-13433984D01*
X15196372Y-13433984D02*
X15196372Y-13233984D01*
X15196372Y-13233984D02*
X15177325Y-13262555D01*
X15177325Y-13262555D02*
X15158277Y-13281603D01*
X15158277Y-13281603D02*
X15139229Y-13291127D01*
X15377325Y-13233984D02*
X15396372Y-13233984D01*
X15396372Y-13233984D02*
X15415420Y-13243508D01*
X15415420Y-13243508D02*
X15424944Y-13253031D01*
X15424944Y-13253031D02*
X15434467Y-13272079D01*
X15434467Y-13272079D02*
X15443991Y-13310174D01*
X15443991Y-13310174D02*
X15443991Y-13357793D01*
X15443991Y-13357793D02*
X15434467Y-13395888D01*
X15434467Y-13395888D02*
X15424944Y-13414936D01*
X15424944Y-13414936D02*
X15415420Y-13424460D01*
X15415420Y-13424460D02*
X15396372Y-13433984D01*
X15396372Y-13433984D02*
X15377325Y-13433984D01*
X15377325Y-13433984D02*
X15358277Y-13424460D01*
X15358277Y-13424460D02*
X15348753Y-13414936D01*
X15348753Y-13414936D02*
X15339229Y-13395888D01*
X15339229Y-13395888D02*
X15329706Y-13357793D01*
X15329706Y-13357793D02*
X15329706Y-13310174D01*
X15329706Y-13310174D02*
X15339229Y-13272079D01*
X15339229Y-13272079D02*
X15348753Y-13253031D01*
X15348753Y-13253031D02*
X15358277Y-13243508D01*
X15358277Y-13243508D02*
X15377325Y-13233984D01*
X15520182Y-13253031D02*
X15529706Y-13243508D01*
X15529706Y-13243508D02*
X15548753Y-13233984D01*
X15548753Y-13233984D02*
X15596372Y-13233984D01*
X15596372Y-13233984D02*
X15615420Y-13243508D01*
X15615420Y-13243508D02*
X15624944Y-13253031D01*
X15624944Y-13253031D02*
X15634467Y-13272079D01*
X15634467Y-13272079D02*
X15634467Y-13291127D01*
X15634467Y-13291127D02*
X15624944Y-13319698D01*
X15624944Y-13319698D02*
X15510658Y-13433984D01*
X15510658Y-13433984D02*
X15634467Y-13433984D01*
X15805896Y-13300650D02*
X15805896Y-13433984D01*
X15758277Y-13224460D02*
X15710658Y-13367317D01*
X15710658Y-13367317D02*
X15834467Y-13367317D01*
X15901134Y-13233984D02*
X15901134Y-13272079D01*
X15977325Y-13233984D02*
X15977325Y-13272079D01*
X16272563Y-13510174D02*
X16263039Y-13500650D01*
X16263039Y-13500650D02*
X16243991Y-13472079D01*
X16243991Y-13472079D02*
X16234468Y-13453031D01*
X16234468Y-13453031D02*
X16224944Y-13424460D01*
X16224944Y-13424460D02*
X16215420Y-13376841D01*
X16215420Y-13376841D02*
X16215420Y-13338746D01*
X16215420Y-13338746D02*
X16224944Y-13291127D01*
X16224944Y-13291127D02*
X16234468Y-13262555D01*
X16234468Y-13262555D02*
X16243991Y-13243508D01*
X16243991Y-13243508D02*
X16263039Y-13214936D01*
X16263039Y-13214936D02*
X16272563Y-13205412D01*
X16434468Y-13300650D02*
X16434468Y-13433984D01*
X16386848Y-13224460D02*
X16339229Y-13367317D01*
X16339229Y-13367317D02*
X16463039Y-13367317D01*
X16691610Y-13433984D02*
X16691610Y-13233984D01*
X16777325Y-13433984D02*
X16777325Y-13329222D01*
X16777325Y-13329222D02*
X16767801Y-13310174D01*
X16767801Y-13310174D02*
X16748753Y-13300650D01*
X16748753Y-13300650D02*
X16720182Y-13300650D01*
X16720182Y-13300650D02*
X16701134Y-13310174D01*
X16701134Y-13310174D02*
X16691610Y-13319698D01*
X16901134Y-13433984D02*
X16882087Y-13424460D01*
X16882087Y-13424460D02*
X16872563Y-13414936D01*
X16872563Y-13414936D02*
X16863039Y-13395888D01*
X16863039Y-13395888D02*
X16863039Y-13338746D01*
X16863039Y-13338746D02*
X16872563Y-13319698D01*
X16872563Y-13319698D02*
X16882087Y-13310174D01*
X16882087Y-13310174D02*
X16901134Y-13300650D01*
X16901134Y-13300650D02*
X16929706Y-13300650D01*
X16929706Y-13300650D02*
X16948753Y-13310174D01*
X16948753Y-13310174D02*
X16958277Y-13319698D01*
X16958277Y-13319698D02*
X16967801Y-13338746D01*
X16967801Y-13338746D02*
X16967801Y-13395888D01*
X16967801Y-13395888D02*
X16958277Y-13414936D01*
X16958277Y-13414936D02*
X16948753Y-13424460D01*
X16948753Y-13424460D02*
X16929706Y-13433984D01*
X16929706Y-13433984D02*
X16901134Y-13433984D01*
X17082087Y-13433984D02*
X17063039Y-13424460D01*
X17063039Y-13424460D02*
X17053515Y-13405412D01*
X17053515Y-13405412D02*
X17053515Y-13233984D01*
X17234468Y-13424460D02*
X17215420Y-13433984D01*
X17215420Y-13433984D02*
X17177325Y-13433984D01*
X17177325Y-13433984D02*
X17158277Y-13424460D01*
X17158277Y-13424460D02*
X17148753Y-13405412D01*
X17148753Y-13405412D02*
X17148753Y-13329222D01*
X17148753Y-13329222D02*
X17158277Y-13310174D01*
X17158277Y-13310174D02*
X17177325Y-13300650D01*
X17177325Y-13300650D02*
X17215420Y-13300650D01*
X17215420Y-13300650D02*
X17234468Y-13310174D01*
X17234468Y-13310174D02*
X17243992Y-13329222D01*
X17243992Y-13329222D02*
X17243992Y-13348269D01*
X17243992Y-13348269D02*
X17148753Y-13367317D01*
X17320182Y-13424460D02*
X17339230Y-13433984D01*
X17339230Y-13433984D02*
X17377325Y-13433984D01*
X17377325Y-13433984D02*
X17396373Y-13424460D01*
X17396373Y-13424460D02*
X17405896Y-13405412D01*
X17405896Y-13405412D02*
X17405896Y-13395888D01*
X17405896Y-13395888D02*
X17396373Y-13376841D01*
X17396373Y-13376841D02*
X17377325Y-13367317D01*
X17377325Y-13367317D02*
X17348753Y-13367317D01*
X17348753Y-13367317D02*
X17329706Y-13357793D01*
X17329706Y-13357793D02*
X17320182Y-13338746D01*
X17320182Y-13338746D02*
X17320182Y-13329222D01*
X17320182Y-13329222D02*
X17329706Y-13310174D01*
X17329706Y-13310174D02*
X17348753Y-13300650D01*
X17348753Y-13300650D02*
X17377325Y-13300650D01*
X17377325Y-13300650D02*
X17396373Y-13310174D01*
X17472563Y-13510174D02*
X17482087Y-13500650D01*
X17482087Y-13500650D02*
X17501134Y-13472079D01*
X17501134Y-13472079D02*
X17510658Y-13453031D01*
X17510658Y-13453031D02*
X17520182Y-13424460D01*
X17520182Y-13424460D02*
X17529706Y-13376841D01*
X17529706Y-13376841D02*
X17529706Y-13338746D01*
X17529706Y-13338746D02*
X17520182Y-13291127D01*
X17520182Y-13291127D02*
X17510658Y-13262555D01*
X17510658Y-13262555D02*
X17501134Y-13243508D01*
X17501134Y-13243508D02*
X17482087Y-13214936D01*
X17482087Y-13214936D02*
X17472563Y-13205412D01*
X17834468Y-13510174D02*
X17824944Y-13500650D01*
X17824944Y-13500650D02*
X17805896Y-13472079D01*
X17805896Y-13472079D02*
X17796373Y-13453031D01*
X17796373Y-13453031D02*
X17786849Y-13424460D01*
X17786849Y-13424460D02*
X17777325Y-13376841D01*
X17777325Y-13376841D02*
X17777325Y-13338746D01*
X17777325Y-13338746D02*
X17786849Y-13291127D01*
X17786849Y-13291127D02*
X17796373Y-13262555D01*
X17796373Y-13262555D02*
X17805896Y-13243508D01*
X17805896Y-13243508D02*
X17824944Y-13214936D01*
X17824944Y-13214936D02*
X17834468Y-13205412D01*
X17910658Y-13300650D02*
X17910658Y-13433984D01*
X17910658Y-13319698D02*
X17920182Y-13310174D01*
X17920182Y-13310174D02*
X17939230Y-13300650D01*
X17939230Y-13300650D02*
X17967801Y-13300650D01*
X17967801Y-13300650D02*
X17986849Y-13310174D01*
X17986849Y-13310174D02*
X17996373Y-13329222D01*
X17996373Y-13329222D02*
X17996373Y-13433984D01*
X18120182Y-13433984D02*
X18101134Y-13424460D01*
X18101134Y-13424460D02*
X18091611Y-13414936D01*
X18091611Y-13414936D02*
X18082087Y-13395888D01*
X18082087Y-13395888D02*
X18082087Y-13338746D01*
X18082087Y-13338746D02*
X18091611Y-13319698D01*
X18091611Y-13319698D02*
X18101134Y-13310174D01*
X18101134Y-13310174D02*
X18120182Y-13300650D01*
X18120182Y-13300650D02*
X18148754Y-13300650D01*
X18148754Y-13300650D02*
X18167801Y-13310174D01*
X18167801Y-13310174D02*
X18177325Y-13319698D01*
X18177325Y-13319698D02*
X18186849Y-13338746D01*
X18186849Y-13338746D02*
X18186849Y-13395888D01*
X18186849Y-13395888D02*
X18177325Y-13414936D01*
X18177325Y-13414936D02*
X18167801Y-13424460D01*
X18167801Y-13424460D02*
X18148754Y-13433984D01*
X18148754Y-13433984D02*
X18120182Y-13433984D01*
X18243992Y-13300650D02*
X18320182Y-13300650D01*
X18272563Y-13233984D02*
X18272563Y-13405412D01*
X18272563Y-13405412D02*
X18282087Y-13424460D01*
X18282087Y-13424460D02*
X18301134Y-13433984D01*
X18301134Y-13433984D02*
X18320182Y-13433984D01*
X18539230Y-13300650D02*
X18539230Y-13500650D01*
X18539230Y-13310174D02*
X18558277Y-13300650D01*
X18558277Y-13300650D02*
X18596373Y-13300650D01*
X18596373Y-13300650D02*
X18615420Y-13310174D01*
X18615420Y-13310174D02*
X18624944Y-13319698D01*
X18624944Y-13319698D02*
X18634468Y-13338746D01*
X18634468Y-13338746D02*
X18634468Y-13395888D01*
X18634468Y-13395888D02*
X18624944Y-13414936D01*
X18624944Y-13414936D02*
X18615420Y-13424460D01*
X18615420Y-13424460D02*
X18596373Y-13433984D01*
X18596373Y-13433984D02*
X18558277Y-13433984D01*
X18558277Y-13433984D02*
X18539230Y-13424460D01*
X18748754Y-13433984D02*
X18729706Y-13424460D01*
X18729706Y-13424460D02*
X18720182Y-13405412D01*
X18720182Y-13405412D02*
X18720182Y-13233984D01*
X18910658Y-13433984D02*
X18910658Y-13329222D01*
X18910658Y-13329222D02*
X18901135Y-13310174D01*
X18901135Y-13310174D02*
X18882087Y-13300650D01*
X18882087Y-13300650D02*
X18843992Y-13300650D01*
X18843992Y-13300650D02*
X18824944Y-13310174D01*
X18910658Y-13424460D02*
X18891611Y-13433984D01*
X18891611Y-13433984D02*
X18843992Y-13433984D01*
X18843992Y-13433984D02*
X18824944Y-13424460D01*
X18824944Y-13424460D02*
X18815420Y-13405412D01*
X18815420Y-13405412D02*
X18815420Y-13386365D01*
X18815420Y-13386365D02*
X18824944Y-13367317D01*
X18824944Y-13367317D02*
X18843992Y-13357793D01*
X18843992Y-13357793D02*
X18891611Y-13357793D01*
X18891611Y-13357793D02*
X18910658Y-13348269D01*
X18977325Y-13300650D02*
X19053515Y-13300650D01*
X19005896Y-13233984D02*
X19005896Y-13405412D01*
X19005896Y-13405412D02*
X19015420Y-13424460D01*
X19015420Y-13424460D02*
X19034468Y-13433984D01*
X19034468Y-13433984D02*
X19053515Y-13433984D01*
X19196373Y-13424460D02*
X19177325Y-13433984D01*
X19177325Y-13433984D02*
X19139230Y-13433984D01*
X19139230Y-13433984D02*
X19120182Y-13424460D01*
X19120182Y-13424460D02*
X19110658Y-13405412D01*
X19110658Y-13405412D02*
X19110658Y-13329222D01*
X19110658Y-13329222D02*
X19120182Y-13310174D01*
X19120182Y-13310174D02*
X19139230Y-13300650D01*
X19139230Y-13300650D02*
X19177325Y-13300650D01*
X19177325Y-13300650D02*
X19196373Y-13310174D01*
X19196373Y-13310174D02*
X19205896Y-13329222D01*
X19205896Y-13329222D02*
X19205896Y-13348269D01*
X19205896Y-13348269D02*
X19110658Y-13367317D01*
X19377325Y-13433984D02*
X19377325Y-13233984D01*
X19377325Y-13424460D02*
X19358277Y-13433984D01*
X19358277Y-13433984D02*
X19320182Y-13433984D01*
X19320182Y-13433984D02*
X19301135Y-13424460D01*
X19301135Y-13424460D02*
X19291611Y-13414936D01*
X19291611Y-13414936D02*
X19282087Y-13395888D01*
X19282087Y-13395888D02*
X19282087Y-13338746D01*
X19282087Y-13338746D02*
X19291611Y-13319698D01*
X19291611Y-13319698D02*
X19301135Y-13310174D01*
X19301135Y-13310174D02*
X19320182Y-13300650D01*
X19320182Y-13300650D02*
X19358277Y-13300650D01*
X19358277Y-13300650D02*
X19377325Y-13310174D01*
X19453516Y-13510174D02*
X19463039Y-13500650D01*
X19463039Y-13500650D02*
X19482087Y-13472079D01*
X19482087Y-13472079D02*
X19491611Y-13453031D01*
X19491611Y-13453031D02*
X19501135Y-13424460D01*
X19501135Y-13424460D02*
X19510658Y-13376841D01*
X19510658Y-13376841D02*
X19510658Y-13338746D01*
X19510658Y-13338746D02*
X19501135Y-13291127D01*
X19501135Y-13291127D02*
X19491611Y-13262555D01*
X19491611Y-13262555D02*
X19482087Y-13243508D01*
X19482087Y-13243508D02*
X19463039Y-13214936D01*
X19463039Y-13214936D02*
X19453516Y-13205412D01*
M02*
