M48
; DRILL file {KiCad 8.0.1} date 2024-04-15T00:46:58+0800
; FORMAT={-:-/ absolute / metric / decimal}
; #@! TF.CreationDate,2024-04-15T00:46:58+08:00
; #@! TF.GenerationSoftware,Kicad,Pcbnew,8.0.1
; #@! TF.FileFunction,Plated,1,2,PTH
FMAT,2
METRIC
; #@! TA.AperFunction,Plated,PTH,ViaDrill
T1C0.400
; #@! TA.AperFunction,Plated,PTH,ViaDrill
T2C0.500
; #@! TA.AperFunction,Plated,PTH,ComponentDrill
T3C0.800
; #@! TA.AperFunction,Plated,PTH,ComponentDrill
T4C0.900
; #@! TA.AperFunction,Plated,PTH,ComponentDrill
T5C1.000
; #@! TA.AperFunction,Plated,PTH,ComponentDrill
T6C1.100
%
G90
G05
T1
X133.731Y-69.103
X134.168Y-108.331
X135.509Y-83.693
X136.378Y-76.571
X136.525Y-111.887
X136.525Y-119.202
X137.624Y-99.822
X138.303Y-106.172
X138.949Y-73.895
X138.949Y-75.946
X139.04Y-71.323
X139.065Y-119.177
X139.167Y-63.195
X139.319Y-83.693
X140.868Y-64.846
X142.113Y-114.77
X142.748Y-73.863
X142.748Y-76.088
X142.951Y-62.128
X143.383Y-103.53
X143.713Y-101.93
X146.075Y-63.043
X147.244Y-118.72
X149.225Y-71.272
X150.368Y-70.485
X150.825Y-112.55
X150.978Y-118.212
X151.511Y-59.512
X151.511Y-63.83
X151.511Y-96.342
X152.324Y-116.484
X152.375Y-113.63
X152.527Y-52.959
X152.705Y-99.746
X152.73Y-87.706
X153.289Y-52.197
X153.543Y-116.561
X154.991Y-89.535
X155.808Y-69.337
X156.21Y-119.126
X156.286Y-74.295
X156.439Y-99.187
X156.464Y-110.01
X156.489Y-107.823
X156.794Y-102.047
X156.82Y-68.428
X156.972Y-120.142
X157.099Y-76.537
X157.302Y-87.097
X157.632Y-103.901
X157.817Y-75.184
X158.039Y-105.356
X158.09Y-98.415
X158.242Y-82.042
X158.343Y-68.682
X158.61Y-88.837
X158.725Y-103.901
X158.801Y-84.176
X158.902Y-77.749
X158.979Y-99.644
X159.36Y-106.791
X159.385Y-63.525
X159.664Y-108.509
X159.664Y-109.83
X160.103Y-95.961
X160.122Y-86.944
X160.147Y-91.338
X160.452Y-115.738
X160.477Y-103.673
X160.528Y-93.437
X160.528Y-101.768
X160.528Y-113.934
X160.528Y-119.126
X160.604Y-111.658
X160.68Y-99.736
X160.96Y-68.504
X160.96Y-82.245
X162.128Y-57.125
X162.306Y-55.905
X163.137Y-89.078
X163.137Y-99.812
X163.137Y-102.327
X163.137Y-109.261
X163.137Y-111.801
X163.137Y-116.779
X163.297Y-104.689
X163.297Y-106.924
X163.347Y-114.874
X163.449Y-74.524
X166.395Y-84.074
X166.624Y-97.043
X166.929Y-117.846
X168.554Y-62.02
X169.85Y-95.271
X169.926Y-101.996
X169.926Y-103.216
X170.358Y-68.529
X170.592Y-100.955
X170.764Y-76.327
X170.917Y-103.861
X172.555Y-84.391
X172.593Y-96.104
X173.02Y-91.243
X173.253Y-103.856
X173.437Y-97.17
X173.695Y-90.535
X173.838Y-120.767
X174.402Y-94.908
X174.523Y-74.727
X174.549Y-96.647
X175.057Y-50.546
X176.022Y-64.846
X176.174Y-87.3
X176.359Y-53.594
X177.648Y-97.932
X177.698Y-101.727
X177.876Y-73.983
X178.181Y-107.076
X178.206Y-104.181
X178.257Y-90.602
X178.384Y-87.909
X178.53Y-109.794
X178.549Y-80.251
X179.273Y-87.015
X179.68Y-92.278
X180.137Y-87.909
X180.238Y-62.027
X180.823Y-114.884
X181.381Y-99.085
X181.686Y-63.024
X181.864Y-118.608
X181.889Y-111.115
X182.169Y-87.503
X182.22Y-58.134
X182.245Y-69.545
X183.002Y-97.663
X183.185Y-62.452
X183.185Y-91.77
X183.916Y-87.884
X183.979Y-106.248
X184.161Y-56.159
X184.36Y-97.638
X184.495Y-114.899
X184.658Y-83.947
X185.293Y-101.321
X185.75Y-103.175
X185.801Y-106.35
X185.953Y-114.256
X185.979Y-116.916
X186.055Y-50.292
X186.131Y-99.949
X186.207Y-87.224
X186.207Y-90.602
X186.284Y-75.013
X187.325Y-69.545
X188.45Y-101.9
X188.62Y-73.501
X188.894Y-102.816
X188.963Y-91.732
X189.377Y-103.672
X190.221Y-117.414
X190.475Y-79.604
X190.602Y-83.134
X190.805Y-74.879
X191.211Y-87.525
X192.583Y-56.185
X192.608Y-99.695
X192.684Y-120.107
X192.888Y-73.584
X192.938Y-100.787
X193.414Y-109.242
X193.548Y-79.35
X193.606Y-116.259
X193.743Y-101.404
X193.828Y-108.28
X193.878Y-85.293
X193.904Y-81.298
X193.973Y-99.136
X194.963Y-116.874
X194.97Y-118.379
X195.765Y-99.126
X195.986Y-76.225
X195.986Y-100.193
X196.056Y-110.937
X196.596Y-83.801
X196.748Y-112.852
X196.802Y-101.516
X197.189Y-97.866
X197.256Y-116.027
X197.333Y-112.039
X197.543Y-95.098
X199.263Y-68.174
X200.076Y-100.254
X200.203Y-88.824
X202.413Y-95.123
X202.54Y-68.377
X203.378Y-72.669
X204.851Y-88.9
X205.156Y-104.724
X205.537Y-100.584
X205.562Y-98.806
X205.638Y-112.344
X206.375Y-87.579
X207.391Y-114.96
X207.442Y-117.475
X207.62Y-83.414
X208.305Y-100.381
X208.356Y-61.646
X210.236Y-71.679
X212.046Y-74.905
X212.115Y-104.75
X212.471Y-79.705
T2
X137.77Y-64.846
X151.333Y-77.749
X154.991Y-87.391
X173.253Y-76.225
X182.982Y-99.746
X193.294Y-64.846
X200.05Y-74.727
X208.788Y-74.625
X211.074Y-64.846
T3
X129.857Y-60.405
X129.857Y-65.405
X130.155Y-70.475
X130.155Y-78.095
X130.155Y-81.905
X130.175Y-85.725
X130.175Y-88.265
X130.175Y-90.805
X130.175Y-93.345
X130.175Y-95.885
X130.175Y-98.425
X130.175Y-100.965
X130.175Y-103.505
X130.175Y-106.045
X130.175Y-108.585
X130.175Y-111.125
X130.175Y-113.665
X130.175Y-116.205
X130.175Y-118.745
X132.695Y-59.045
X132.695Y-66.665
X132.695Y-70.475
X132.695Y-78.095
X132.695Y-81.905
X135.235Y-59.045
X135.235Y-66.665
X135.235Y-70.475
X135.235Y-78.095
X135.235Y-81.905
X136.525Y-122.555
X137.775Y-59.045
X137.775Y-66.665
X137.775Y-70.475
X137.775Y-78.095
X137.775Y-81.905
X139.065Y-122.555
X140.315Y-59.045
X140.315Y-66.665
X140.315Y-70.475
X140.315Y-78.095
X140.315Y-81.905
X141.605Y-122.555
X142.855Y-59.045
X142.855Y-66.665
X142.855Y-70.475
X142.855Y-78.095
X142.855Y-81.905
X144.145Y-122.555
X145.395Y-59.045
X145.395Y-66.665
X145.395Y-70.475
X145.395Y-78.095
X145.395Y-81.905
X145.415Y-85.725
X145.415Y-88.265
X145.415Y-90.805
X145.415Y-93.345
X145.415Y-95.885
X145.415Y-98.425
X145.415Y-100.965
X145.415Y-103.505
X145.415Y-106.045
X145.415Y-108.585
X145.415Y-111.125
X145.415Y-113.665
X145.415Y-116.205
X145.415Y-118.745
X146.685Y-122.555
X147.935Y-59.045
X147.935Y-66.665
X147.935Y-70.475
X147.935Y-78.095
X147.935Y-81.905
X147.955Y-47.625
X147.955Y-55.245
X149.225Y-85.715
X149.225Y-88.255
X149.225Y-90.795
X149.225Y-93.335
X149.225Y-95.875
X149.225Y-98.415
X149.225Y-100.955
X149.225Y-103.495
X149.225Y-106.035
X149.225Y-108.575
X149.225Y-111.115
X149.225Y-113.655
X149.225Y-116.195
X149.225Y-118.735
X149.225Y-122.555
X151.765Y-122.555
X153.035Y-47.625
X153.035Y-55.245
X153.035Y-59.055
X153.035Y-66.675
X154.305Y-122.555
X155.575Y-47.625
X155.575Y-55.245
X155.575Y-59.055
X155.575Y-66.675
X156.845Y-122.555
X158.115Y-47.625
X158.115Y-55.245
X158.115Y-59.055
X158.115Y-66.675
X159.425Y-122.555
X160.655Y-47.625
X160.655Y-55.245
X160.655Y-59.055
X160.655Y-66.675
X163.195Y-59.055
X163.195Y-66.675
X164.425Y-122.555
X164.465Y-85.715
X164.465Y-88.255
X164.465Y-90.795
X164.465Y-93.335
X164.465Y-95.875
X164.465Y-98.415
X164.465Y-100.955
X164.465Y-103.495
X164.465Y-106.035
X164.465Y-108.575
X164.465Y-111.115
X164.465Y-113.655
X164.465Y-116.195
X164.465Y-118.735
X165.735Y-59.055
X165.735Y-66.675
X168.275Y-59.055
X168.275Y-66.675
X168.275Y-85.725
X168.275Y-93.345
X168.275Y-98.415
X168.275Y-100.955
X168.275Y-103.495
X168.275Y-106.035
X168.275Y-108.575
X168.275Y-111.115
X168.275Y-113.655
X168.275Y-116.195
X168.275Y-118.735
X168.275Y-121.275
X170.815Y-85.725
X170.815Y-93.345
X172.085Y-60.405
X172.085Y-65.405
X173.355Y-85.725
X173.355Y-93.345
X175.895Y-47.625
X175.895Y-55.245
X175.895Y-59.025
X175.895Y-66.645
X175.895Y-70.465
X175.895Y-78.085
X175.895Y-81.915
X175.895Y-85.725
X175.895Y-93.345
X175.895Y-98.415
X175.895Y-100.955
X175.895Y-103.495
X175.895Y-106.035
X175.895Y-108.575
X175.895Y-111.115
X175.895Y-113.655
X175.895Y-116.195
X175.895Y-118.735
X175.895Y-121.275
X178.435Y-54.287
X178.435Y-59.025
X178.435Y-66.645
X178.435Y-70.465
X178.435Y-78.085
X178.435Y-81.915
X178.435Y-85.725
X178.435Y-93.345
X179.705Y-98.415
X179.705Y-100.955
X179.705Y-103.495
X179.705Y-106.035
X179.705Y-108.575
X179.705Y-111.115
X179.705Y-113.655
X179.705Y-116.195
X179.705Y-118.735
X179.705Y-121.275
X179.991Y-48.895
X180.975Y-54.287
X180.975Y-59.025
X180.975Y-66.645
X180.975Y-70.465
X180.975Y-78.085
X180.975Y-81.915
X180.975Y-85.725
X180.975Y-93.345
X181.991Y-48.895
X183.515Y-54.287
X183.515Y-59.025
X183.515Y-66.645
X183.515Y-70.465
X183.515Y-78.085
X183.515Y-81.915
X183.515Y-85.725
X183.515Y-93.345
X186.055Y-47.625
X186.055Y-55.245
X186.055Y-59.025
X186.055Y-66.645
X186.055Y-70.465
X186.055Y-78.085
X186.055Y-81.915
X186.055Y-85.725
X186.055Y-93.345
X187.325Y-98.415
X187.325Y-100.955
X187.325Y-103.495
X187.325Y-106.035
X187.325Y-108.575
X187.325Y-111.115
X187.325Y-113.655
X187.325Y-116.195
X187.325Y-118.735
X187.325Y-121.275
X188.595Y-47.705
X188.595Y-55.325
X188.595Y-59.025
X188.595Y-66.645
X188.595Y-70.465
X188.595Y-78.085
X188.595Y-81.915
X188.595Y-85.725
X188.595Y-93.345
X191.135Y-50.245
X191.135Y-55.245
X191.135Y-59.025
X191.135Y-66.645
X191.135Y-70.465
X191.135Y-78.085
X191.135Y-85.725
X191.135Y-93.345
X191.135Y-98.415
X191.135Y-100.955
X191.135Y-103.495
X191.135Y-106.035
X191.135Y-108.575
X191.135Y-111.115
X191.135Y-113.655
X191.135Y-116.195
X191.135Y-118.735
X191.135Y-121.275
X194.945Y-87.075
X194.945Y-92.075
X196.215Y-59.035
X196.215Y-66.655
X196.215Y-70.465
X196.215Y-78.085
X196.215Y-81.915
X198.755Y-59.035
X198.755Y-66.655
X198.755Y-70.465
X198.755Y-78.085
X198.755Y-85.715
X198.755Y-93.335
X198.755Y-98.415
X198.755Y-100.955
X198.755Y-103.495
X198.755Y-106.035
X198.755Y-108.575
X198.755Y-111.115
X198.755Y-113.655
X198.755Y-116.195
X198.755Y-118.735
X198.755Y-121.275
X198.77Y-81.915
X201.295Y-59.035
X201.295Y-66.655
X201.295Y-70.465
X201.295Y-78.085
X201.295Y-85.715
X201.295Y-93.335
X202.565Y-98.415
X202.565Y-100.955
X202.565Y-103.495
X202.565Y-106.035
X202.565Y-108.575
X202.565Y-111.115
X202.565Y-113.655
X202.565Y-116.195
X202.565Y-118.735
X202.565Y-121.275
X203.835Y-59.035
X203.835Y-66.655
X203.835Y-70.465
X203.835Y-78.085
X203.835Y-85.715
X203.835Y-93.335
X206.375Y-59.035
X206.375Y-66.655
X206.375Y-70.465
X206.375Y-78.085
X206.375Y-85.715
X206.375Y-93.335
X206.39Y-81.915
X208.915Y-59.035
X208.915Y-66.655
X208.915Y-70.465
X208.915Y-78.085
X208.915Y-85.715
X208.915Y-93.335
X208.995Y-81.915
X210.185Y-98.415
X210.185Y-100.955
X210.185Y-103.495
X210.185Y-106.035
X210.185Y-108.575
X210.185Y-111.115
X210.185Y-113.655
X210.185Y-116.195
X210.185Y-118.735
X210.185Y-121.275
X211.455Y-59.035
X211.455Y-66.655
X211.455Y-70.465
X211.455Y-78.085
X211.455Y-85.715
X211.455Y-93.335
X213.995Y-59.035
X213.995Y-66.655
X213.995Y-70.465
X213.995Y-78.085
X213.995Y-81.915
X213.995Y-85.715
X213.995Y-93.335
X213.995Y-98.425
X213.995Y-106.045
X213.995Y-113.745
X213.995Y-118.745
T4
X167.64Y-55.245
X170.18Y-55.245
T5
X135.255Y-55.245
X137.795Y-55.245
X140.335Y-55.245
X142.875Y-55.245
X154.285Y-72.39
X154.285Y-80.01
X161.905Y-72.39
X161.905Y-80.01
X169.525Y-72.39
X169.525Y-80.01
X196.215Y-55.245
X198.755Y-55.245
X201.295Y-55.245
X203.835Y-55.245
X206.375Y-55.245
X208.915Y-55.245
T6
X165.585Y-47.57
X165.585Y-52.07
X172.085Y-47.57
X172.085Y-52.07
M30
